# Blender 5.2.0 LTS
# www.blender.org
mtllib BuiCo1.mtl
o BuiCo1_Co
v 0.006683 0.000000 -0.027407
v -0.025429 0.000000 0.001686
v -0.001190 0.089775 -0.030288
v -0.027522 0.089775 -0.006432
v -0.019028 0.179549 -0.044170
v -0.039581 0.179549 -0.025551
v -0.046833 0.269324 -0.069052
v -0.061605 0.269324 -0.055669
v -0.084603 0.359099 -0.104934
v -0.093595 0.359099 -0.096788
v -0.132339 0.448874 -0.151816
v -0.135550 0.448874 -0.148906
v -0.021301 0.000000 -0.026026
v 0.002555 0.000000 0.000306
v -0.024137 0.089775 -0.029157
v -0.004575 0.089775 -0.007564
v -0.036939 0.179549 -0.043287
v -0.021670 0.179549 -0.026434
v -0.059706 0.269324 -0.068417
v -0.048732 0.269324 -0.056304
v -0.092439 0.359099 -0.104547
v -0.085759 0.359099 -0.097174
v -0.135138 0.448874 -0.151678
v -0.132752 0.448874 -0.149044
v -0.008279 0.000000 0.044871
v 0.040355 0.000000 0.035508
v -0.001709 0.129773 0.055417
v 0.038170 0.129773 0.047739
v 0.009246 0.259547 0.088741
v 0.040371 0.259547 0.082748
v 0.024586 0.389320 0.144842
v 0.046958 0.389320 0.140535
v 0.044312 0.519094 0.223720
v 0.057930 0.519094 0.221098
v 0.068424 0.648867 0.325376
v 0.073287 0.648867 0.324440
v 0.019877 0.000000 0.060129
v 0.012199 0.000000 0.020250
v 0.021378 0.129773 0.067929
v 0.015082 0.129773 0.035228
v 0.027266 0.259547 0.098506
v 0.022352 0.259547 0.072983
v 0.037538 0.389320 0.151860
v 0.034006 0.389320 0.133516
v 0.052196 0.519094 0.227992
v 0.050046 0.519094 0.216826
v 0.071239 0.648867 0.326902
v 0.070472 0.648867 0.322914
v 0.071630 0.000000 0.015202
v 0.054924 0.000000 -0.039090
v 0.078371 0.087104 0.007779
v 0.064672 0.087104 -0.036740
v 0.101602 0.174209 -0.004718
v 0.090910 0.174209 -0.039465
v 0.141322 0.261313 -0.022290
v 0.133637 0.261313 -0.047264
v 0.197531 0.348417 -0.044935
v 0.192853 0.348417 -0.060136
v 0.270230 0.435521 -0.072654
v 0.268559 0.435521 -0.078083
v 0.085537 0.000000 -0.018793
v 0.041017 0.000000 -0.005094
v 0.089775 0.087104 -0.020097
v 0.053269 0.087104 -0.008864
v 0.110502 0.174209 -0.026475
v 0.082010 0.174209 -0.017708
v 0.147719 0.261313 -0.037927
v 0.127240 0.261313 -0.031626
v 0.201425 0.348417 -0.054453
v 0.188960 0.348417 -0.050618
v 0.271620 0.435521 -0.076053
v 0.267169 0.435521 -0.074683
v 0.018119 0.000000 0.020485
v 0.047794 0.000000 -0.006386
v 0.027028 0.113030 0.024956
v 0.051361 0.113030 0.002921
v 0.048414 0.226060 0.043205
v 0.067406 0.226060 0.026008
v 0.082277 0.339090 0.075233
v 0.095927 0.339090 0.062872
v 0.128617 0.452120 0.121039
v 0.136926 0.452120 0.113515
v 0.187433 0.565151 0.180623
v 0.190401 0.565151 0.177936
v 0.043974 0.000000 0.019216
v 0.021939 0.000000 -0.005117
v 0.048229 0.113030 0.023915
v 0.030161 0.113030 0.003962
v 0.064961 0.226060 0.042393
v 0.050859 0.226060 0.026820
v 0.094170 0.339090 0.074649
v 0.084034 0.339090 0.063456
v 0.135856 0.452120 0.120684
v 0.129686 0.452120 0.113870
v 0.190019 0.565151 0.180496
v 0.187815 0.565151 0.178063
v -0.018979 0.000000 -0.030862
v -0.030676 0.000000 0.020551
v -0.028717 0.102772 -0.028211
v -0.038309 0.102772 0.013947
v -0.055827 0.205543 -0.029512
v -0.063313 0.205543 0.003392
v -0.100308 0.308315 -0.034766
v -0.105688 0.308315 -0.011116
v -0.162160 0.411086 -0.043971
v -0.165435 0.411086 -0.029575
v -0.241383 0.513858 -0.057128
v -0.242553 0.513858 -0.051987
v -0.045907 0.000000 -0.009952
v -0.003748 0.000000 -0.000360
v -0.050798 0.102772 -0.011065
v -0.016228 0.102772 -0.003199
v -0.073061 0.205543 -0.016130
v -0.046079 0.205543 -0.009991
v -0.112695 0.308315 -0.025147
v -0.093302 0.308315 -0.020735
v -0.169700 0.411086 -0.038116
v -0.157895 0.411086 -0.035430
v -0.244076 0.513858 -0.055037
v -0.239860 0.513858 -0.054078
v 0.024204 0.000000 -0.003965
v -0.023381 0.000000 0.002826
v 0.018852 0.095325 -0.010851
v -0.020168 0.095325 -0.005283
v 0.011359 0.190650 -0.032733
v -0.019095 0.190650 -0.028387
v 0.001727 0.285975 -0.069610
v -0.020162 0.285975 -0.066486
v -0.010045 0.381300 -0.121482
v -0.023368 0.381300 -0.119580
v -0.023956 0.476625 -0.188349
v -0.028715 0.476625 -0.187670
v -0.002372 0.000000 -0.020079
v 0.003196 0.000000 0.018940
v -0.002941 0.095325 -0.024065
v 0.001625 0.095325 0.007931
v -0.005650 0.190650 -0.043046
v -0.002086 0.190650 -0.018074
v -0.010498 0.285975 -0.077022
v -0.007937 0.285975 -0.059073
v -0.017486 0.381300 -0.125994
v -0.015927 0.381300 -0.115068
v -0.026614 0.476625 -0.189960
v -0.026057 0.476625 -0.186058
v 0.001247 0.000000 0.024050
v 0.016015 0.000000 -0.022740
v 0.012128 0.125035 0.022854
v 0.024237 0.125035 -0.015514
v 0.042111 0.250070 0.027686
v 0.051563 0.250070 -0.002259
v 0.091198 0.375104 0.038548
v 0.097991 0.375104 0.017025
v 0.159388 0.500139 0.055439
v 0.163523 0.500139 0.042338
v 0.246680 0.625174 0.078360
v 0.248157 0.625174 0.073680
v 0.027815 0.000000 0.006710
v -0.010553 0.000000 -0.005400
v 0.033913 0.125035 0.008635
v 0.002452 0.125035 -0.001295
v 0.059115 0.250070 0.016589
v 0.034559 0.250070 0.008838
v 0.103419 0.375104 0.030572
v 0.085770 0.375104 0.025001
v 0.166827 0.500139 0.050584
v 0.156084 0.500139 0.047193
v 0.249337 0.625174 0.076625
v 0.245500 0.625174 0.075415
v 0.049030 0.000000 -0.082224
v 0.005017 0.000000 -0.076137
v 0.044427 0.075103 -0.086314
v 0.008336 0.075103 -0.081323
v 0.038542 0.150207 -0.099681
v 0.010373 0.150207 -0.095785
v 0.031373 0.225310 -0.122324
v 0.011127 0.225310 -0.119523
v 0.022922 0.300414 -0.154243
v 0.010598 0.300414 -0.152538
v 0.013187 0.375517 -0.195438
v 0.008786 0.375517 -0.194829
v 0.024528 0.000000 -0.097226
v 0.029519 0.000000 -0.061135
v 0.024335 0.075103 -0.098616
v 0.028428 0.075103 -0.069021
v 0.022860 0.150207 -0.109282
v 0.026055 0.150207 -0.086184
v 0.020102 0.225310 -0.129224
v 0.022398 0.225310 -0.112623
v 0.016061 0.300414 -0.158443
v 0.017459 0.300414 -0.148338
v 0.010737 0.375517 -0.196938
v 0.011236 0.375517 -0.193329
v 0.022661 0.000000 0.014211
v 0.010867 0.000000 -0.033436
v 0.030552 0.102427 0.007707
v 0.020880 0.102427 -0.031364
v 0.056345 0.204854 -0.003229
v 0.048797 0.204854 -0.033723
v 0.100042 0.307281 -0.018597
v 0.094617 0.307281 -0.040514
v 0.161642 0.409708 -0.038396
v 0.158340 0.409708 -0.051737
v 0.241146 0.512135 -0.062627
v 0.239967 0.512135 -0.067392
v 0.036299 0.000000 -0.014449
v -0.002771 0.000000 -0.004777
v 0.041735 0.102427 -0.015794
v 0.009697 0.102427 -0.007863
v 0.065073 0.204854 -0.021571
v 0.040068 0.204854 -0.015381
v 0.106316 0.307281 -0.031780
v 0.088343 0.307281 -0.027331
v 0.165461 0.409708 -0.046421
v 0.154521 0.409708 -0.043713
v 0.242510 0.512135 -0.065493
v 0.238603 0.512135 -0.064526
v 0.031116 0.000000 -0.063782
v -0.013834 0.000000 -0.074880
v 0.028080 0.097909 -0.068872
v -0.008779 0.097909 -0.077972
v 0.027065 0.195817 -0.082145
v -0.001703 0.195817 -0.089248
v 0.028071 0.293726 -0.103601
v 0.007394 0.293726 -0.108706
v 0.031096 0.391635 -0.133240
v 0.018511 0.391635 -0.136347
v 0.036143 0.489543 -0.171062
v 0.031648 0.489543 -0.172171
v 0.013191 0.000000 -0.087760
v 0.004091 0.000000 -0.050901
v 0.013382 0.097909 -0.088534
v 0.005920 0.097909 -0.058310
v 0.015594 0.195817 -0.097491
v 0.009769 0.195817 -0.073902
v 0.019825 0.293726 -0.114631
v 0.015639 0.293726 -0.097676
v 0.026078 0.391635 -0.139954
v 0.023529 0.391635 -0.129633
v 0.034350 0.489543 -0.173460
v 0.033440 0.489543 -0.169774
v -0.039978 0.000000 0.070109
v -0.030406 0.000000 0.078906
v -0.043303 0.140615 0.075456
v -0.035454 0.140615 0.082669
v -0.055002 0.281229 0.089913
v -0.048876 0.281229 0.095543
v -0.075074 0.421844 0.113481
v -0.070671 0.421844 0.117528
v -0.103520 0.562459 0.146160
v -0.100840 0.562459 0.148623
v -0.140340 0.703073 0.187949
v -0.139383 0.703073 0.188829
v -0.038917 0.000000 0.078554
v -0.031467 0.000000 0.070461
v -0.042433 0.140615 0.082381
v -0.036324 0.140615 0.075744
v -0.054323 0.281229 0.095318
v -0.049555 0.281229 0.090139
v -0.074586 0.421844 0.117366
v -0.071159 0.421844 0.113643
v -0.103223 0.562459 0.148525
v -0.101137 0.562459 0.146259
v -0.140234 0.703073 0.188794
v -0.139489 0.703073 0.187984
v -0.046946 0.000000 0.050661
v -0.034329 0.000000 0.053795
v -0.047010 0.113116 0.055773
v -0.036664 0.113116 0.058343
v -0.049474 0.226232 0.070546
v -0.041400 0.226232 0.072552
v -0.054339 0.339348 0.094980
v -0.048535 0.339348 0.096421
v -0.061603 0.452464 0.129074
v -0.058070 0.452464 0.129951
v -0.071267 0.565580 0.172828
v -0.070005 0.565580 0.173142
v -0.041968 0.000000 0.057565
v -0.039307 0.000000 0.046891
v -0.042928 0.113116 0.061434
v -0.040746 0.113116 0.052682
v -0.046288 0.226232 0.074965
v -0.044586 0.226232 0.068134
v -0.052049 0.339348 0.098155
v -0.050825 0.339348 0.093246
v -0.060209 0.452464 0.131007
v -0.059464 0.452464 0.128018
v -0.070769 0.565580 0.173519
v -0.070503 0.565580 0.172451
vn -0.6691 -0.0824 -0.7386
vn -0.6517 -0.2407 -0.7193
vn -0.6205 -0.3820 -0.6849
vn -0.5811 -0.5009 -0.6414
vn -0.5387 -0.5969 -0.5946
vn -0.7411 -0.0000 0.6714
vn 0.1883 -0.0890 0.9781
vn 0.1826 -0.2590 0.9485
vn 0.1726 -0.4080 0.8965
vn 0.1603 -0.5304 0.8325
vn 0.1473 -0.6268 0.7652
vn 0.9820 -0.0000 -0.1891
vn 0.9511 -0.0986 -0.2927
vn 0.9162 -0.2848 -0.2819
vn 0.8565 -0.4437 -0.2636
vn 0.7855 -0.5697 -0.2417
vn 0.7135 -0.6654 -0.2196
vn -0.2941 -0.0000 -0.9558
vn 0.6690 -0.0819 0.7388
vn 0.6517 -0.2395 0.7197
vn 0.6208 -0.3802 0.6856
vn 0.5817 -0.4989 0.6424
vn 0.5396 -0.5949 0.5958
vn 0.7413 -0.0000 -0.6712
vn 0.7412 -0.0000 -0.6712
vn -0.9714 -0.0863 -0.2210
vn -0.9437 -0.2517 -0.2147
vn -0.8947 -0.3976 -0.2035
vn -0.8336 -0.5187 -0.1897
vn -0.7688 -0.6151 -0.1749
vn -0.2218 -0.0000 0.9751
vn -0.1408 -0.0792 -0.9869
vn -0.1374 -0.2319 -0.9630
vn -0.1313 -0.3692 -0.9200
vn -0.1235 -0.4860 -0.8652
vn -0.1149 -0.5816 -0.8053
vn -0.9900 -0.0000 0.1413
vn 0.9506 -0.0798 0.3000
vn 0.9272 -0.2337 0.2926
vn 0.8853 -0.3718 0.2794
vn 0.8318 -0.4891 0.2625
vn 0.7736 -0.5848 0.2441
vn 0.3010 -0.0000 -0.9536
vn -0.1367 -0.0622 -0.9887
vn -0.1347 -0.1838 -0.9737
vn -0.1308 -0.2976 -0.9457
vn -0.1256 -0.4000 -0.9079
vn -0.1195 -0.4893 -0.8639
vn -0.9906 -0.0000 0.1370
vn 0.9668 -0.0897 -0.2393
vn 0.9371 -0.2608 -0.2320
vn 0.8851 -0.4105 -0.2191
vn 0.8212 -0.5332 -0.2033
vn 0.7542 -0.6296 -0.1867
vn -0.2403 -0.0000 -0.9707
vn 0.2395 -0.0430 -0.9699
vn 0.2377 -0.1281 -0.9629
vn 0.2343 -0.2104 -0.9491
vn 0.2295 -0.2885 -0.9296
vn 0.2235 -0.3612 -0.9053
vn -0.9708 -0.0000 -0.2397
vn -0.6760 -0.0440 0.7355
vn -0.6709 -0.1309 0.7299
vn -0.6609 -0.2149 0.7191
vn -0.6467 -0.2944 0.7036
vn -0.6292 -0.3682 0.6845
vn 0.7357 -0.0000 0.6773
vn 0.7357 -0.0001 0.6773
vn 0.7357 -0.0002 0.6773
vn 0.7357 -0.0003 0.6773
vn -0.2409 -0.0440 0.9696
vn -0.2390 -0.1309 0.9622
vn -0.2355 -0.2149 0.9478
vn -0.2304 -0.2944 0.9275
vn -0.2242 -0.3682 0.9023
vn 0.9703 -0.0000 0.2419
vn 0.9703 -0.0001 0.2419
vn 0.9703 -0.0002 0.2419
vn 0.9703 -0.0003 0.2419
s 0
g BuiCo1_Co_MatCo
usemtl MatCo
f 1//1 2//1 4//1 3//1
f 3//2 4//2 6//2 5//2
f 5//3 6//3 8//3 7//3
f 7//4 8//4 10//4 9//4
f 9//5 10//5 12//5 11//5
f 13//6 14//6 16//6 15//6
f 15//6 16//6 18//6 17//6
f 17//6 18//6 20//6 19//6
f 19//6 20//6 22//6 21//6
f 21//6 22//6 24//6 23//6
f 25//7 26//7 28//7 27//7
f 27//8 28//8 30//8 29//8
f 29//9 30//9 32//9 31//9
f 31//10 32//10 34//10 33//10
f 33//11 34//11 36//11 35//11
f 37//12 38//12 40//12 39//12
f 39//12 40//12 42//12 41//12
f 41//12 42//12 44//12 43//12
f 43//12 44//12 46//12 45//12
f 45//12 46//12 48//12 47//12
f 49//13 50//13 52//13 51//13
f 51//14 52//14 54//14 53//14
f 53//15 54//15 56//15 55//15
f 55//16 56//16 58//16 57//16
f 57//17 58//17 60//17 59//17
f 61//18 62//18 64//18 63//18
f 63//18 64//18 66//18 65//18
f 65//18 66//18 68//18 67//18
f 67//18 68//18 70//18 69//18
f 69//18 70//18 72//18 71//18
f 73//19 74//19 76//19 75//19
f 75//20 76//20 78//20 77//20
f 77//21 78//21 80//21 79//21
f 79//22 80//22 82//22 81//22
f 81//23 82//23 84//23 83//23
f 85//24 86//24 88//24 87//24
f 87//24 88//24 90//24 89//24
f 89//24 90//24 92//24 91//24
f 91//24 92//24 94//24 93//24
f 93//25 94//25 96//25 95//25
f 97//26 98//26 100//26 99//26
f 99//27 100//27 102//27 101//27
f 101//28 102//28 104//28 103//28
f 103//29 104//29 106//29 105//29
f 105//30 106//30 108//30 107//30
f 109//31 110//31 112//31 111//31
f 111//31 112//31 114//31 113//31
f 113//31 114//31 116//31 115//31
f 115//31 116//31 118//31 117//31
f 117//31 118//31 120//31 119//31
f 121//32 122//32 124//32 123//32
f 123//33 124//33 126//33 125//33
f 125//34 126//34 128//34 127//34
f 127//35 128//35 130//35 129//35
f 129//36 130//36 132//36 131//36
f 133//37 134//37 136//37 135//37
f 135//37 136//37 138//37 137//37
f 137//37 138//37 140//37 139//37
f 139//37 140//37 142//37 141//37
f 141//37 142//37 144//37 143//37
f 145//38 146//38 148//38 147//38
f 147//39 148//39 150//39 149//39
f 149//40 150//40 152//40 151//40
f 151//41 152//41 154//41 153//41
f 153//42 154//42 156//42 155//42
f 157//43 158//43 160//43 159//43
f 159//43 160//43 162//43 161//43
f 161//43 162//43 164//43 163//43
f 163//43 164//43 166//43 165//43
f 165//43 166//43 168//43 167//43
f 169//44 170//44 172//44 171//44
f 171//45 172//45 174//45 173//45
f 173//46 174//46 176//46 175//46
f 175//47 176//47 178//47 177//47
f 177//48 178//48 180//48 179//48
f 181//49 182//49 184//49 183//49
f 183//49 184//49 186//49 185//49
f 185//49 186//49 188//49 187//49
f 187//49 188//49 190//49 189//49
f 189//49 190//49 192//49 191//49
f 193//50 194//50 196//50 195//50
f 195//51 196//51 198//51 197//51
f 197//52 198//52 200//52 199//52
f 199//53 200//53 202//53 201//53
f 201//54 202//54 204//54 203//54
f 205//55 206//55 208//55 207//55
f 207//55 208//55 210//55 209//55
f 209//55 210//55 212//55 211//55
f 211//55 212//55 214//55 213//55
f 213//55 214//55 216//55 215//55
f 217//56 218//56 220//56 219//56
f 219//57 220//57 222//57 221//57
f 221//58 222//58 224//58 223//58
f 223//59 224//59 226//59 225//59
f 225//60 226//60 228//60 227//60
f 229//61 230//61 232//61 231//61
f 231//61 232//61 234//61 233//61
f 233//61 234//61 236//61 235//61
f 235//61 236//61 238//61 237//61
f 237//61 238//61 240//61 239//61
f 241//62 242//62 244//62 243//62
f 243//63 244//63 246//63 245//63
f 245//64 246//64 248//64 247//64
f 247//65 248//65 250//65 249//65
f 249//66 250//66 252//66 251//66
f 253//67 254//67 256//67 255//67
f 255//68 256//68 258//68 257//68
f 257//69 258//69 260//69 259//69
f 259//69 260//69 262//69 261//69
f 261//70 262//70 264//70 263//70
f 265//71 266//71 268//71 267//71
f 267//72 268//72 270//72 269//72
f 269//73 270//73 272//73 271//73
f 271//74 272//74 274//74 273//74
f 273//75 274//75 276//75 275//75
f 277//76 278//76 280//76 279//76
f 279//77 280//77 282//77 281//77
f 281//78 282//78 284//78 283//78
f 283//78 284//78 286//78 285//78
f 285//79 286//79 288//79 287//79
o BuiCo1_Hoa
v -0.139861 0.735491 0.188389
v -0.115106 0.703073 0.188389
v -0.152239 0.703073 0.167170
v -0.152239 0.703073 0.209608
v -0.139861 0.685391 0.188389
v -0.114770 0.714862 0.214594
v -0.111990 0.714862 0.165162
v -0.048647 0.747279 0.193519
v -0.107486 0.714862 0.172013
v -0.153968 0.714862 0.154963
v -0.108400 0.747279 0.102619
v -0.142065 0.714862 0.152175
v -0.176141 0.714862 0.188093
v -0.206139 0.747279 0.125512
v -0.176009 0.714862 0.185284
v -0.145449 0.714862 0.224237
v -0.211740 0.747279 0.244779
v -0.158739 0.714862 0.219372
v -0.110252 0.714862 0.209356
v -0.121380 0.747279 0.277858
v -0.070636 0.592001 0.172985
v -0.050460 0.565580 0.172985
v -0.080724 0.565580 0.155691
v -0.080724 0.565580 0.190279
v -0.070636 0.551169 0.172985
v -0.050695 0.575188 0.194819
v -0.047481 0.575188 0.154595
v 0.003586 0.601609 0.178916
v -0.043385 0.575188 0.161508
v -0.080209 0.575188 0.145008
v -0.040188 0.601609 0.105036
v -0.080365 0.575188 0.145062
v -0.099164 0.575188 0.180767
v -0.136521 0.601609 0.138296
v -0.100142 0.575188 0.171046
v -0.074603 0.575188 0.202288
v -0.128284 0.601609 0.220111
v -0.079956 0.575188 0.201048
v -0.043282 0.575188 0.184216
v -0.039576 0.601609 0.240657
vn 0.4640 0.3543 -0.8119
vn -0.9342 0.3567 -0.0000
vn 0.4640 0.3543 0.8119
vn 0.4075 -0.5705 -0.7131
vn -0.8192 -0.5735 -0.0000
vn 0.4075 -0.5705 0.7131
vn 0.4465 -0.8944 0.0251
vn 0.1540 -0.8944 -0.4199
vn -0.3244 -0.8944 -0.3078
vn -0.3519 -0.8944 0.2760
vn 0.0905 -0.8944 0.4380
vn 0.4458 -0.8944 0.0356
vn 0.1829 -0.8944 -0.4081
vn -0.3957 -0.8944 -0.2083
vn -0.3462 -0.8944 0.2830
vn 0.1866 -0.8944 0.4064
s 0
g BuiCo1_Hoa_MatHoa
usemtl MatHoa
f 289//80 290//80 291//80
f 289//81 291//81 292//81
f 289//82 292//82 290//82
f 293//83 291//83 290//83
f 293//84 292//84 291//84
f 293//85 290//85 292//85
f 294//86 295//86 296//86
f 297//87 298//87 299//87
f 300//88 301//88 302//88
f 303//89 304//89 305//89
f 306//90 307//90 308//90
f 309//80 310//80 311//80
f 309//81 311//81 312//81
f 309//82 312//82 310//82
f 313//83 311//83 310//83
f 313//84 312//84 311//84
f 313//85 310//85 312//85
f 314//91 315//91 316//91
f 317//92 318//92 319//92
f 320//93 321//93 322//93
f 323//94 324//94 325//94
f 326//95 327//95 328//95
