# Blender 5.2.0 LTS
# www.blender.org
mtllib BuiCo3.mtl
o BuiCo3_Co
v 0.079028 0.000000 -0.032836
v 0.041490 0.000000 -0.046890
v 0.078533 0.091676 -0.041802
v 0.047752 0.091676 -0.053327
v 0.083805 0.183352 -0.066171
v 0.059780 0.183352 -0.075166
v 0.094844 0.275029 -0.105944
v 0.077576 0.275029 -0.112409
v 0.111650 0.366705 -0.161119
v 0.101139 0.366705 -0.165054
v 0.134223 0.458381 -0.231697
v 0.130469 0.458381 -0.233103
v 0.066021 0.000000 -0.055254
v 0.054497 0.000000 -0.024472
v 0.067868 0.091676 -0.060185
v 0.058417 0.091676 -0.034944
v 0.075481 0.183352 -0.080519
v 0.068105 0.183352 -0.060819
v 0.088861 0.275029 -0.116256
v 0.083559 0.275029 -0.102096
v 0.108008 0.366705 -0.167396
v 0.104781 0.366705 -0.158777
v 0.132922 0.458381 -0.233939
v 0.131769 0.458381 -0.230861
v 0.034106 0.000000 0.053296
v 0.053886 0.000000 0.013205
v 0.044799 0.099437 0.054085
v 0.061019 0.099437 0.021211
v 0.073320 0.198874 0.063670
v 0.085979 0.198874 0.038012
v 0.119667 0.298312 0.082051
v 0.128766 0.298312 0.063609
v 0.183842 0.397749 0.109227
v 0.189380 0.397749 0.098001
v 0.265843 0.497186 0.145198
v 0.267821 0.497186 0.141189
v 0.060433 0.000000 0.041360
v 0.027558 0.000000 0.025140
v 0.066388 0.099437 0.044298
v 0.039431 0.099437 0.030998
v 0.090169 0.198874 0.056032
v 0.069130 0.198874 0.045651
v 0.131778 0.298312 0.076561
v 0.116656 0.298312 0.069099
v 0.191213 0.397749 0.105885
v 0.182009 0.397749 0.101343
v 0.268476 0.497186 0.144005
v 0.265188 0.497186 0.142383
v 0.020027 0.000000 0.059963
v 0.035769 0.000000 0.014868
v 0.028905 0.103628 0.058508
v 0.041813 0.103628 0.021531
v 0.052705 0.207256 0.062263
v 0.062780 0.207256 0.033402
v 0.091427 0.310883 0.071227
v 0.098668 0.310883 0.050483
v 0.145071 0.414511 0.085400
v 0.149478 0.414511 0.072773
v 0.213637 0.518139 0.104782
v 0.215211 0.518139 0.100272
v 0.046387 0.000000 0.043869
v 0.009409 0.000000 0.030961
v 0.050520 0.103628 0.045312
v 0.020198 0.103628 0.034727
v 0.069575 0.207256 0.051964
v 0.045909 0.207256 0.043702
v 0.103552 0.310883 0.063824
v 0.086542 0.310883 0.057886
v 0.152451 0.414511 0.080894
v 0.142098 0.414511 0.077279
v 0.216273 0.518139 0.103172
v 0.212575 0.518139 0.101881
v 0.051452 0.000000 -0.040670
v 0.013527 0.000000 -0.045469
v 0.049197 0.125047 -0.050255
v 0.018099 0.125047 -0.054191
v 0.049259 0.250095 -0.078148
v 0.024988 0.250095 -0.081220
v 0.051639 0.375142 -0.124349
v 0.034193 0.375142 -0.126557
v 0.056335 0.500189 -0.188857
v 0.045716 0.500189 -0.190201
v 0.063348 0.625236 -0.271673
v 0.059556 0.625236 -0.272153
v 0.034457 0.000000 -0.058618
v 0.030522 0.000000 -0.027521
v 0.035262 0.125047 -0.064973
v 0.032034 0.125047 -0.039473
v 0.038383 0.250095 -0.089636
v 0.035864 0.250095 -0.069733
v 0.043821 0.375142 -0.132606
v 0.042011 0.375142 -0.118301
v 0.051577 0.500189 -0.193883
v 0.050475 0.500189 -0.185175
v 0.061649 0.625236 -0.273468
v 0.061255 0.625236 -0.270358
v 0.011216 0.000000 -0.011864
v -0.024656 0.000000 -0.029181
v 0.010949 0.112579 -0.019557
v -0.018465 0.112579 -0.033758
v 0.016606 0.225159 -0.039521
v -0.006351 0.225159 -0.050604
v 0.028187 0.337738 -0.071755
v 0.011686 0.337738 -0.079721
v 0.045691 0.450317 -0.116259
v 0.035647 0.450317 -0.121108
v 0.069119 0.562897 -0.173034
v 0.065532 0.562897 -0.174765
v 0.000380 0.000000 -0.035230
v -0.013820 0.000000 -0.005815
v 0.002064 0.112579 -0.038717
v -0.009580 0.112579 -0.014597
v 0.009672 0.225159 -0.054475
v 0.000583 0.225159 -0.035650
v 0.023203 0.337738 -0.082504
v 0.016670 0.337738 -0.068973
v 0.042657 0.450317 -0.122802
v 0.038681 0.450317 -0.114566
v 0.068035 0.562897 -0.175370
v 0.066615 0.562897 -0.172429
v 0.024170 0.000000 -0.020346
v -0.014363 0.000000 -0.020356
v 0.020703 0.071641 -0.024298
v -0.010894 0.071641 -0.024306
v 0.017238 0.143281 -0.036151
v -0.007423 0.143281 -0.036158
v 0.013775 0.214922 -0.055907
v -0.003951 0.214922 -0.055911
v 0.010314 0.286562 -0.083564
v -0.000476 0.286562 -0.083566
v 0.006854 0.358203 -0.119123
v 0.003001 0.358203 -0.119124
v 0.004907 0.000000 -0.036150
v 0.004900 0.000000 -0.004552
v 0.004908 0.071641 -0.037257
v 0.004901 0.071641 -0.011347
v 0.004910 0.143281 -0.046266
v 0.004905 0.143281 -0.026043
v 0.004914 0.214922 -0.063176
v 0.004910 0.214922 -0.048641
v 0.004920 0.286562 -0.087989
v 0.004918 0.286562 -0.079141
v 0.004928 0.358203 -0.120703
v 0.004927 0.358203 -0.117543
v 0.058802 0.000000 -0.012586
v 0.026686 0.000000 -0.032590
v 0.061656 0.114245 -0.023608
v 0.035321 0.114245 -0.040011
v 0.075998 0.228491 -0.053075
v 0.055443 0.228491 -0.065877
v 0.101828 0.342736 -0.100986
v 0.087054 0.342736 -0.110187
v 0.139146 0.456981 -0.167341
v 0.130153 0.456981 -0.172942
v 0.187952 0.571226 -0.252140
v 0.184741 0.571226 -0.254140
v 0.050946 0.000000 -0.035755
v 0.034543 0.000000 -0.009420
v 0.055214 0.114245 -0.042607
v 0.041763 0.114245 -0.021012
v 0.070970 0.228491 -0.067903
v 0.060471 0.228491 -0.051049
v 0.098214 0.342736 -0.111644
v 0.090668 0.342736 -0.099529
v 0.136946 0.456981 -0.173828
v 0.132353 0.456981 -0.166454
v 0.187167 0.571226 -0.254457
v 0.185526 0.571226 -0.251823
v -0.020125 0.000000 -0.010344
v -0.026022 0.000000 0.035784
v -0.025806 0.086186 -0.006851
v -0.030642 0.086186 0.030974
v -0.041787 0.172373 -0.004675
v -0.045561 0.172373 0.024847
v -0.068069 0.258559 -0.003815
v -0.070782 0.258559 0.017404
v -0.104651 0.344746 -0.004273
v -0.106302 0.344746 0.008643
v -0.151534 0.430932 -0.006047
v -0.152123 0.430932 -0.001434
v -0.041986 0.000000 0.010302
v -0.004161 0.000000 0.015138
v -0.043732 0.086186 0.010079
v -0.012716 0.086186 0.014044
v -0.055778 0.172373 0.008539
v -0.031570 0.172373 0.011634
v -0.078125 0.258559 0.005682
v -0.060726 0.258559 0.007907
v -0.110772 0.344746 0.001508
v -0.100181 0.344746 0.002862
v -0.153720 0.430932 -0.003982
v -0.149937 0.430932 -0.003499
v 0.001617 0.000000 -0.021798
v -0.004807 0.000000 0.021736
v -0.003924 0.121906 -0.018612
v -0.009192 0.121906 0.017086
v -0.019391 0.243811 -0.016891
v -0.023503 0.243811 0.010971
v -0.044784 0.365717 -0.016635
v -0.047739 0.365717 0.003391
v -0.080103 0.487622 -0.017843
v -0.081902 0.487622 -0.005654
v -0.125348 0.609528 -0.020516
v -0.125990 0.609528 -0.016163
v -0.019444 0.000000 -0.002665
v 0.016254 0.000000 0.002603
v -0.021194 0.121906 -0.002923
v 0.008078 0.121906 0.001396
v -0.032870 0.243811 -0.004646
v -0.010023 0.243811 -0.001275
v -0.054472 0.365717 -0.007834
v -0.038051 0.365717 -0.005411
v -0.086000 0.487622 -0.012486
v -0.076005 0.487622 -0.011011
v -0.127454 0.609528 -0.018603
v -0.123884 0.609528 -0.018076
v 0.040229 0.000000 0.013214
v 0.042519 0.000000 -0.020947
v 0.045277 0.077850 0.010464
v 0.047154 0.077850 -0.017548
v 0.060007 0.155701 0.008363
v 0.061472 0.155701 -0.013500
v 0.084419 0.233551 0.006911
v 0.085473 0.233551 -0.008803
v 0.118515 0.311402 0.006108
v 0.119156 0.311402 -0.003457
v 0.162293 0.389252 0.005954
v 0.162522 0.389252 0.002537
v 0.055380 0.000000 -0.002928
v 0.027368 0.000000 -0.004805
v 0.057701 0.077850 -0.002772
v 0.034731 0.077850 -0.004312
v 0.069703 0.155701 -0.001968
v 0.051776 0.155701 -0.003169
v 0.091389 0.233551 -0.000514
v 0.078503 0.233551 -0.001378
v 0.122757 0.311402 0.001588
v 0.114914 0.311402 0.001062
v 0.163808 0.389252 0.004339
v 0.161006 0.389252 0.004152
v 0.095401 0.000000 0.014085
v 0.090785 0.000000 0.001932
v 0.099403 0.107388 0.011314
v 0.095618 0.107388 0.001348
v 0.112239 0.214775 0.005188
v 0.109285 0.214775 -0.002590
v 0.133910 0.322163 -0.004294
v 0.131787 0.322163 -0.009884
v 0.164415 0.429550 -0.017130
v 0.163123 0.429550 -0.020533
v 0.203755 0.536938 -0.033321
v 0.203294 0.536938 -0.034536
v 0.098236 0.000000 0.006060
v 0.087950 0.000000 0.009957
v 0.101728 0.107388 0.004733
v 0.093293 0.107388 0.007929
v 0.114054 0.214775 0.000052
v 0.107470 0.214775 0.002546
v 0.135214 0.322163 -0.007985
v 0.130483 0.322163 -0.006192
v 0.165209 0.429550 -0.019377
v 0.162329 0.429550 -0.018286
v 0.204039 0.536938 -0.034123
v 0.203010 0.536938 -0.033734
v 0.012313 0.000000 0.084521
v 0.024423 0.000000 0.079793
v 0.015663 0.141270 0.089885
v 0.025593 0.141270 0.086008
v 0.023535 0.282541 0.106831
v 0.031285 0.282541 0.103805
v 0.035928 0.423811 0.135356
v 0.041499 0.423811 0.133181
v 0.052842 0.565082 0.175463
v 0.056233 0.565082 0.174139
v 0.074278 0.706352 0.227149
v 0.075489 0.706352 0.226677
v 0.020364 0.000000 0.087282
v 0.016372 0.000000 0.077032
v 0.022265 0.141270 0.092149
v 0.018992 0.141270 0.083744
v 0.028688 0.282541 0.108598
v 0.026133 0.282541 0.102038
v 0.039632 0.423811 0.136626
v 0.037795 0.423811 0.131911
v 0.055097 0.565082 0.176236
v 0.053979 0.565082 0.173366
v 0.075083 0.706352 0.227425
v 0.074683 0.706352 0.226400
vn 0.3492 -0.0893 -0.9328
vn 0.3386 -0.2599 -0.9043
vn 0.3199 -0.4092 -0.8545
vn 0.2969 -0.5318 -0.7931
vn 0.2728 -0.6282 -0.7287
vn -0.9365 -0.0000 -0.3506
vn 0.8923 -0.0995 0.4403
vn 0.8590 -0.2872 0.4238
vn 0.8022 -0.4471 0.3958
vn 0.7348 -0.5733 0.3625
vn 0.6667 -0.6688 0.3289
vn 0.4425 -0.0000 -0.8968
vn 0.9414 -0.0760 0.3286
vn 0.9204 -0.2230 0.3213
vn 0.8822 -0.3563 0.3079
vn 0.8329 -0.4709 0.2907
vn 0.7784 -0.5659 0.2717
vn 0.3296 -0.0000 -0.9441
vn 0.1252 -0.0736 -0.9894
vn 0.1226 -0.2161 -0.9686
vn 0.1178 -0.3461 -0.9308
vn 0.1116 -0.4589 -0.8815
vn 0.1046 -0.5532 -0.8265
vn -0.9921 -0.0000 -0.1256
vn 0.4340 -0.0604 -0.8989
vn 0.4278 -0.1786 -0.8861
vn 0.4161 -0.2896 -0.8620
vn 0.4003 -0.3900 -0.8292
vn 0.3818 -0.4783 -0.7909
vn -0.9005 -0.0000 -0.4348
vn 0.0002 -0.0551 -0.9985
vn 0.0002 -0.1632 -0.9866
vn 0.0002 -0.2658 -0.9640
vn 0.0002 -0.3601 -0.9329
vn 0.0002 -0.4446 -0.8957
vn -1.0000 -0.0000 -0.0002
vn 0.5263 -0.0947 -0.8450
vn 0.5084 -0.2744 -0.8162
vn 0.4775 -0.4294 -0.7666
vn 0.4401 -0.5541 -0.7066
vn 0.4017 -0.6502 -0.6449
vn -0.8488 -0.0000 -0.5287
vn -0.9901 -0.0601 -0.1266
vn -0.9761 -0.1778 -0.1248
vn -0.9498 -0.2884 -0.1214
vn -0.9140 -0.3886 -0.1168
vn -0.8720 -0.4766 -0.1115
vn -0.1268 -0.0000 0.9919
vn -0.9885 -0.0411 -0.1459
vn -0.9818 -0.1225 -0.1449
vn -0.9690 -0.2015 -0.1430
vn -0.9506 -0.2768 -0.1403
vn -0.9277 -0.3473 -0.1369
vn -0.1460 -0.0000 0.9893
vn 0.9958 -0.0622 0.0667
vn 0.9808 -0.1838 0.0657
vn 0.9526 -0.2975 0.0638
vn 0.9145 -0.3999 0.0613
vn 0.8702 -0.4892 0.0583
vn 0.0669 -0.0000 -0.9978
vn 0.9340 -0.0440 -0.3547
vn 0.9268 -0.1309 -0.3520
vn 0.9130 -0.2149 -0.3467
vn 0.8934 -0.2944 -0.3393
vn 0.8692 -0.3682 -0.3301
vn -0.3543 -0.0000 -0.9351
vn -0.3543 -0.0001 -0.9351
vn -0.3543 -0.0002 -0.9351
vn -0.3543 -0.0003 -0.9351
vn 0.3633 -0.0440 0.9306
vn 0.3606 -0.1309 0.9235
vn 0.3552 -0.2149 0.9098
vn 0.3476 -0.2944 0.8903
vn 0.3381 -0.3682 0.8661
vn 0.9318 -0.0000 -0.3629
vn 0.9318 -0.0001 -0.3629
vn 0.9318 -0.0002 -0.3629
vn 0.9318 -0.0003 -0.3629
s 0
g BuiCo3_Co_MatCo
usemtl MatCo
f 1//1 2//1 4//1 3//1
f 3//2 4//2 6//2 5//2
f 5//3 6//3 8//3 7//3
f 7//4 8//4 10//4 9//4
f 9//5 10//5 12//5 11//5
f 13//6 14//6 16//6 15//6
f 15//6 16//6 18//6 17//6
f 17//6 18//6 20//6 19//6
f 19//6 20//6 22//6 21//6
f 21//6 22//6 24//6 23//6
f 25//7 26//7 28//7 27//7
f 27//8 28//8 30//8 29//8
f 29//9 30//9 32//9 31//9
f 31//10 32//10 34//10 33//10
f 33//11 34//11 36//11 35//11
f 37//12 38//12 40//12 39//12
f 39//12 40//12 42//12 41//12
f 41//12 42//12 44//12 43//12
f 43//12 44//12 46//12 45//12
f 45//12 46//12 48//12 47//12
f 49//13 50//13 52//13 51//13
f 51//14 52//14 54//14 53//14
f 53//15 54//15 56//15 55//15
f 55//16 56//16 58//16 57//16
f 57//17 58//17 60//17 59//17
f 61//18 62//18 64//18 63//18
f 63//18 64//18 66//18 65//18
f 65//18 66//18 68//18 67//18
f 67//18 68//18 70//18 69//18
f 69//18 70//18 72//18 71//18
f 73//19 74//19 76//19 75//19
f 75//20 76//20 78//20 77//20
f 77//21 78//21 80//21 79//21
f 79//22 80//22 82//22 81//22
f 81//23 82//23 84//23 83//23
f 85//24 86//24 88//24 87//24
f 87//24 88//24 90//24 89//24
f 89//24 90//24 92//24 91//24
f 91//24 92//24 94//24 93//24
f 93//24 94//24 96//24 95//24
f 97//25 98//25 100//25 99//25
f 99//26 100//26 102//26 101//26
f 101//27 102//27 104//27 103//27
f 103//28 104//28 106//28 105//28
f 105//29 106//29 108//29 107//29
f 109//30 110//30 112//30 111//30
f 111//30 112//30 114//30 113//30
f 113//30 114//30 116//30 115//30
f 115//30 116//30 118//30 117//30
f 117//30 118//30 120//30 119//30
f 121//31 122//31 124//31 123//31
f 123//32 124//32 126//32 125//32
f 125//33 126//33 128//33 127//33
f 127//34 128//34 130//34 129//34
f 129//35 130//35 132//35 131//35
f 133//36 134//36 136//36 135//36
f 135//36 136//36 138//36 137//36
f 137//36 138//36 140//36 139//36
f 139//36 140//36 142//36 141//36
f 141//36 142//36 144//36 143//36
f 145//37 146//37 148//37 147//37
f 147//38 148//38 150//38 149//38
f 149//39 150//39 152//39 151//39
f 151//40 152//40 154//40 153//40
f 153//41 154//41 156//41 155//41
f 157//42 158//42 160//42 159//42
f 159//42 160//42 162//42 161//42
f 161//42 162//42 164//42 163//42
f 163//42 164//42 166//42 165//42
f 165//42 166//42 168//42 167//42
f 169//43 170//43 172//43 171//43
f 171//44 172//44 174//44 173//44
f 173//45 174//45 176//45 175//45
f 175//46 176//46 178//46 177//46
f 177//47 178//47 180//47 179//47
f 181//48 182//48 184//48 183//48
f 183//48 184//48 186//48 185//48
f 185//48 186//48 188//48 187//48
f 187//48 188//48 190//48 189//48
f 189//48 190//48 192//48 191//48
f 193//49 194//49 196//49 195//49
f 195//50 196//50 198//50 197//50
f 197//51 198//51 200//51 199//51
f 199//52 200//52 202//52 201//52
f 201//53 202//53 204//53 203//53
f 205//54 206//54 208//54 207//54
f 207//54 208//54 210//54 209//54
f 209//54 210//54 212//54 211//54
f 211//54 212//54 214//54 213//54
f 213//54 214//54 216//54 215//54
f 217//55 218//55 220//55 219//55
f 219//56 220//56 222//56 221//56
f 221//57 222//57 224//57 223//57
f 223//58 224//58 226//58 225//58
f 225//59 226//59 228//59 227//59
f 229//60 230//60 232//60 231//60
f 231//60 232//60 234//60 233//60
f 233//60 234//60 236//60 235//60
f 235//60 236//60 238//60 237//60
f 237//60 238//60 240//60 239//60
f 241//61 242//61 244//61 243//61
f 243//62 244//62 246//62 245//62
f 245//63 246//63 248//63 247//63
f 247//64 248//64 250//64 249//64
f 249//65 250//65 252//65 251//65
f 253//66 254//66 256//66 255//66
f 255//67 256//67 258//67 257//67
f 257//68 258//68 260//68 259//68
f 259//68 260//68 262//68 261//68
f 261//69 262//69 264//69 263//69
f 265//70 266//70 268//70 267//70
f 267//71 268//71 270//71 269//71
f 269//72 270//72 272//72 271//72
f 271//73 272//73 274//73 273//73
f 273//74 274//74 276//74 275//74
f 277//75 278//75 280//75 279//75
f 279//76 280//76 282//76 281//76
f 281//77 282//77 284//77 283//77
f 283//77 284//77 286//77 285//77
f 285//78 286//78 288//78 287//78
o BuiCo3_Hoa
v 0.203525 0.564482 -0.033929
v 0.224559 0.536938 -0.033929
v 0.193008 0.536938 -0.051958
v 0.193008 0.536938 -0.015899
v 0.203525 0.521913 -0.033929
v 0.224891 0.546954 -0.011707
v 0.227165 0.546954 -0.053714
v 0.281036 0.574498 -0.029732
v 0.230246 0.546954 -0.049300
v 0.190030 0.546954 -0.061646
v 0.226305 0.574498 -0.108136
v 0.198100 0.546954 -0.064275
v 0.172877 0.546954 -0.030607
v 0.141399 0.574498 -0.080471
v 0.173355 0.546954 -0.040265
v 0.195125 0.546954 -0.004268
v 0.137101 0.574498 0.006242
v 0.193292 0.546954 -0.004849
v 0.231830 0.546954 -0.021717
v 0.234650 0.574498 0.037183
v 0.074883 0.734605 0.226913
v 0.096458 0.706352 0.226913
v 0.064096 0.706352 0.208420
v 0.064096 0.706352 0.245406
v 0.074883 0.690941 0.226913
v 0.096834 0.716626 0.249673
v 0.099101 0.716626 0.206582
v 0.154396 0.744879 0.231098
v 0.104178 0.716626 0.215011
v 0.065028 0.716626 0.196868
v 0.108363 0.744879 0.154671
v 0.073234 0.716626 0.195336
v 0.043267 0.716626 0.226383
v 0.017594 0.744879 0.171616
v 0.043887 0.716626 0.220659
v 0.066509 0.716626 0.257404
v 0.007080 0.744879 0.268656
v 0.059492 0.716626 0.254535
v 0.101379 0.716626 0.244170
v 0.094008 0.744879 0.304204
vn 0.4640 0.3543 -0.8119
vn -0.9342 0.3567 -0.0000
vn 0.4640 0.3543 0.8119
vn 0.4075 -0.5705 -0.7131
vn -0.8192 -0.5735 -0.0000
vn 0.4075 -0.5705 0.7131
vn 0.4466 -0.8944 0.0242
vn 0.1312 -0.8944 -0.4275
vn -0.3579 -0.8944 -0.2681
vn -0.3827 -0.8944 0.2314
vn 0.1793 -0.8944 0.4097
vn 0.4466 -0.8944 0.0235
vn 0.1880 -0.8944 -0.4058
vn -0.3218 -0.8944 -0.3106
vn -0.3808 -0.8944 0.2345
vn 0.1074 -0.8944 0.4341
s 0
g BuiCo3_Hoa_MatHoa
usemtl MatHoa
f 289//79 290//79 291//79
f 289//80 291//80 292//80
f 289//81 292//81 290//81
f 293//82 291//82 290//82
f 293//83 292//83 291//83
f 293//84 290//84 292//84
f 294//85 295//85 296//85
f 297//86 298//86 299//86
f 300//87 301//87 302//87
f 303//88 304//88 305//88
f 306//89 307//89 308//89
f 309//79 310//79 311//79
f 309//80 311//80 312//80
f 309//81 312//81 310//81
f 313//82 311//82 310//82
f 313//83 312//83 311//83
f 313//84 310//84 312//84
f 314//90 315//90 316//90
f 317//91 318//91 319//91
f 320//92 321//92 322//92
f 323//93 324//93 325//93
f 326//94 327//94 328//94
