# Blender 5.2.0 LTS
# www.blender.org
mtllib BuiCo0.mtl
o BuiCo0_Co
v -0.031564 0.000000 0.061670
v 0.001471 0.000000 0.103179
v -0.033891 0.091108 0.069623
v -0.006802 0.091108 0.103661
v -0.046815 0.182217 0.086012
v -0.025673 0.182217 0.112577
v -0.070339 0.273325 0.110835
v -0.055142 0.273325 0.129929
v -0.104461 0.364433 0.144093
v -0.095211 0.364433 0.155716
v -0.149181 0.455542 0.185787
v -0.145877 0.455542 0.189937
v -0.032065 0.000000 0.095969
v 0.001972 0.000000 0.068880
v -0.034301 0.091108 0.097748
v -0.006391 0.091108 0.075535
v -0.047136 0.182217 0.107963
v -0.025352 0.182217 0.090626
v -0.070569 0.273325 0.126612
v -0.054912 0.273325 0.114152
v -0.104601 0.364433 0.153697
v -0.095070 0.364433 0.146112
v -0.149231 0.455542 0.189216
v -0.145827 0.455542 0.186508
v -0.063383 0.000000 0.045400
v -0.025397 0.000000 0.072668
v -0.064634 0.104433 0.054360
v -0.033485 0.104433 0.076719
v -0.075225 0.208866 0.076331
v -0.050914 0.208866 0.093782
v -0.095156 0.313300 0.111314
v -0.077682 0.313300 0.123857
v -0.124426 0.417733 0.159308
v -0.113790 0.417733 0.166943
v -0.163037 0.522166 0.220313
v -0.159238 0.522166 0.223040
v -0.055569 0.000000 0.074608
v -0.033210 0.000000 0.043460
v -0.058227 0.104433 0.078311
v -0.039892 0.104433 0.052769
v -0.070224 0.208866 0.095024
v -0.055914 0.208866 0.075089
v -0.091561 0.313300 0.124750
v -0.081276 0.313300 0.110421
v -0.122238 0.417733 0.167486
v -0.115978 0.417733 0.158764
v -0.162255 0.522166 0.223234
v -0.160019 0.522166 0.220119
v 0.047975 0.000000 -0.000412
v 0.057902 0.000000 -0.053310
v 0.054567 0.079592 -0.004103
v 0.062707 0.079592 -0.047480
v 0.072556 0.159183 -0.005656
v 0.078909 0.159183 -0.039511
v 0.101941 0.238775 -0.005070
v 0.106507 0.238775 -0.029403
v 0.142722 0.318367 -0.002345
v 0.145502 0.318367 -0.017157
v 0.194901 0.397959 0.002518
v 0.195893 0.397959 -0.002772
v 0.074627 0.000000 -0.022791
v 0.031251 0.000000 -0.030931
v 0.076422 0.079592 -0.022454
v 0.040853 0.079592 -0.029129
v 0.089613 0.159183 -0.019979
v 0.061852 0.159183 -0.025188
v 0.114200 0.238775 -0.015364
v 0.094247 0.238775 -0.019109
v 0.150185 0.318367 -0.008611
v 0.138039 0.318367 -0.010891
v 0.197566 0.397959 0.000280
v 0.193228 0.397959 -0.000534
v 0.029682 0.000000 0.023300
v 0.029754 0.000000 -0.014479
v 0.035803 0.086189 0.019912
v 0.035862 0.086189 -0.011067
v 0.054153 0.172379 0.016547
v 0.054199 0.172379 -0.007632
v 0.084733 0.258568 0.013205
v 0.084766 0.258568 -0.004173
v 0.127542 0.344758 0.009887
v 0.127562 0.344758 -0.000691
v 0.182580 0.430947 0.006592
v 0.182587 0.430947 0.002814
v 0.045207 0.000000 0.004440
v 0.014228 0.000000 0.004381
v 0.048534 0.086189 0.004447
v 0.023131 0.086189 0.004398
v 0.064090 0.172379 0.004476
v 0.044263 0.172379 0.004438
v 0.091875 0.258568 0.004530
v 0.077624 0.258568 0.004502
v 0.131889 0.344758 0.004606
v 0.123215 0.344758 0.004590
v 0.184132 0.430947 0.004706
v 0.181034 0.430947 0.004700
v -0.029884 0.000000 -0.027739
v -0.053206 0.000000 0.006002
v -0.036034 0.104364 -0.027503
v -0.055158 0.104364 0.000166
v -0.050286 0.208728 -0.032866
v -0.065212 0.208728 -0.011271
v -0.072640 0.313092 -0.043830
v -0.083368 0.313092 -0.028309
v -0.103095 0.417456 -0.060394
v -0.109626 0.417456 -0.050946
v -0.141653 0.521820 -0.082558
v -0.143986 0.521820 -0.079183
v -0.055379 0.000000 -0.020431
v -0.027711 0.000000 -0.001306
v -0.056940 0.104364 -0.021510
v -0.034252 0.104364 -0.005827
v -0.066603 0.208728 -0.028189
v -0.048895 0.208728 -0.015949
v -0.084367 0.313092 -0.040468
v -0.071640 0.313092 -0.031671
v -0.110234 0.417456 -0.058347
v -0.102487 0.417456 -0.052992
v -0.144203 0.521820 -0.081827
v -0.141436 0.521820 -0.079914
v 0.016049 0.000000 0.034261
v 0.006966 0.000000 -0.021963
v 0.022939 0.086259 0.027956
v 0.015491 0.086259 -0.018148
v 0.045245 0.172517 0.019160
v 0.039431 0.172517 -0.016824
v 0.082965 0.258776 0.007874
v 0.078787 0.258776 -0.017989
v 0.136101 0.345035 -0.005903
v 0.133557 0.345035 -0.021646
v 0.204652 0.431293 -0.022170
v 0.203743 0.431293 -0.027793
v 0.034560 0.000000 0.002425
v -0.011545 0.000000 0.009873
v 0.038118 0.086259 0.001850
v 0.000312 0.086259 0.007958
v 0.057091 0.172517 -0.001215
v 0.027585 0.172517 0.003552
v 0.091480 0.258776 -0.006771
v 0.070272 0.258776 -0.003345
v 0.141284 0.345035 -0.014817
v 0.128375 0.345035 -0.012732
v 0.206503 0.431293 -0.025354
v 0.201892 0.431293 -0.024609
v -0.005468 0.000000 0.027284
v 0.037577 0.000000 0.006689
v 0.002768 0.102790 0.034547
v 0.038065 0.102790 0.017660
v 0.019728 0.205580 0.060044
v 0.047276 0.205580 0.046864
v 0.045411 0.308370 0.103775
v 0.065212 0.308370 0.094301
v 0.079818 0.411160 0.165739
v 0.091871 0.411160 0.159973
v 0.122949 0.513950 0.245937
v 0.127253 0.513950 0.243878
v 0.024498 0.000000 0.034635
v 0.007611 0.000000 -0.000662
v 0.027340 0.102790 0.040575
v 0.013493 0.102790 0.011632
v 0.038906 0.205580 0.064749
v 0.028098 0.205580 0.042159
v 0.059195 0.308370 0.107156
v 0.051427 0.308370 0.090920
v 0.088209 0.411160 0.167798
v 0.083480 0.411160 0.157914
v 0.125946 0.513950 0.246672
v 0.124257 0.513950 0.243143
v 0.022764 0.000000 0.060045
v 0.035850 0.000000 0.028245
v 0.032497 0.096146 0.060704
v 0.043228 0.096146 0.034628
v 0.059342 0.192292 0.068405
v 0.067717 0.192292 0.048053
v 0.103299 0.288438 0.083148
v 0.109318 0.288438 0.068520
v 0.164367 0.384584 0.104932
v 0.168031 0.384584 0.096028
v 0.242546 0.480730 0.133759
v 0.243855 0.480730 0.130579
v 0.042345 0.000000 0.049511
v 0.016269 0.000000 0.038780
v 0.048554 0.096146 0.052066
v 0.027171 0.096146 0.043266
v 0.071874 0.192292 0.061663
v 0.055185 0.192292 0.054795
v 0.112306 0.288438 0.078302
v 0.100311 0.288438 0.073366
v 0.169849 0.384584 0.101983
v 0.162548 0.384584 0.098978
v 0.244504 0.480730 0.132705
v 0.241896 0.480730 0.131632
v -0.094579 0.000000 -0.018793
v -0.058945 0.000000 0.021854
v -0.097725 0.094507 -0.009565
v -0.068505 0.094507 0.023765
v -0.113578 0.189014 0.010802
v -0.090772 0.189014 0.036816
v -0.142137 0.283522 0.042309
v -0.125746 0.283522 0.061006
v -0.183403 0.378029 0.084955
v -0.173425 0.378029 0.096336
v -0.237375 0.472536 0.138740
v -0.233812 0.472536 0.142804
v -0.093427 0.000000 0.016140
v -0.060097 0.000000 -0.013079
v -0.096781 0.094507 0.019080
v -0.069450 0.094507 -0.004880
v -0.112841 0.189014 0.033159
v -0.091509 0.189014 0.014459
v -0.141607 0.283522 0.058378
v -0.126275 0.283522 0.044937
v -0.183080 0.378029 0.094736
v -0.173748 0.378029 0.086554
v -0.237260 0.472536 0.142233
v -0.233927 0.472536 0.139311
v -0.050054 0.000000 -0.013087
v -0.048528 0.000000 0.023828
v -0.059991 0.120306 -0.009348
v -0.058740 0.120306 0.020922
v -0.090076 0.240611 -0.004777
v -0.089100 0.240611 0.018849
v -0.140311 0.360917 0.000627
v -0.139609 0.360917 0.017608
v -0.210694 0.481222 0.006863
v -0.210266 0.481222 0.017200
v -0.301225 0.601528 0.013933
v -0.301072 0.601528 0.017624
v -0.064426 0.000000 0.005996
v -0.034156 0.000000 0.004745
v -0.071776 0.120306 0.006300
v -0.046954 0.120306 0.005274
v -0.099275 0.240611 0.007436
v -0.079902 0.240611 0.006636
v -0.146922 0.360917 0.009405
v -0.132998 0.360917 0.008830
v -0.214718 0.481222 0.012207
v -0.206242 0.481222 0.011856
v -0.302662 0.601528 0.015841
v -0.299635 0.601528 0.015716
v 0.022923 0.000000 -0.050502
v 0.009998 0.000000 -0.049108
v 0.021179 0.122999 -0.055757
v 0.010581 0.122999 -0.054615
v 0.018275 0.245999 -0.071774
v 0.010003 0.245999 -0.070882
v 0.014211 0.368998 -0.098553
v 0.008265 0.368998 -0.097912
v 0.008986 0.491998 -0.136093
v 0.005367 0.491998 -0.135703
v 0.002601 0.614997 -0.184395
v 0.001308 0.614997 -0.184255
v 0.015875 0.000000 -0.055274
v 0.017045 0.000000 -0.044337
v 0.015400 0.122999 -0.059670
v 0.016360 0.122999 -0.050702
v 0.013765 0.245999 -0.074828
v 0.014514 0.245999 -0.067828
v 0.010969 0.368998 -0.100748
v 0.011507 0.368998 -0.095717
v 0.007013 0.491998 -0.137429
v 0.007341 0.491998 -0.134367
v 0.001896 0.614997 -0.184872
v 0.002013 0.614997 -0.183778
v -0.064471 0.000000 -0.073389
v -0.071621 0.000000 -0.062532
v -0.069546 0.120595 -0.075330
v -0.075409 0.120595 -0.066428
v -0.083484 0.241190 -0.083108
v -0.088060 0.241190 -0.076160
v -0.106285 0.361785 -0.096723
v -0.109574 0.361785 -0.091729
v -0.137949 0.482380 -0.116175
v -0.139951 0.482380 -0.113135
v -0.178477 0.602976 -0.141464
v -0.179192 0.602976 -0.140378
v -0.072637 0.000000 -0.070989
v -0.063455 0.000000 -0.064932
v -0.076242 0.120595 -0.073362
v -0.068713 0.120595 -0.068395
v -0.088710 0.241190 -0.081573
v -0.082834 0.241190 -0.077696
v -0.110042 0.361785 -0.095620
v -0.105818 0.361785 -0.092833
v -0.140236 0.482380 -0.115503
v -0.137665 0.482380 -0.113807
v -0.179293 0.602976 -0.141224
v -0.178375 0.602976 -0.140618
vn -0.7803 -0.0741 0.6210
vn -0.7637 -0.2177 0.6078
vn -0.7334 -0.3484 0.5837
vn -0.6941 -0.4616 0.5524
vn -0.6503 -0.5561 0.5176
vn 0.6227 -0.0000 0.7824
vn -0.5814 -0.0765 0.8100
vn -0.5683 -0.2242 0.7917
vn -0.5445 -0.3580 0.7585
vn -0.5138 -0.4730 0.7158
vn -0.4799 -0.5680 0.6686
vn 0.8124 -0.0000 0.5831
vn 0.9802 -0.0727 0.1840
vn 0.9602 -0.2135 0.1802
vn 0.9235 -0.3422 0.1733
vn 0.8756 -0.4543 0.1643
vn 0.8219 -0.5483 0.1543
vn 0.1844 -0.0000 -0.9828
vn 0.9975 -0.0708 0.0019
vn 0.9781 -0.2082 0.0019
vn 0.9425 -0.3343 0.0018
vn 0.8956 -0.4448 0.0017
vn 0.8428 -0.5382 0.0016
vn 0.0019 -0.0000 -1.0000
vn -0.8217 -0.0471 -0.5680
vn -0.8145 -0.1402 -0.5630
vn -0.8006 -0.2296 -0.5534
vn -0.7811 -0.3136 -0.5399
vn -0.7572 -0.3909 -0.5234
vn -0.5686 -0.0000 0.8226
vn 0.9832 -0.0901 -0.1588
vn 0.9527 -0.2621 -0.1539
vn 0.8994 -0.4123 -0.1453
vn 0.8339 -0.5352 -0.1347
vn 0.7654 -0.6316 -0.1237
vn -0.1595 -0.0000 -0.9872
vn 0.4295 -0.0979 0.8977
vn 0.4140 -0.2829 0.8652
vn 0.3873 -0.4412 0.8095
vn 0.3555 -0.5670 0.7431
vn 0.3232 -0.6627 0.6756
vn 0.9021 -0.0000 -0.4316
vn 0.9205 -0.0958 0.3788
vn 0.8885 -0.2774 0.3656
vn 0.8333 -0.4336 0.3429
vn 0.7670 -0.5587 0.3156
vn 0.6990 -0.6547 0.2877
vn 0.3806 -0.0000 -0.9248
vn -0.7490 -0.0890 0.6566
vn -0.7263 -0.2590 0.6367
vn -0.6865 -0.4081 0.6018
vn -0.6374 -0.5305 0.5588
vn -0.5859 -0.6269 0.5136
vn 0.6592 -0.0000 0.7520
vn -0.9957 -0.0835 0.0411
vn -0.9690 -0.2438 0.0400
vn -0.9215 -0.3865 0.0381
vn -0.8618 -0.5060 0.0356
vn -0.7977 -0.6022 0.0330
vn 0.0413 -0.0000 0.9991
vn -0.1071 -0.0440 -0.9933
vn -0.1063 -0.1309 -0.9857
vn -0.1047 -0.2149 -0.9710
vn -0.1025 -0.2944 -0.9502
vn -0.0997 -0.3682 -0.9244
vn -0.9943 -0.0000 0.1064
vn -0.9943 -0.0001 0.1064
vn -0.9943 -0.0002 0.1064
vn -0.9943 -0.0003 0.1064
vn -0.8344 -0.0440 -0.5495
vn -0.8280 -0.1309 -0.5453
vn -0.8157 -0.2149 -0.5372
vn -0.7982 -0.2944 -0.5256
vn -0.7765 -0.3682 -0.5114
vn -0.5507 -0.0000 0.8347
vn -0.5507 -0.0001 0.8347
vn -0.5507 -0.0002 0.8347
vn -0.5507 -0.0003 0.8347
s 0
g BuiCo0_Co_MatCo
usemtl MatCo
f 1//1 2//1 4//1 3//1
f 3//2 4//2 6//2 5//2
f 5//3 6//3 8//3 7//3
f 7//4 8//4 10//4 9//4
f 9//5 10//5 12//5 11//5
f 13//6 14//6 16//6 15//6
f 15//6 16//6 18//6 17//6
f 17//6 18//6 20//6 19//6
f 19//6 20//6 22//6 21//6
f 21//6 22//6 24//6 23//6
f 25//7 26//7 28//7 27//7
f 27//8 28//8 30//8 29//8
f 29//9 30//9 32//9 31//9
f 31//10 32//10 34//10 33//10
f 33//11 34//11 36//11 35//11
f 37//12 38//12 40//12 39//12
f 39//12 40//12 42//12 41//12
f 41//12 42//12 44//12 43//12
f 43//12 44//12 46//12 45//12
f 45//12 46//12 48//12 47//12
f 49//13 50//13 52//13 51//13
f 51//14 52//14 54//14 53//14
f 53//15 54//15 56//15 55//15
f 55//16 56//16 58//16 57//16
f 57//17 58//17 60//17 59//17
f 61//18 62//18 64//18 63//18
f 63//18 64//18 66//18 65//18
f 65//18 66//18 68//18 67//18
f 67//18 68//18 70//18 69//18
f 69//18 70//18 72//18 71//18
f 73//19 74//19 76//19 75//19
f 75//20 76//20 78//20 77//20
f 77//21 78//21 80//21 79//21
f 79//22 80//22 82//22 81//22
f 81//23 82//23 84//23 83//23
f 85//24 86//24 88//24 87//24
f 87//24 88//24 90//24 89//24
f 89//24 90//24 92//24 91//24
f 91//24 92//24 94//24 93//24
f 93//24 94//24 96//24 95//24
f 97//25 98//25 100//25 99//25
f 99//26 100//26 102//26 101//26
f 101//27 102//27 104//27 103//27
f 103//28 104//28 106//28 105//28
f 105//29 106//29 108//29 107//29
f 109//30 110//30 112//30 111//30
f 111//30 112//30 114//30 113//30
f 113//30 114//30 116//30 115//30
f 115//30 116//30 118//30 117//30
f 117//30 118//30 120//30 119//30
f 121//31 122//31 124//31 123//31
f 123//32 124//32 126//32 125//32
f 125//33 126//33 128//33 127//33
f 127//34 128//34 130//34 129//34
f 129//35 130//35 132//35 131//35
f 133//36 134//36 136//36 135//36
f 135//36 136//36 138//36 137//36
f 137//36 138//36 140//36 139//36
f 139//36 140//36 142//36 141//36
f 141//36 142//36 144//36 143//36
f 145//37 146//37 148//37 147//37
f 147//38 148//38 150//38 149//38
f 149//39 150//39 152//39 151//39
f 151//40 152//40 154//40 153//40
f 153//41 154//41 156//41 155//41
f 157//42 158//42 160//42 159//42
f 159//42 160//42 162//42 161//42
f 161//42 162//42 164//42 163//42
f 163//42 164//42 166//42 165//42
f 165//42 166//42 168//42 167//42
f 169//43 170//43 172//43 171//43
f 171//44 172//44 174//44 173//44
f 173//45 174//45 176//45 175//45
f 175//46 176//46 178//46 177//46
f 177//47 178//47 180//47 179//47
f 181//48 182//48 184//48 183//48
f 183//48 184//48 186//48 185//48
f 185//48 186//48 188//48 187//48
f 187//48 188//48 190//48 189//48
f 189//48 190//48 192//48 191//48
f 193//49 194//49 196//49 195//49
f 195//50 196//50 198//50 197//50
f 197//51 198//51 200//51 199//51
f 199//52 200//52 202//52 201//52
f 201//53 202//53 204//53 203//53
f 205//54 206//54 208//54 207//54
f 207//54 208//54 210//54 209//54
f 209//54 210//54 212//54 211//54
f 211//54 212//54 214//54 213//54
f 213//54 214//54 216//54 215//54
f 217//55 218//55 220//55 219//55
f 219//56 220//56 222//56 221//56
f 221//57 222//57 224//57 223//57
f 223//58 224//58 226//58 225//58
f 225//59 226//59 228//59 227//59
f 229//60 230//60 232//60 231//60
f 231//60 232//60 234//60 233//60
f 233//60 234//60 236//60 235//60
f 235//60 236//60 238//60 237//60
f 237//60 238//60 240//60 239//60
f 241//61 242//61 244//61 243//61
f 243//62 244//62 246//62 245//62
f 245//63 246//63 248//63 247//63
f 247//64 248//64 250//64 249//64
f 249//65 250//65 252//65 251//65
f 253//66 254//66 256//66 255//66
f 255//67 256//67 258//67 257//67
f 257//68 258//68 260//68 259//68
f 259//68 260//68 262//68 261//68
f 261//69 262//69 264//69 263//69
f 265//70 266//70 268//70 267//70
f 267//71 268//71 270//71 269//71
f 269//72 270//72 272//72 271//72
f 271//73 272//73 274//73 273//73
f 273//74 274//74 276//74 275//74
f 277//75 278//75 280//75 279//75
f 279//76 280//76 282//76 281//76
f 281//77 282//77 284//77 283//77
f 283//77 284//77 286//77 285//77
f 285//78 286//78 288//78 287//78
o BuiCo0_Hoa
v 0.001955 0.647300 -0.184325
v 0.026622 0.614997 -0.184325
v -0.010379 0.614997 -0.205469
v -0.010379 0.614997 -0.163181
v 0.001955 0.597377 -0.184325
v 0.031728 0.626744 -0.163817
v 0.024464 0.626744 -0.212615
v 0.091998 0.659047 -0.197729
v 0.032980 0.626744 -0.202885
v -0.014424 0.626744 -0.216555
v 0.027179 0.659047 -0.271796
v -0.006071 0.626744 -0.219575
v -0.033765 0.626744 -0.178746
v -0.073385 0.659047 -0.235426
v -0.034044 0.626744 -0.187663
v -0.003855 0.626744 -0.148642
v -0.070048 0.659047 -0.128620
v -0.011458 0.626744 -0.150752
v 0.034523 0.626744 -0.168631
v 0.034945 0.659047 -0.099477
v -0.178834 0.629665 -0.140921
v -0.158453 0.602976 -0.140921
v -0.189025 0.602976 -0.158391
v -0.189025 0.602976 -0.123452
v -0.178834 0.588418 -0.140921
v -0.157675 0.612681 -0.119838
v -0.156343 0.612681 -0.160578
v -0.103659 0.639370 -0.138465
v -0.154577 0.612681 -0.158351
v -0.194552 0.612681 -0.166322
v -0.164126 0.639370 -0.214685
v -0.188572 0.612681 -0.169159
v -0.207676 0.612681 -0.133152
v -0.245277 0.639370 -0.176173
v -0.207693 0.612681 -0.148628
v -0.188511 0.612681 -0.112662
v -0.245201 0.639370 -0.105526
v -0.188461 0.612681 -0.112645
v -0.151288 0.612681 -0.129370
v -0.147972 0.639370 -0.072329
vn 0.4640 0.3543 -0.8119
vn -0.9342 0.3567 -0.0000
vn 0.4640 0.3543 0.8119
vn 0.4075 -0.5705 -0.7131
vn -0.8192 -0.5735 -0.0000
vn 0.4075 -0.5705 0.7131
vn 0.4423 -0.8944 -0.0658
vn 0.1239 -0.8944 -0.4297
vn -0.3701 -0.8944 -0.2510
vn -0.3537 -0.8944 0.2737
vn 0.1621 -0.8944 0.4168
vn 0.4470 -0.8944 0.0146
vn 0.0875 -0.8944 -0.4386
vn -0.3951 -0.8944 -0.2096
vn -0.3946 -0.8944 0.2104
vn 0.1835 -0.8944 0.4078
s 0
g BuiCo0_Hoa_MatHoa
usemtl MatHoa
f 289//79 290//79 291//79
f 289//80 291//80 292//80
f 289//81 292//81 290//81
f 293//82 291//82 290//82
f 293//83 292//83 291//83
f 293//84 290//84 292//84
f 294//85 295//85 296//85
f 297//86 298//86 299//86
f 300//87 301//87 302//87
f 303//88 304//88 305//88
f 306//89 307//89 308//89
f 309//79 310//79 311//79
f 309//80 311//80 312//80
f 309//81 312//81 310//81
f 313//82 311//82 310//82
f 313//83 312//83 311//83
f 313//84 310//84 312//84
f 314//90 315//90 316//90
f 317//91 318//91 319//91
f 320//92 321//92 322//92
f 323//93 324//93 325//93
f 326//94 327//94 328//94
