# Blender 5.2.0 LTS
# www.blender.org
mtllib BuiCo2.mtl
o BuiCo2_Co
v -0.012889 0.000000 0.022224
v 0.024524 0.000000 0.025255
v -0.009978 0.112332 0.028130
v 0.020701 0.112332 0.030615
v -0.007980 0.224663 0.045301
v 0.015965 0.224663 0.047241
v -0.006894 0.336995 0.073738
v 0.010316 0.336995 0.075132
v -0.006721 0.449327 0.113441
v 0.003755 0.449327 0.114289
v -0.007461 0.561659 0.164409
v -0.003719 0.561659 0.164712
v 0.004575 0.000000 0.039079
v 0.007060 0.000000 0.008400
v 0.004342 0.112332 0.041951
v 0.006380 0.112332 0.016794
v 0.003197 0.224663 0.056088
v 0.004788 0.224663 0.036454
v 0.001139 0.336995 0.081491
v 0.002282 0.336995 0.067379
v -0.001831 0.449327 0.118160
v -0.001135 0.449327 0.109570
v -0.005714 0.561659 0.166094
v -0.005466 0.561659 0.163027
v 0.006289 0.000000 -0.062462
v -0.034888 0.000000 -0.080278
v 0.005272 0.077001 -0.070281
v -0.028493 0.077001 -0.084890
v 0.009634 0.154002 -0.090531
v -0.016719 0.154002 -0.101933
v 0.019374 0.231003 -0.123211
v 0.000432 0.231003 -0.131407
v 0.034492 0.308004 -0.168323
v 0.022962 0.308004 -0.173311
v 0.054988 0.385006 -0.225865
v 0.050871 0.385006 -0.227647
v -0.006995 0.000000 -0.088252
v -0.021604 0.000000 -0.054488
v -0.005621 0.077001 -0.091429
v -0.017600 0.077001 -0.063742
v 0.001132 0.154002 -0.107037
v -0.008218 0.154002 -0.085427
v 0.013263 0.231003 -0.135075
v 0.006543 0.231003 -0.119543
v 0.030772 0.308004 -0.175544
v 0.026682 0.308004 -0.166090
v 0.053660 0.385006 -0.228444
v 0.052199 0.385006 -0.225068
v -0.067028 0.000000 0.008875
v -0.039137 0.000000 0.056419
v -0.070276 0.120824 0.016531
v -0.047405 0.120824 0.055518
v -0.085039 0.241649 0.030943
v -0.067189 0.241649 0.061372
v -0.111317 0.362473 0.052110
v -0.098488 0.362473 0.073981
v -0.149111 0.483298 0.080033
v -0.141302 0.483298 0.093345
v -0.198421 0.604122 0.114710
v -0.195632 0.604122 0.119465
v -0.072576 0.000000 0.044082
v -0.033590 0.000000 0.021212
v -0.074825 0.120824 0.045401
v -0.042856 0.120824 0.026648
v -0.088589 0.241649 0.053476
v -0.063638 0.241649 0.038839
v -0.113869 0.362473 0.068306
v -0.095936 0.362473 0.057785
v -0.150665 0.483298 0.089891
v -0.139749 0.483298 0.083487
v -0.198976 0.604122 0.118231
v -0.195077 0.604122 0.115944
v -0.001401 0.000000 -0.053885
v -0.039928 0.000000 -0.011574
v -0.011994 0.115563 -0.056565
v -0.043585 0.115563 -0.021869
v -0.036836 0.231126 -0.072219
v -0.061493 0.231126 -0.045140
v -0.075928 0.346690 -0.100849
v -0.093650 0.346690 -0.081385
v -0.129270 0.462253 -0.142453
v -0.140057 0.462253 -0.130606
v -0.196861 0.577816 -0.197033
v -0.200714 0.577816 -0.192802
v -0.038012 0.000000 -0.048525
v -0.003317 0.000000 -0.016934
v -0.042015 0.115563 -0.052170
v -0.013564 0.115563 -0.026265
v -0.060267 0.231126 -0.068789
v -0.038062 0.231126 -0.048570
v -0.092769 0.346690 -0.098383
v -0.076809 0.346690 -0.083851
v -0.139521 0.462253 -0.140953
v -0.129806 0.462253 -0.132107
v -0.200522 0.577816 -0.196497
v -0.197053 0.577816 -0.193338
v 0.043712 0.000000 0.012949
v 0.014523 0.000000 -0.017975
v 0.044076 0.107489 0.007343
v 0.020141 0.107489 -0.018015
v 0.050422 0.214979 -0.003910
v 0.031741 0.214979 -0.023702
v 0.062750 0.322468 -0.020810
v 0.049323 0.322468 -0.035035
v 0.081061 0.429957 -0.043355
v 0.072887 0.429957 -0.052014
v 0.105353 0.537447 -0.071548
v 0.102434 0.537447 -0.074640
v 0.041797 0.000000 -0.014481
v 0.016438 0.000000 0.009455
v 0.042505 0.107489 -0.015150
v 0.021712 0.107489 0.004477
v 0.049196 0.214979 -0.021465
v 0.032967 0.214979 -0.006147
v 0.061869 0.322468 -0.033427
v 0.050204 0.322468 -0.022417
v 0.080524 0.429957 -0.051036
v 0.073424 0.429957 -0.044334
v 0.105161 0.537447 -0.074291
v 0.102625 0.537447 -0.071897
v -0.029233 0.000000 0.005116
v 0.019351 0.000000 0.036214
v -0.029329 0.128659 0.014897
v 0.010510 0.128659 0.040397
v -0.038364 0.257318 0.038642
v -0.007270 0.257318 0.058545
v -0.056337 0.385977 0.076351
v -0.033988 0.385977 0.090656
v -0.083249 0.514636 0.128025
v -0.069645 0.514636 0.136732
v -0.119098 0.643295 0.193662
v -0.114240 0.643295 0.196772
v -0.017691 0.000000 0.040584
v 0.007810 0.000000 0.000745
v -0.019865 0.128659 0.043981
v 0.001045 0.128659 0.011313
v -0.030977 0.257318 0.061342
v -0.014657 0.257318 0.035845
v -0.051028 0.385977 0.092667
v -0.039298 0.385977 0.074341
v -0.080017 0.514636 0.137956
v -0.072877 0.514636 0.126801
v -0.117944 0.643295 0.197209
v -0.115394 0.643295 0.193225
v 0.002653 0.000000 0.053145
v 0.060258 0.000000 0.046747
v 0.008989 0.110550 0.062933
v 0.056224 0.110550 0.057687
v 0.017627 0.221099 0.093449
v 0.054493 0.221099 0.089355
v 0.028567 0.331649 0.144694
v 0.055065 0.331649 0.141751
v 0.041809 0.442198 0.216667
v 0.057938 0.442198 0.214875
v 0.057354 0.552748 0.309368
v 0.063114 0.552748 0.308728
v 0.034079 0.000000 0.073563
v 0.028832 0.000000 0.026328
v 0.034758 0.110550 0.079676
v 0.030456 0.110550 0.040943
v 0.037739 0.221099 0.106517
v 0.034381 0.221099 0.076287
v 0.043022 0.331649 0.154087
v 0.040609 0.331649 0.132358
v 0.050608 0.442198 0.222384
v 0.049139 0.442198 0.209158
v 0.060496 0.552748 0.311409
v 0.059972 0.552748 0.306686
v -0.014430 0.000000 -0.044408
v -0.023364 0.000000 0.003641
v -0.019914 0.069591 -0.040954
v -0.027240 0.069591 -0.001554
v -0.034758 0.139182 -0.039240
v -0.040476 0.139182 -0.008489
v -0.058963 0.208773 -0.039267
v -0.063072 0.208773 -0.017164
v -0.092527 0.278364 -0.041034
v -0.095029 0.278364 -0.027580
v -0.135452 0.347955 -0.044542
v -0.136345 0.347955 -0.039737
v -0.038597 0.000000 -0.024047
v 0.000803 0.000000 -0.016721
v -0.039731 0.069591 -0.024258
v -0.007423 0.069591 -0.018250
v -0.050225 0.139182 -0.026209
v -0.025009 0.139182 -0.021520
v -0.070080 0.208773 -0.029901
v -0.051955 0.208773 -0.026531
v -0.099294 0.278364 -0.035333
v -0.088262 0.278364 -0.033282
v -0.137868 0.347955 -0.042506
v -0.133928 0.347955 -0.041773
v -0.032406 0.000000 -0.022992
v -0.054385 0.000000 0.003931
v -0.036708 0.076492 -0.022466
v -0.054731 0.076492 -0.000389
v -0.045657 0.152984 -0.025734
v -0.059724 0.152984 -0.008504
v -0.059254 0.229476 -0.032796
v -0.069364 0.229476 -0.020412
v -0.077498 0.305968 -0.043652
v -0.083652 0.305968 -0.036114
v -0.100389 0.382460 -0.058303
v -0.102587 0.382460 -0.055610
v -0.054434 0.000000 -0.018542
v -0.032358 0.000000 -0.000519
v -0.054771 0.076492 -0.018817
v -0.036668 0.076492 -0.004038
v -0.059755 0.152984 -0.022886
v -0.045626 0.152984 -0.011351
v -0.069387 0.229476 -0.030749
v -0.059231 0.229476 -0.022459
v -0.083665 0.305968 -0.042406
v -0.077484 0.305968 -0.037360
v -0.102592 0.382460 -0.057858
v -0.100384 0.382460 -0.056055
v 0.056106 0.000000 0.015511
v 0.047979 0.000000 -0.027403
v 0.063508 0.082851 0.010108
v 0.056843 0.082851 -0.025081
v 0.087174 0.165702 0.001625
v 0.081973 0.165702 -0.025839
v 0.127106 0.248553 -0.009938
v 0.123368 0.248553 -0.029678
v 0.183303 0.331404 -0.024582
v 0.181028 0.331404 -0.036598
v 0.255766 0.414255 -0.042306
v 0.254953 0.414255 -0.046597
v 0.069637 0.000000 -0.009278
v 0.034448 0.000000 -0.002614
v 0.074603 0.082851 -0.010219
v 0.045748 0.082851 -0.004754
v 0.095834 0.165702 -0.014240
v 0.073313 0.165702 -0.009974
v 0.133330 0.248553 -0.021341
v 0.117143 0.248553 -0.018275
v 0.187092 0.331404 -0.031523
v 0.177239 0.331404 -0.029657
v 0.257119 0.414255 -0.044785
v 0.253600 0.414255 -0.044118
v 0.077536 0.000000 -0.033208
v 0.073870 0.000000 -0.045680
v 0.083296 0.144264 -0.036120
v 0.080290 0.144264 -0.046347
v 0.101236 0.288529 -0.042611
v 0.098891 0.288529 -0.050594
v 0.131357 0.432793 -0.052682
v 0.129671 0.432793 -0.058419
v 0.173658 0.577057 -0.066332
v 0.172632 0.577057 -0.069824
v 0.228139 0.721321 -0.083561
v 0.227773 0.721321 -0.084809
v 0.080981 0.000000 -0.040991
v 0.070425 0.000000 -0.037898
v 0.086121 0.144264 -0.042502
v 0.077465 0.144264 -0.039966
v 0.103442 0.288529 -0.047592
v 0.096686 0.288529 -0.045613
v 0.132942 0.432793 -0.056262
v 0.128086 0.432793 -0.054839
v 0.174623 0.577057 -0.068511
v 0.171667 0.577057 -0.067645
v 0.228484 0.721321 -0.084340
v 0.227428 0.721321 -0.084030
v 0.026898 0.000000 0.030958
v 0.037582 0.000000 0.023551
v 0.031051 0.127283 0.034894
v 0.039811 0.127283 0.028820
v 0.041585 0.254565 0.048034
v 0.048423 0.254565 0.043294
v 0.058502 0.381848 0.070380
v 0.063416 0.381848 0.066973
v 0.081800 0.509130 0.101931
v 0.084791 0.509130 0.099857
v 0.111480 0.636413 0.142686
v 0.112548 0.636413 0.141945
v 0.035370 0.000000 0.031777
v 0.029110 0.000000 0.022732
v 0.037998 0.127283 0.035565
v 0.032864 0.127283 0.028149
v 0.047007 0.254565 0.048559
v 0.043001 0.254565 0.042770
v 0.062399 0.381848 0.070757
v 0.059519 0.381848 0.066596
v 0.084172 0.509130 0.102160
v 0.082419 0.509130 0.099627
v 0.112327 0.636413 0.142768
v 0.111701 0.636413 0.141863
vn -0.0806 -0.0502 0.9955
vn -0.0798 -0.1492 0.9856
vn -0.0783 -0.2439 0.9666
vn -0.0762 -0.3322 0.9401
vn -0.0736 -0.4125 0.9080
vn 0.9967 -0.0000 0.0807
vn 0.3956 -0.0876 -0.9143
vn 0.3839 -0.2551 -0.8874
vn 0.3635 -0.4025 -0.8401
vn 0.3381 -0.5243 -0.7815
vn 0.3114 -0.6206 -0.7196
vn -0.9178 -0.0000 -0.3971
vn -0.8612 -0.0552 0.5052
vn -0.8509 -0.1635 0.4992
vn -0.8314 -0.2663 0.4877
vn -0.8045 -0.3607 0.4719
vn -0.7723 -0.4452 0.4531
vn 0.5060 -0.0000 0.8625
vn -0.7368 -0.0831 -0.6709
vn -0.7173 -0.2427 -0.6531
vn -0.6825 -0.3848 -0.6214
vn -0.6386 -0.5041 -0.5815
vn -0.5914 -0.6002 -0.5385
vn -0.6733 -0.0000 0.7394
vn 0.7267 -0.0382 -0.6859
vn 0.7225 -0.1140 -0.6819
vn 0.7143 -0.1879 -0.6742
vn 0.7024 -0.2587 -0.6630
vn 0.6876 -0.3256 -0.6490
vn -0.6864 -0.0000 -0.7272
vn -0.5380 -0.0643 0.8405
vn -0.5293 -0.1898 0.8269
vn -0.5131 -0.3066 0.8017
vn -0.4914 -0.4111 0.7678
vn -0.4664 -0.5017 0.7286
vn 0.8422 -0.0000 0.5391
vn 0.1099 -0.0939 0.9895
vn 0.1062 -0.2723 0.9563
vn 0.0998 -0.4266 0.8989
vn 0.0921 -0.5510 0.8294
vn 0.0842 -0.6472 0.7577
vn 0.9939 -0.0000 -0.1104
vn -0.9809 -0.0682 -0.1824
vn -0.9631 -0.2010 -0.1791
vn -0.9302 -0.3236 -0.1730
vn -0.8867 -0.4319 -0.1649
vn -0.8372 -0.5243 -0.1557
vn -0.1828 -0.0000 0.9831
vn -0.7740 -0.0392 -0.6319
vn -0.7693 -0.1168 -0.6281
vn -0.7602 -0.1924 -0.6206
vn -0.7470 -0.2647 -0.6098
vn -0.7305 -0.3328 -0.5964
vn -0.6324 -0.0000 0.7746
vn 0.9777 -0.0994 -0.1852
vn 0.9412 -0.2871 -0.1782
vn 0.8790 -0.4469 -0.1665
vn 0.8052 -0.5731 -0.1525
vn 0.7306 -0.6686 -0.1384
vn -0.1861 -0.0000 -0.9825
vn 0.9585 -0.0440 -0.2817
vn 0.9512 -0.1309 -0.2795
vn 0.9370 -0.2149 -0.2754
vn 0.9169 -0.2944 -0.2694
vn 0.8920 -0.3682 -0.2621
vn -0.2812 -0.0000 -0.9597
vn -0.2812 -0.0001 -0.9597
vn -0.2812 -0.0002 -0.9597
vn -0.2812 -0.0003 -0.9597
vn 0.5692 -0.0440 0.8210
vn 0.5649 -0.1309 0.8147
vn 0.5565 -0.2149 0.8026
vn 0.5445 -0.2944 0.7854
vn 0.5297 -0.3682 0.7641
vn 0.8223 -0.0000 -0.5691
vn 0.8223 -0.0001 -0.5691
vn 0.8223 -0.0002 -0.5691
vn 0.8223 -0.0003 -0.5691
s 0
g BuiCo2_Co_MatCo
usemtl MatCo
f 1//1 2//1 4//1 3//1
f 3//2 4//2 6//2 5//2
f 5//3 6//3 8//3 7//3
f 7//4 8//4 10//4 9//4
f 9//5 10//5 12//5 11//5
f 13//6 14//6 16//6 15//6
f 15//6 16//6 18//6 17//6
f 17//6 18//6 20//6 19//6
f 19//6 20//6 22//6 21//6
f 21//6 22//6 24//6 23//6
f 25//7 26//7 28//7 27//7
f 27//8 28//8 30//8 29//8
f 29//9 30//9 32//9 31//9
f 31//10 32//10 34//10 33//10
f 33//11 34//11 36//11 35//11
f 37//12 38//12 40//12 39//12
f 39//12 40//12 42//12 41//12
f 41//12 42//12 44//12 43//12
f 43//12 44//12 46//12 45//12
f 45//12 46//12 48//12 47//12
f 49//13 50//13 52//13 51//13
f 51//14 52//14 54//14 53//14
f 53//15 54//15 56//15 55//15
f 55//16 56//16 58//16 57//16
f 57//17 58//17 60//17 59//17
f 61//18 62//18 64//18 63//18
f 63//18 64//18 66//18 65//18
f 65//18 66//18 68//18 67//18
f 67//18 68//18 70//18 69//18
f 69//18 70//18 72//18 71//18
f 73//19 74//19 76//19 75//19
f 75//20 76//20 78//20 77//20
f 77//21 78//21 80//21 79//21
f 79//22 80//22 82//22 81//22
f 81//23 82//23 84//23 83//23
f 85//24 86//24 88//24 87//24
f 87//24 88//24 90//24 89//24
f 89//24 90//24 92//24 91//24
f 91//24 92//24 94//24 93//24
f 93//24 94//24 96//24 95//24
f 97//25 98//25 100//25 99//25
f 99//26 100//26 102//26 101//26
f 101//27 102//27 104//27 103//27
f 103//28 104//28 106//28 105//28
f 105//29 106//29 108//29 107//29
f 109//30 110//30 112//30 111//30
f 111//30 112//30 114//30 113//30
f 113//30 114//30 116//30 115//30
f 115//30 116//30 118//30 117//30
f 117//30 118//30 120//30 119//30
f 121//31 122//31 124//31 123//31
f 123//32 124//32 126//32 125//32
f 125//33 126//33 128//33 127//33
f 127//34 128//34 130//34 129//34
f 129//35 130//35 132//35 131//35
f 133//36 134//36 136//36 135//36
f 135//36 136//36 138//36 137//36
f 137//36 138//36 140//36 139//36
f 139//36 140//36 142//36 141//36
f 141//36 142//36 144//36 143//36
f 145//37 146//37 148//37 147//37
f 147//38 148//38 150//38 149//38
f 149//39 150//39 152//39 151//39
f 151//40 152//40 154//40 153//40
f 153//41 154//41 156//41 155//41
f 157//42 158//42 160//42 159//42
f 159//42 160//42 162//42 161//42
f 161//42 162//42 164//42 163//42
f 163//42 164//42 166//42 165//42
f 165//42 166//42 168//42 167//42
f 169//43 170//43 172//43 171//43
f 171//44 172//44 174//44 173//44
f 173//45 174//45 176//45 175//45
f 175//46 176//46 178//46 177//46
f 177//47 178//47 180//47 179//47
f 181//48 182//48 184//48 183//48
f 183//48 184//48 186//48 185//48
f 185//48 186//48 188//48 187//48
f 187//48 188//48 190//48 189//48
f 189//48 190//48 192//48 191//48
f 193//49 194//49 196//49 195//49
f 195//50 196//50 198//50 197//50
f 197//51 198//51 200//51 199//51
f 199//52 200//52 202//52 201//52
f 201//53 202//53 204//53 203//53
f 205//54 206//54 208//54 207//54
f 207//54 208//54 210//54 209//54
f 209//54 210//54 212//54 211//54
f 211//54 212//54 214//54 213//54
f 213//54 214//54 216//54 215//54
f 217//55 218//55 220//55 219//55
f 219//56 220//56 222//56 221//56
f 221//57 222//57 224//57 223//57
f 223//58 224//58 226//58 225//58
f 225//59 226//59 228//59 227//59
f 229//60 230//60 232//60 231//60
f 231//60 232//60 234//60 233//60
f 233//60 234//60 236//60 235//60
f 235//60 236//60 238//60 237//60
f 237//60 238//60 240//60 239//60
f 241//61 242//61 244//61 243//61
f 243//62 244//62 246//62 245//62
f 245//63 246//63 248//63 247//63
f 247//64 248//64 250//64 249//64
f 249//65 250//65 252//65 251//65
f 253//66 254//66 256//66 255//66
f 255//67 256//67 258//67 257//67
f 257//68 258//68 260//68 259//68
f 259//68 260//68 262//68 261//68
f 261//69 262//69 264//69 263//69
f 265//70 266//70 268//70 267//70
f 267//71 268//71 270//71 269//71
f 269//72 270//72 272//72 271//72
f 271//73 272//73 274//73 273//73
f 273//74 274//74 276//74 275//74
f 277//75 278//75 280//75 279//75
f 279//76 280//76 282//76 281//76
f 281//77 282//77 284//77 283//77
f 283//77 284//77 286//77 285//77
f 285//78 286//78 288//78 287//78
o BuiCo2_Hoa
v 0.227956 0.755275 -0.084185
v 0.253884 0.721321 -0.084185
v 0.214992 0.721321 -0.106409
v 0.214992 0.721321 -0.061961
v 0.227956 0.702801 -0.084185
v 0.254986 0.733668 -0.057476
v 0.256464 0.733668 -0.109311
v 0.323604 0.767622 -0.081457
v 0.262947 0.733668 -0.099004
v 0.215582 0.733668 -0.120114
v 0.266909 0.767622 -0.171585
v 0.215832 0.733668 -0.120199
v 0.191193 0.733668 -0.074570
v 0.143761 0.767622 -0.129651
v 0.190546 0.733668 -0.090853
v 0.218727 0.733668 -0.047323
v 0.147632 0.767622 -0.032185
v 0.215702 0.733668 -0.048215
v 0.262996 0.733668 -0.069482
v 0.267198 0.767622 0.003085
v 0.112014 0.662014 0.142316
v 0.131564 0.636413 0.142316
v 0.102239 0.636413 0.125559
v 0.102239 0.636413 0.159073
v 0.112014 0.622449 0.142316
v 0.129814 0.645722 0.164769
v 0.135640 0.645722 0.126105
v 0.183357 0.671323 0.153066
v 0.136350 0.645722 0.127192
v 0.098603 0.645722 0.116996
v 0.130829 0.671323 0.072664
v 0.102869 0.645722 0.115162
v 0.084295 0.645722 0.149569
v 0.048525 0.671323 0.108044
v 0.083503 0.645722 0.139482
v 0.107224 0.645722 0.170565
v 0.054660 0.671323 0.186087
v 0.098351 0.645722 0.167500
v 0.136198 0.645722 0.157681
v 0.130133 0.671323 0.212152
vn 0.4640 0.3543 -0.8119
vn -0.9342 0.3567 -0.0000
vn 0.4640 0.3543 0.8119
vn 0.4075 -0.5705 -0.7131
vn -0.8192 -0.5735 -0.0000
vn 0.4075 -0.5705 0.7131
vn 0.4470 -0.8944 0.0127
vn 0.1821 -0.8944 -0.4085
vn -0.3935 -0.8944 -0.2125
vn -0.3754 -0.8944 0.2430
vn 0.1834 -0.8944 0.4079
vn 0.4422 -0.8944 0.0666
vn 0.1166 -0.8944 -0.4317
vn -0.3935 -0.8944 -0.2124
vn -0.3555 -0.8944 0.2713
vn 0.1123 -0.8944 0.4329
s 0
g BuiCo2_Hoa_MatHoa
usemtl MatHoa
f 289//79 290//79 291//79
f 289//80 291//80 292//80
f 289//81 292//81 290//81
f 293//82 291//82 290//82
f 293//83 292//83 291//83
f 293//84 290//84 292//84
f 294//85 295//85 296//85
f 297//86 298//86 299//86
f 300//87 301//87 302//87
f 303//88 304//88 305//88
f 306//89 307//89 308//89
f 309//79 310//79 311//79
f 309//80 311//80 312//80
f 309//81 312//81 310//81
f 313//82 311//82 310//82
f 313//83 312//83 311//83
f 313//84 310//84 312//84
f 314//90 315//90 316//90
f 317//91 318//91 319//91
f 320//92 321//92 322//92
f 323//93 324//93 325//93
f 326//94 327//94 328//94
