# Blender 5.2.0 LTS
# www.blender.org
o CumGai2
v -0.258186 0.095045 -0.053430
v -0.199341 0.082052 -0.007040
v -0.286034 0.085862 -0.156814
v -0.223877 0.003853 -0.399756
v -0.136749 0.046215 0.054442
v -0.079913 0.018134 -0.365457
v -0.279809 0.015292 0.085521
v -0.038296 0.084581 -0.038492
v -0.029784 0.076871 -0.035359
v 0.024626 0.081734 -0.149586
v -0.179112 0.087455 -0.257774
v 0.079574 0.027542 -0.066064
v -0.121316 0.090163 -0.035635
v -0.041046 0.072380 -0.291958
v -0.272909 0.006913 -0.294026
v -0.119494 0.107223 -0.096201
v -0.063711 0.053569 0.097768
v 0.090297 0.117032 -0.227736
v 0.122268 0.084937 -0.247445
v 0.150394 0.129534 -0.167874
v 0.080444 0.031485 0.136646
v -0.131512 0.087255 -0.228141
v 0.352024 0.042101 -0.074071
v 0.087435 0.113509 0.011360
v 0.090660 0.013455 -0.033118
v 0.051205 0.090867 -0.212909
v -0.134429 0.092917 -0.296648
v 0.164185 0.013780 -0.116604
v -0.154632 0.051168 -0.048417
v -0.222317 0.049653 -0.112981
v -0.094364 0.008080 -0.432755
v -0.082376 0.093555 -0.125084
v 0.186690 0.019321 -0.321765
v 0.098859 0.078522 0.039836
v 0.334301 0.030938 0.166706
v 0.325275 0.027737 -0.018357
v 0.247499 0.002700 -0.127708
v 0.082406 0.050302 0.280488
v 0.362055 0.003754 0.192653
v 0.194493 0.029548 0.325358
v 0.363111 0.014385 0.149144
v 0.278244 0.077082 0.088949
v -0.031400 0.016618 0.114042
v 0.086055 0.011862 0.276319
v 0.278857 0.066553 0.051274
v -0.011110 0.061023 0.213649
v -0.033970 0.040854 0.351359
v -0.400314 0.011863 0.225719
v -0.327329 0.004814 0.325850
v -0.178155 0.113802 0.104910
v -0.049501 0.041626 0.305984
v -0.217779 0.050370 0.059459
v -0.167904 0.123991 0.309976
v -0.183729 0.091424 0.040822
v -0.050979 0.054867 0.353590
v -0.156207 0.079477 0.338598
v 0.048146 0.051739 -0.016688
v -0.049393 0.134250 0.217538
v 0.028510 0.114800 0.064792
v -0.102320 0.050586 -0.073330
v 0.089397 0.071985 0.096875
v -0.117837 0.021728 0.363612
v -0.015056 0.061192 -0.056182
v -0.286583 0.018209 0.137965
v -0.175934 0.111564 0.145891
v -0.161361 0.113283 0.108365
v 0.006900 0.068772 0.246365
v -0.254471 0.050219 0.090931
v -0.182353 0.029849 -0.043032
v -0.238872 0.054674 0.109872
v -0.079220 0.086529 -0.076185
v -0.302135 0.005562 -0.077121
v -0.090825 0.084213 0.179701
v -0.123352 0.091991 0.063918
v -0.077465 0.053166 0.226176
v -0.282052 0.029552 -0.000467
v -0.191086 0.008641 0.279339
v 0.000666 0.095660 0.175254
v -0.268685 0.042578 -0.204548
v -0.020411 0.035955 0.095008
v 0.221907 0.004825 -0.085770
v 0.066196 0.062556 0.030100
v 0.062163 0.008700 -0.338118
v -0.168239 0.061558 0.068922
v 0.042175 0.068455 -0.147640
v -0.324357 0.014598 0.004580
v -0.047020 0.000998 -0.411356
v -0.224442 0.083821 -0.237336
v -0.284672 0.073759 -0.021833
v -0.147622 0.017164 0.180029
v -0.243267 0.704047 -0.065336
v -0.050162 0.466740 -0.149350
v -0.233480 0.874913 -0.135391
v -0.233574 0.931453 -0.120881
v 0.042280 0.170045 -0.152753
v -0.141517 0.711658 -0.154271
v -0.143689 0.616865 -0.165431
v 0.038728 0.292045 0.017489
v -0.074794 0.625224 -0.025693
v -0.202414 0.395104 -0.054779
v -0.203940 0.116343 0.051292
v -0.112629 0.726134 -0.106559
v 0.338419 0.009554 -0.053370
v 0.267836 0.481648 0.006088
v 0.140126 0.284164 -0.044138
v 0.013847 0.083264 0.062359
v 0.160929 0.329358 0.076547
v 0.090747 0.150776 -0.083168
v 0.213196 0.287745 0.137475
v 0.285161 0.383292 -0.024010
v -0.012466 0.121336 0.000258
v 0.330036 0.286147 0.042467
v 0.246393 0.387658 -0.055283
v 0.183247 0.001319 -0.130598
v 0.154715 0.510531 -0.183376
v 0.190126 0.732814 -0.174273
v 0.036485 0.356429 -0.173474
v 0.141379 0.358090 0.021604
v 0.113435 0.453698 -0.038192
v -0.100591 0.069731 0.049935
v 0.219673 0.721318 -0.163165
v 0.108798 0.588613 -0.156309
v 0.075900 0.526577 -0.136384
v 0.119814 0.148182 0.037032
v 0.226246 0.684999 -0.133870
v -0.056557 0.012098 -0.184555
v -0.260028 0.260330 0.069590
v -0.279169 0.743217 0.198266
v -0.238972 0.178782 0.037606
v -0.263894 0.882677 0.197301
v -0.101157 0.129041 0.013553
v -0.243687 0.374664 0.164141
v -0.247052 0.743372 0.214297
v -0.226556 0.154208 0.041901
v -0.280486 0.129571 0.084130
v -0.234006 0.322375 0.045011
v -0.179635 0.185743 0.184124
v -0.187679 0.412004 0.063719
v -0.022588 0.027350 0.135010
v -0.281407 0.295504 -0.162502
v -0.357682 0.038188 -0.263083
v -0.436024 0.090851 -0.142317
v -0.197699 0.136404 -0.227922
v -0.389784 0.132227 -0.249749
v -0.377749 0.283259 -0.183021
v -0.341470 0.202887 -0.261816
v -0.288784 0.325176 -0.216399
v -0.260367 0.111015 -0.049405
v -0.382496 0.259709 -0.231496
v -0.295005 0.057574 -0.008258
v 0.325292 0.056253 -0.096687
v 0.319408 0.309053 -0.150204
v 0.246856 0.326043 -0.187615
v 0.275117 0.262653 -0.055894
v 0.268013 0.284515 -0.066402
v 0.271797 0.339603 -0.195038
v 0.100448 0.176269 -0.140531
v 0.210258 0.333038 -0.157218
v 0.323243 0.239203 -0.140854
v 0.300645 0.397806 -0.135496
v 0.158577 0.193393 0.301596
v 0.134666 0.261214 0.302091
v 0.242407 0.023021 0.066516
v -0.068394 0.068111 0.220642
v -0.034304 0.025977 0.182734
v 0.060507 0.189174 0.151739
v 0.145244 0.347822 0.221976
v 0.023534 0.199396 0.191210
v -0.043615 0.039566 0.190747
v 0.136259 0.290393 0.187285
v 0.156005 0.097534 0.083538
v 0.218697 0.150030 0.165334
v 0.177652 0.257697 0.220201
v 0.201950 0.229101 0.098162
v 0.058084 0.152626 0.139688
v 0.111691 0.246983 0.070082
v 0.165384 0.198963 0.042145
v 0.145392 0.237399 0.165201
v 0.126624 0.188884 0.172452
v 0.160102 0.226701 0.148806
v 0.025155 0.055619 0.174930
v 0.170894 0.288064 0.154190
v 0.138032 0.288797 0.094251
v 0.231576 0.494118 0.054109
v 0.289569 0.474816 -0.015520
v 0.281010 0.019848 -0.099021
v 0.224731 0.468254 -0.022901
v 0.249426 0.068590 0.086018
v 0.141642 0.241426 -0.027828
v 0.239869 0.503656 -0.001689
v 0.273555 0.547838 0.002846
v 0.146605 0.250116 0.093968
v 0.248547 0.284147 0.080647
v 0.175654 0.035173 0.157965
v 0.082541 0.105649 -0.004256
v 0.139431 0.122599 -0.112014
v 0.333532 1.022222 -0.331633
v 0.337838 0.777803 -0.327881
v 0.347862 0.994757 -0.331624
v 0.344625 0.917718 -0.335490
v 0.335623 0.889548 -0.343695
v 0.177160 0.469735 -0.296073
v 0.319556 0.582938 -0.329444
v 0.290433 0.840926 -0.346134
v 0.108046 0.199953 -0.146892
v 0.060802 0.161114 -0.204746
v 0.274874 0.274579 -0.124243
v 0.264456 0.813222 -0.311444
v 0.350444 0.570849 -0.262099
v 0.262047 0.155788 -0.167424
v 0.343490 0.188311 -0.155585
v 0.280875 0.296963 0.002194
v 0.350138 0.020668 -0.018271
v 0.345978 0.163905 -0.010816
v 0.350706 0.626743 -0.096026
v 0.347181 0.446402 -0.043424
v 0.227210 0.353433 -0.026190
v 0.235105 0.477981 -0.142273
v 0.314704 0.131114 0.005495
v 0.264462 0.596636 -0.060636
v 0.359424 0.000402 -0.068870
v 0.120344 0.115166 -0.389444
v 0.178403 0.254158 -0.224332
v 0.153910 0.293432 -0.256267
v 0.195391 0.149309 -0.137403
v 0.134659 0.273350 -0.335209
v 0.190855 0.115743 -0.104630
v 0.266484 0.096751 -0.261812
v 0.228938 0.175482 -0.211090
v 0.238126 0.195999 -0.308631
v 0.229004 0.151231 -0.326593
v 0.114968 0.208175 -0.340732
v -0.053876 0.827740 -0.080429
v 0.016243 0.581719 -0.064867
v 0.010896 0.342932 0.033350
v -0.096925 0.308034 -0.114219
v -0.080260 0.429166 0.018153
v -0.029088 0.689018 -0.126828
v -0.115295 0.111150 -0.014288
v -0.113785 0.032497 0.040548
v -0.033850 0.829012 -0.101416
v 0.005142 0.160320 -0.120333
v -0.061328 0.074223 -0.135059
v -0.097749 0.543145 -0.063601
v -0.118717 0.207012 -0.052893
v -0.040209 0.730525 -0.124740
v 0.006523 0.194327 0.197823
v -0.382972 0.903539 0.092520
v -0.234672 0.374742 -0.081919
v -0.281532 0.243286 0.188303
v -0.285850 0.706365 0.136195
v -0.385939 0.988267 0.080324
v -0.033117 0.363559 -0.025410
v -0.380622 0.947954 0.092969
v -0.204139 0.701071 0.069014
v -0.262321 0.265160 -0.085347
v -0.088252 0.364409 -0.057440
v 0.128781 0.089292 0.000387
v -0.245830 0.741904 0.022720
v 0.080371 0.430025 0.268658
v -0.017148 0.570628 0.240246
v 0.118875 0.288835 0.234972
v -0.042490 0.662623 0.325163
v 0.130797 0.088208 0.192093
v -0.023718 0.039194 0.317845
v 0.056580 0.453292 0.303326
v -0.081854 0.212015 0.254656
v 0.032316 0.098199 0.330274
v -0.058945 0.486465 0.240455
v -0.050476 0.603745 0.288222
v -0.060925 0.573041 0.275269
v 0.101262 0.216900 0.210478
v 0.052234 0.089682 0.132099
v 0.273673 0.483409 0.191195
v 0.137688 0.157124 0.089360
v 0.208083 0.776467 0.332708
v 0.313253 0.986724 0.346748
v 0.189007 0.681621 0.290607
v 0.161951 0.369543 0.162520
v 0.313241 1.071242 0.398958
v 0.296883 1.056017 0.359247
v 0.287810 0.265697 0.213040
v 0.060996 0.278210 -0.379214
v 0.054142 0.361544 -0.260243
v 0.020744 0.282987 -0.313590
v 0.162757 0.357570 -0.340401
v 0.109245 0.135563 -0.133381
v 0.153977 0.272006 -0.375717
v 0.043125 0.294296 -0.202530
v 0.091885 0.312761 -0.213747
v 0.075664 0.155223 -0.110950
v 0.026101 0.232898 -0.400675
v 0.212836 0.229893 -0.241542
vn -0.3723 0.8463 -0.3809
vn -0.9085 -0.4068 -0.0951
vn -0.8287 0.5313 0.1760
vn -0.0783 0.9947 -0.0673
vn 0.0385 0.9990 -0.0222
vn 0.0400 0.9989 -0.0226
vn 0.0827 0.9912 -0.1033
vn -0.0294 0.8654 -0.5003
vn 0.0688 0.7849 -0.6157
vn 0.1044 -0.9942 -0.0244
vn 0.0462 -0.9985 0.0289
vn -0.0611 0.8340 0.5484
vn -0.1785 0.8651 0.4688
vn 0.2925 -0.7143 0.6358
vn -0.0009 0.9627 0.2707
vn 0.0675 0.9976 0.0127
vn 0.0712 0.8916 0.4472
vn 0.0753 0.8910 0.4476
vn 0.8752 0.2408 -0.4195
vn 0.4680 0.8496 0.2433
vn 0.8825 0.0049 -0.4703
vn 0.4687 0.7234 0.5070
vn 0.4445 0.5409 0.7141
vn 0.3600 0.6639 0.6555
vn -0.7908 0.4924 0.3636
vn -0.4592 0.8836 -0.0919
vn -0.0964 0.7271 -0.6798
vn -0.0024 0.5215 -0.8532
vn 0.2241 -0.8346 -0.5032
vn 0.0509 -0.9986 0.0152
vn -0.2062 -0.9526 0.2236
vn -0.0193 0.8370 0.5469
vn -0.1906 0.9307 0.3122
vn -0.0647 0.9957 0.0663
vn -0.1079 0.9893 -0.0983
vn -0.1316 0.9818 -0.1366
vn 0.3967 0.7338 -0.5515
vn 0.5342 0.6428 -0.5491
vn 0.3133 0.9298 0.1932
vn 0.3753 0.7658 0.5223
vn -0.9020 0.1934 -0.3861
vn 0.1585 0.8582 -0.4883
vn 0.0485 -0.9986 -0.0216
vn 0.0129 -0.9999 0.0075
vn -0.1335 -0.9882 0.0751
vn -0.2685 0.9276 0.2598
vn -0.2916 0.9528 0.0849
vn -0.1608 -0.9683 0.1913
vn 0.0147 0.9999 -0.0082
vn 0.1791 0.9096 -0.3749
vn 0.5147 0.8537 0.0795
vn 0.3442 0.8874 0.3066
vn 0.2410 0.9095 0.3387
vn 0.0936 0.8313 0.5479
vn -0.5895 0.3978 -0.7030
vn -0.0462 -0.9989 0.0042
vn -0.8041 -0.1390 0.5780
vn -0.3898 0.9173 0.0809
vn -0.0235 0.9931 0.1148
vn 0.0808 0.9603 -0.2671
vn 0.0842 0.9338 -0.3479
vn 0.2162 0.9070 -0.3615
vn 0.5285 -0.8282 -0.1863
vn -0.0256 -0.9996 0.0124
vn 0.0463 -0.9680 0.2467
vn -0.3898 -0.1358 0.9108
vn 0.0889 0.9699 0.2265
vn 0.6285 0.7737 -0.0803
vn 0.3812 0.8919 -0.2431
vn 0.3274 0.8972 0.2964
vn 0.5423 0.8337 0.1038
vn 0.5400 -0.8205 -0.1874
vn 0.5791 0.7886 0.2067
vn 0.4331 0.8132 0.3888
vn -0.6802 0.2516 -0.6885
vn -0.5107 0.8245 -0.2435
vn 0.4716 0.8190 -0.3270
vn 0.4719 -0.6578 -0.5870
vn 0.0871 -0.9873 -0.1330
vn 0.1554 -0.9778 -0.1408
vn 0.1221 -0.9854 -0.1183
vn -0.5138 0.7442 0.4269
vn -0.4275 0.9037 -0.0235
vn 0.3380 0.9390 -0.0636
vn 0.4545 0.8748 0.1680
vn 0.6377 0.7399 0.2142
vn 0.2455 -0.9642 -0.1005
vn -0.1173 0.1002 0.9880
vn -0.2678 0.4703 0.8409
vn 0.1269 -0.9901 -0.0603
vn -0.0571 -0.2241 0.9729
vn 0.0071 0.5421 0.8403
vn -0.5981 0.6719 0.4368
vn -0.6462 0.7594 0.0757
vn -0.8610 0.1493 -0.4862
vn 0.0602 -0.9977 -0.0295
vn 0.3913 0.6312 0.6696
vn -0.3931 0.8082 0.4384
vn 0.0985 -0.9945 -0.0355
vn 0.3057 -0.9504 0.0584
vn 0.5687 -0.7669 0.2974
vn -0.1659 0.9860 -0.0192
vn -0.5310 0.8305 -0.1682
vn -0.4708 0.7987 -0.3749
vn -0.3707 0.8342 -0.4083
vn 0.1252 -0.9413 -0.3135
vn 0.6237 0.6943 0.3591
vn 0.5128 0.8446 0.1540
vn -0.0416 0.9882 -0.1471
vn 0.2034 -0.8273 -0.5236
vn 0.4203 0.7638 -0.4898
vn 0.6558 0.6653 -0.3568
vn -0.0878 0.9325 -0.3503
vn -0.0341 0.9182 -0.3946
vn -0.3337 0.9210 -0.2008
vn 0.3399 -0.9346 -0.1051
vn 0.3252 -0.9411 -0.0932
vn -0.9431 -0.1535 0.2951
vn -0.3146 0.9395 -0.1357
vn -0.9267 0.2029 0.3164
vn -0.3358 0.9383 -0.0822
vn 0.4233 -0.9003 -0.1018
vn 0.0042 0.9993 -0.0376
vn -0.0039 0.7707 0.6372
vn -0.0770 0.8302 0.5521
vn -0.3333 0.8819 0.3335
vn -0.2551 0.9573 0.1360
vn -0.1188 0.9879 0.0997
vn -0.5571 0.6202 0.5522
vn -0.8513 0.4997 -0.1598
vn -0.3744 -0.9008 -0.2202
vn -0.0140 -0.9996 0.0233
vn -0.0133 -0.9995 0.0280
vn -0.2156 0.8923 0.3966
vn 0.5642 -0.2236 0.7948
vn 0.4674 0.4009 0.7879
vn 0.0559 0.9307 0.3615
vn 0.0148 0.9933 0.1146
vn 0.0240 0.9983 0.0533
vn -0.7378 0.6517 -0.1758
vn -0.6639 0.1263 -0.7370
vn 0.1391 0.9417 -0.3064
vn 0.1384 -0.9850 -0.1027
vn 0.3957 0.8873 -0.2368
vn 0.3381 0.9410 -0.0145
vn 0.5985 0.0063 0.8011
vn 0.0486 0.9985 0.0266
vn 0.1494 0.9478 -0.2817
vn 0.5544 -0.6710 0.4924
vn -0.5728 -0.2888 -0.7672
vn -0.5502 -0.2516 -0.7962
vn 0.3140 0.1039 -0.9437
vn 0.4517 0.1508 -0.8793
vn 0.8728 0.2765 -0.4023
vn 0.9437 0.2778 -0.1794
vn 0.9474 0.3165 -0.0483
vn 0.0361 0.1405 0.9894
vn -0.1430 0.1834 0.9726
vn -0.9208 -0.1343 -0.3661
vn -0.8851 -0.1323 -0.4463
vn -0.6992 -0.1622 -0.6963
vn 0.0035 0.1168 -0.9931
vn 0.2362 0.2419 -0.9411
vn 0.7300 0.3909 -0.5606
vn 0.7811 0.2802 -0.5580
vn 0.8284 0.5049 0.2425
vn -0.1144 0.2403 0.9639
vn -0.9959 0.0209 -0.0880
vn 0.6100 -0.2429 0.7543
vn 0.1895 -0.4960 0.8474
vn -0.3331 -0.8602 -0.3862
vn -0.3201 -0.6968 -0.6419
vn 0.1351 0.0279 -0.9904
vn 0.6309 0.1497 -0.7613
vn 0.9106 0.1597 -0.3813
vn 0.9312 0.2463 -0.2687
vn 0.5990 0.3266 0.7311
vn -0.3675 0.5904 0.7185
vn -0.6017 0.3174 0.7329
vn -0.7276 0.4028 0.5553
vn -0.7211 0.5674 -0.3975
vn -0.6393 0.4243 -0.6412
vn -0.7841 0.6080 0.1244
vn -0.4760 0.4047 -0.7808
vn 0.6153 0.3278 -0.7170
vn -0.5835 0.5331 -0.6126
vn -0.0523 0.6212 0.7819
vn -0.2871 0.4824 0.8276
vn -0.2318 0.4662 0.8538
vn 0.9212 -0.0561 0.3849
vn 0.9549 -0.0614 -0.2904
vn 0.4795 -0.0638 -0.8752
vn 0.3461 -0.0167 -0.9380
vn -0.1440 0.0634 -0.9875
vn -0.2401 0.0960 -0.9660
vn -0.5994 0.2431 -0.7626
vn -0.8537 0.4997 0.1462
vn -0.7007 0.4843 0.5238
vn -0.5919 0.4788 0.6484
vn -0.3861 0.4054 0.8286
vn 0.0335 0.0698 0.9970
vn 0.9134 -0.0643 0.4020
vn 0.2781 -0.6679 0.6904
vn -0.0934 -0.9708 0.2211
vn 0.2149 -0.0888 -0.9726
vn -0.9353 0.2604 -0.2396
vn -0.9355 0.2671 -0.2312
vn -0.8359 0.2946 -0.4631
vn -0.2154 -0.8128 -0.5412
vn 0.8958 0.2780 -0.3467
vn 0.7594 0.1685 0.6284
vn 0.2820 -0.0178 0.9592
vn -0.3756 -0.5932 0.7121
vn -0.2893 -0.6187 -0.7304
vn -0.6553 -0.1437 0.7416
vn -0.6823 -0.1323 0.7190
vn -0.8841 0.0873 -0.4590
vn -0.7709 0.0500 -0.6350
vn -0.4602 -0.3733 -0.8055
vn -0.2666 -0.2951 -0.9175
vn -0.1520 0.0561 -0.9868
vn 0.0375 0.1856 -0.9819
vn 0.5661 0.3086 -0.7644
vn -0.1063 0.2555 -0.9609
vn -0.8110 0.1128 -0.5740
vn -0.8741 0.0924 -0.4769
vn -0.4461 0.0550 0.8933
vn -0.4439 -0.1018 0.8903
vn -0.6272 -0.1315 0.7676
vn -0.7570 0.0597 -0.6507
vn -0.3685 -0.9157 0.1603
vn 0.5326 -0.8437 -0.0668
vn 0.8893 -0.3774 0.2585
vn 0.1711 0.5290 0.8312
vn -0.2405 0.5376 0.8082
vn -0.6061 0.3361 0.7209
vn -0.8592 -0.2284 -0.4578
vn -0.9587 0.2813 -0.0428
vn -0.9275 0.1044 -0.3590
vn -0.2915 0.0360 -0.9559
vn 0.2231 -0.0145 -0.9747
vn 0.3147 0.2084 -0.9261
vn 0.8976 0.4263 0.1118
vn 0.8798 0.3173 0.3540
vn -0.2123 0.8435 0.4934
vn -0.5019 0.7963 -0.3377
vn -0.4428 0.1518 -0.8837
vn -0.1281 0.3933 -0.9104
vn 0.0102 -0.3262 -0.9453
vn 0.5013 -0.1977 -0.8424
vn 0.9217 0.1007 0.3745
vn 0.8891 0.1145 0.4432
vn 0.8705 0.1171 0.4780
vn -0.3154 -0.2572 0.9134
vn -0.5691 0.3179 -0.7583
vn -0.2608 -0.0482 -0.9642
vn -0.5141 0.2301 0.8263
vn -0.5965 0.4858 0.6389
vn 0.7451 0.2593 -0.6145
vn 0.6623 -0.0636 -0.7466
vn -0.4887 0.5122 -0.7063
vn -0.4056 0.7441 -0.5308
vn -0.5441 0.5455 0.6375
vn 0.1817 0.4733 0.8619
vn -0.3786 -0.2344 -0.8954
vn 0.2454 0.4773 -0.8438
vn 0.8542 0.4091 -0.3209
vn 0.8768 -0.1825 0.4449
vn 0.2548 -0.7375 0.6254
vn -0.8569 -0.3852 -0.3425
vn -0.5191 0.1415 -0.8430
vn -0.4950 0.1242 -0.8600
vn 0.0745 -0.6330 0.7706
vn -0.1915 0.4497 -0.8724
vn 0.2172 0.4796 -0.8502
vn 0.8506 0.2973 0.4337
vn 0.9405 0.3374 0.0415
vn -0.3343 0.5251 -0.7826
vn -0.5254 0.5630 -0.6379
vn -0.7765 0.5921 0.2156
vn -0.6977 0.5306 0.4814
vn 0.9203 0.1718 0.3514
vn 0.8507 0.2968 0.4338
vn -0.2815 -0.1062 0.9537
vn -0.6549 0.3035 -0.6921
vn -0.6229 0.2393 -0.7448
vn 0.6510 0.6742 -0.3487
vn 0.7614 -0.1883 0.6203
vn 0.7458 -0.2833 0.6029
vn 0.7194 -0.5396 0.4373
vn 0.6863 -0.7250 -0.0579
vn 0.5427 0.5389 -0.6442
vn -0.0019 0.5013 -0.8653
vn -0.8557 0.5158 0.0402
vn -0.7238 0.5596 0.4037
vn -0.6254 0.4529 0.6354
vn 0.5022 -0.0654 0.8623
vn 0.6969 -0.1834 0.6933
vn -0.3186 0.2595 0.9117
vn -0.6208 0.4452 0.6453
vn -0.8491 0.0998 -0.5186
vn -0.5747 -0.1778 -0.7988
vn -0.4450 -0.8861 -0.1296
vn 0.6191 -0.7269 0.2972
vn 0.6932 0.0208 0.7204
vn 0.4373 0.1475 0.8871
vn -0.2598 0.2431 0.9345
vn -0.8600 0.0353 0.5090
vn -0.8613 0.3043 -0.4069
vn -0.5164 -0.7612 -0.3924
vn -0.9336 0.3424 0.1054
vn -0.9309 0.3630 -0.0392
vn -0.8893 0.3326 -0.3140
vn 0.2134 0.1725 -0.9616
vn 0.9821 -0.0517 0.1813
vn 0.9093 0.0141 0.4158
vn 0.8652 0.0647 0.4973
vn 0.6852 0.1456 0.7137
vn -0.7944 0.6072 -0.0143
vn -0.9038 0.4236 -0.0619
vn -0.8456 0.3190 -0.4281
vn 0.0873 0.2284 -0.9696
vn -0.6826 0.5677 -0.4603
vn 0.0832 0.2602 -0.9620
vn 0.7996 -0.4087 -0.4401
vn 0.9004 -0.0810 -0.4275
vn 0.9215 -0.0655 -0.3827
vn 0.9753 -0.0300 -0.2190
vn 0.7509 0.1113 0.6509
vn 0.3542 -0.8842 0.3043
vn 0.5285 -0.5221 -0.6695
vn 0.4094 0.2139 0.8869
vn -0.2499 0.2770 0.9278
vn 0.0012 -0.2842 -0.9588
vn -0.1650 -0.0822 -0.9829
vn 0.1094 -0.0519 -0.9926
vn 0.7824 -0.0698 -0.6188
vn 0.8072 -0.0710 -0.5860
vn 0.6558 0.0103 -0.7549
vn 0.1767 0.0919 -0.9800
vn -0.8275 0.3291 0.4548
vn -0.8793 0.2042 -0.4302
vn -0.9125 0.3255 0.2478
vn -0.0429 0.0898 -0.9950
vn -0.8593 0.2404 -0.4515
vn -0.8535 0.1953 -0.4832
vn 0.4878 -0.0312 0.8724
vn 0.3795 0.0957 0.9202
vn -0.5407 -0.0937 0.8360
vn -0.9159 -0.3274 0.2322
vn -0.9115 -0.3417 0.2288
vn -0.8594 -0.5092 0.0462
vn 0.9846 0.0171 0.1738
vn 0.9806 0.0183 0.1950
vn 0.3944 0.1037 0.9131
vn 0.1841 0.2113 0.9599
vn -0.3059 0.1793 0.9350
vn -0.9798 0.1659 0.1113
vn -0.9871 -0.0713 -0.1437
vn 0.2807 -0.3824 -0.8803
vn 0.1094 0.0865 -0.9902
vn 0.9859 0.0065 -0.1671
vn 0.9909 0.0196 0.1335
vn 0.2862 0.2631 0.9213
vn -0.4743 0.5756 -0.6661
vn 0.2224 0.1276 -0.9666
vn 0.0727 0.6561 0.7511
vn 0.7851 0.6034 0.1399
vn 0.6180 0.7126 -0.3320
vn -0.9484 0.2728 0.1619
vn -0.9366 0.0934 0.3376
vn 0.8967 0.1623 0.4118
vn 0.7874 0.3729 0.4909
vn 0.3442 0.6317 0.6946
vn -0.9549 -0.1792 0.2368
vn -0.1608 -0.9861 0.0418
vn 0.8106 0.5531 0.1927
vn 0.6879 0.5260 0.5000
vn 0.4198 0.2630 -0.8687
vn 0.9270 0.3398 0.1588
vn 0.8721 0.0185 -0.4890
vn 0.4171 0.2608 -0.8707
vn -0.7432 0.2762 -0.6094
vn 0.5543 -0.4507 -0.6997
vn -0.9104 -0.2482 -0.3309
vn 0.7814 -0.6180 0.0865
vn 0.8650 -0.3388 0.3702
vn -0.1041 0.0648 0.9924
vn -0.9363 0.0982 0.3372
vn -0.9820 0.0669 0.1768
vn -0.9967 -0.0581 -0.0559
vn -0.9177 -0.1762 -0.3562
vn -0.8803 -0.0926 -0.4653
vn -0.3697 0.0265 -0.9288
vn -0.1145 0.0193 -0.9932
vn 0.2140 0.0019 -0.9768
vn 0.8440 0.0481 -0.5342
vn 0.9997 -0.0254 -0.0073
vn 0.7378 0.2426 0.6299
vn 0.6926 0.2512 0.6761
vn 0.0614 0.2358 0.9699
vn -0.8939 0.1625 0.4178
vn -0.8632 0.1039 -0.4941
vn -0.8628 0.1035 -0.4948
vn -0.9649 0.0520 -0.2572
vn -0.7143 0.2046 -0.6692
vn 0.4819 0.1723 -0.8591
vn 0.8846 0.1123 -0.4527
vn -0.1672 -0.9096 0.3804
vn -0.3896 -0.9155 -0.1005
vn 0.1894 -0.0566 -0.9803
vn 0.4934 0.2119 -0.8436
vn 0.8531 0.4856 -0.1907
vn 0.8519 0.4301 0.2987
vn 0.7231 0.4367 0.5352
vn 0.3936 0.3220 0.8610
vn 0.2989 0.2805 0.9121
vn -0.0139 0.1117 0.9936
vn -0.9832 -0.1630 -0.0820
vn -0.1698 0.1086 0.9795
vn -0.6005 0.0237 0.7993
vn -0.9364 -0.0819 -0.3412
vn -0.4196 0.1340 -0.8978
vn 0.1642 -0.0106 -0.9864
vn 0.1774 0.2747 -0.9450
vn 0.4715 0.3671 -0.8018
vn 0.8158 0.4964 -0.2968
vn 0.8093 0.5228 -0.2677
vn 0.0910 0.2755 -0.9570
vn -0.8678 0.0409 0.4953
vn 0.8093 -0.0764 0.5823
vn 0.5896 -0.6584 0.4678
vn -0.4792 -0.4391 -0.7600
vn -0.2954 -0.0248 -0.9551
vn -0.1261 0.0602 -0.9902
vn 0.4087 0.2139 -0.8872
vn 0.8525 0.1106 0.5108
vn 0.7397 0.0005 0.6729
vn 0.6800 0.3404 -0.6494
vn 0.3153 0.0504 0.9476
vn -0.1989 -0.0175 0.9799
vn -0.7761 -0.0308 0.6299
vn -0.9713 0.0693 -0.2276
vn -0.9582 0.0394 0.2833
vn -0.5880 0.2901 -0.7550
vn -0.5331 0.4764 -0.6992
vn -0.5032 0.5072 -0.6997
vn 0.8109 0.5016 -0.3013
vn 0.8627 0.3726 0.3419
vn -0.6238 0.4744 -0.6212
vn 0.8443 0.2817 -0.4558
vn -0.9228 0.2668 0.2779
vn -0.0372 -0.2065 0.9777
vn 0.0458 -0.2260 0.9730
vn 0.9954 -0.0503 0.0816
vn 0.9433 0.0281 -0.3308
vn 0.3664 0.2483 -0.8967
vn 0.0475 0.2795 -0.9590
vn -0.5430 0.3282 -0.7729
vn -0.6363 0.3255 -0.6994
vn -0.7841 0.3231 -0.5299
vn -0.9004 0.3145 -0.3007
vn -0.9511 0.2631 -0.1617
vn -0.8958 0.0753 0.4381
vn 0.1344 -0.5568 0.8197
vn 0.6068 -0.7939 -0.0396
vn 0.6500 -0.0340 -0.7592
vn -0.6132 0.3189 -0.7227
vn -0.0760 0.6565 0.7505
vn 0.3932 0.7753 0.4943
vn -0.3756 0.7488 -0.5461
vn -0.5571 0.6648 -0.4977
vn -0.7374 0.5650 -0.3703
vn -0.9429 0.2920 0.1603
vn -0.0149 0.5475 0.8367
vn -0.9742 -0.0925 0.2057
vn 0.5575 0.6338 0.5362
vn 0.4787 0.4447 0.7570
vn 0.0658 0.3749 -0.9247
vn 0.0275 0.4105 -0.9114
vn 0.9211 0.0640 -0.3840
vn 0.3391 -0.8448 -0.4139
vn 0.3385 -0.8454 -0.4131
vn -0.5614 -0.8183 -0.1233
vn -0.9598 -0.2647 0.0932
vn 0.6202 0.1913 0.7608
s 0
f 11//1 4//1 3//1
f 4//2 7//2 3//2
f 7//3 1//3 3//3
f 1//4 11//4 3//4
f 1//5 13//5 11//5
f 13//6 10//6 11//6
f 10//7 14//7 11//7
f 14//8 4//8 11//8
f 14//9 6//9 4//9
f 6//10 12//10 4//10
f 12//11 7//11 4//11
f 5//12 2//12 7//12
f 2//13 1//13 7//13
f 12//14 5//14 7//14
f 2//15 13//15 1//15
f 8//16 10//16 13//16
f 2//17 5//17 13//17
f 5//18 8//18 13//18
f 12//19 14//19 10//19
f 8//20 12//20 10//20
f 12//21 6//21 14//21
f 8//22 9//22 12//22
f 9//23 5//23 12//23
f 9//24 8//24 5//24
f 17//25 16//25 15//25
f 16//26 22//26 15//26
f 22//27 18//27 15//27
f 18//28 19//28 15//28
f 19//29 23//29 15//29
f 23//30 21//30 15//30
f 21//31 17//31 15//31
f 21//32 24//32 17//32
f 24//33 16//33 17//33
f 24//34 20//34 16//34
f 20//35 18//35 16//35
f 18//36 22//36 16//36
f 20//37 19//37 18//37
f 20//38 23//38 19//38
f 20//39 24//39 23//39
f 24//40 21//40 23//40
f 30//41 27//41 31//41
f 27//42 33//42 31//42
f 33//43 28//43 31//43
f 28//44 25//44 31//44
f 25//45 30//45 31//45
f 29//46 32//46 30//46
f 32//47 27//47 30//47
f 25//48 29//48 30//48
f 32//49 26//49 27//49
f 26//50 33//50 27//50
f 26//51 28//51 33//51
f 26//52 25//52 28//52
f 26//53 32//53 25//53
f 32//54 29//54 25//54
f 34//55 37//55 43//55
f 37//56 44//56 43//56
f 44//57 38//57 43//57
f 38//58 34//58 43//58
f 38//59 42//59 34//59
f 42//60 45//60 34//60
f 45//61 37//61 34//61
f 45//62 36//62 37//62
f 36//63 39//63 37//63
f 39//64 44//64 37//64
f 39//65 40//65 44//65
f 40//66 38//66 44//66
f 40//67 42//67 38//67
f 41//68 36//68 42//68
f 36//69 45//69 42//69
f 40//70 35//70 42//70
f 35//71 41//71 42//71
f 41//72 39//72 36//72
f 41//73 35//73 39//73
f 35//74 40//74 39//74
f 52//75 48//75 54//75
f 48//76 50//76 54//76
f 50//77 46//77 54//77
f 46//78 52//78 54//78
f 49//79 48//79 52//79
f 46//80 51//80 52//80
f 51//81 49//81 52//81
f 49//82 53//82 48//82
f 53//83 50//83 48//83
f 53//84 46//84 50//84
f 53//85 55//85 46//85
f 55//86 47//86 46//86
f 47//87 51//87 46//87
f 55//88 56//88 49//88
f 56//89 53//89 49//89
f 51//90 47//90 49//90
f 47//91 55//91 49//91
f 56//92 55//92 53//92
f 62//93 65//93 64//93
f 65//94 68//94 64//94
f 68//95 69//95 64//95
f 69//96 62//96 64//96
f 67//97 58//97 62//97
f 58//98 65//98 62//98
f 69//99 57//99 62//99
f 57//100 61//100 62//100
f 61//101 67//101 62//101
f 58//102 66//102 65//102
f 66//103 68//103 65//103
f 66//104 69//104 68//104
f 66//105 60//105 69//105
f 60//106 57//106 69//106
f 61//107 58//107 67//107
f 61//108 59//108 58//108
f 59//109 66//109 58//109
f 60//110 63//110 57//110
f 63//111 59//111 57//111
f 59//112 61//112 57//112
f 59//113 60//113 66//113
f 59//114 63//114 60//114
f 76//115 71//115 72//115
f 71//116 75//116 72//116
f 75//117 77//117 72//117
f 77//118 76//118 72//118
f 74//119 71//119 76//119
f 77//120 70//120 76//120
f 70//121 74//121 76//121
f 78//122 75//122 71//122
f 74//123 78//123 71//123
f 78//124 77//124 75//124
f 78//125 73//125 77//125
f 73//126 70//126 77//126
f 70//127 73//127 74//127
f 73//128 78//128 74//128
f 90//129 89//129 86//129
f 89//130 79//130 86//130
f 79//131 87//131 86//131
f 87//132 81//132 86//132
f 81//133 90//133 86//133
f 84//134 89//134 90//134
f 81//135 80//135 90//135
f 80//136 82//136 90//136
f 82//137 84//137 90//137
f 84//138 82//138 89//138
f 82//139 88//139 89//139
f 88//140 79//140 89//140
f 88//141 87//141 79//141
f 88//142 83//142 87//142
f 83//143 81//143 87//143
f 83//144 85//144 81//144
f 85//145 82//145 81//145
f 82//146 80//146 81//146
f 85//147 88//147 82//147
f 85//148 83//148 88//148
f 98//149 101//149 95//149
f 101//150 100//150 95//150
f 100//151 97//151 95//151
f 97//152 96//152 95//152
f 96//153 92//153 95//153
f 92//154 102//154 95//154
f 102//155 98//155 95//155
f 102//156 99//156 98//156
f 99//157 101//157 98//157
f 99//158 91//158 101//158
f 91//159 100//159 101//159
f 91//160 93//160 100//160
f 93//161 97//161 100//161
f 93//162 96//162 97//162
f 93//163 94//163 96//163
f 94//164 102//164 96//164
f 102//165 92//165 96//165
f 94//166 99//166 102//166
f 94//167 91//167 99//167
f 94//168 93//168 91//168
f 112//169 109//169 103//169
f 109//170 106//170 103//170
f 106//171 111//171 103//171
f 111//172 108//172 103//172
f 108//173 113//173 103//173
f 113//174 110//174 103//174
f 110//175 112//175 103//175
f 110//176 104//176 112//176
f 104//177 109//177 112//177
f 104//178 107//178 109//178
f 107//179 106//179 109//179
f 107//180 111//180 106//180
f 104//181 105//181 111//181
f 105//182 108//182 111//182
f 107//183 104//183 111//183
f 105//184 113//184 108//184
f 104//185 110//185 113//185
f 105//186 104//186 113//186
f 121//187 116//187 125//187
f 116//188 119//188 125//188
f 119//189 118//189 125//189
f 118//190 114//190 125//190
f 114//191 121//191 125//191
f 114//192 115//192 121//192
f 115//193 116//193 121//193
f 115//194 126//194 116//194
f 126//195 117//195 116//195
f 117//196 122//196 116//196
f 122//197 123//197 116//197
f 123//198 120//198 116//198
f 120//199 119//199 116//199
f 120//200 118//200 119//200
f 120//201 124//201 118//201
f 124//202 114//202 118//202
f 124//203 120//203 114//203
f 120//204 126//204 114//204
f 126//205 115//205 114//205
f 120//206 117//206 126//206
f 120//207 123//207 117//207
f 123//208 122//208 117//208
f 135//209 131//209 139//209
f 131//210 130//210 139//210
f 130//211 133//211 139//211
f 133//212 137//212 139//212
f 137//213 135//213 139//213
f 134//214 131//214 135//214
f 137//215 132//215 135//215
f 132//216 128//216 135//216
f 128//217 127//217 135//217
f 127//218 129//218 135//218
f 129//219 134//219 135//219
f 134//220 129//220 131//220
f 129//221 136//221 131//221
f 136//222 138//222 131//222
f 138//223 130//223 131//223
f 138//224 136//224 130//224
f 136//225 127//225 130//225
f 127//226 128//226 130//226
f 128//227 133//227 130//227
f 128//228 137//228 133//228
f 128//229 132//229 137//229
f 136//230 129//230 127//230
f 142//231 141//231 150//231
f 141//232 143//232 150//232
f 143//233 148//233 150//233
f 148//234 140//234 150//234
f 140//235 145//235 150//235
f 145//236 142//236 150//236
f 144//237 141//237 142//237
f 145//238 149//238 142//238
f 149//239 144//239 142//239
f 144//240 146//240 141//240
f 146//241 143//241 141//241
f 146//242 147//242 143//242
f 147//243 140//243 143//243
f 140//244 148//244 143//244
f 147//245 145//245 140//245
f 147//246 149//246 145//246
f 149//247 146//247 144//247
f 147//248 146//248 149//248
f 157//249 156//249 151//249
f 156//250 159//250 151//250
f 159//251 152//251 151//251
f 152//252 160//252 151//252
f 160//253 154//253 151//253
f 154//254 157//254 151//254
f 158//255 153//255 157//255
f 153//256 156//256 157//256
f 154//257 155//257 157//257
f 155//258 158//258 157//258
f 160//259 152//259 156//259
f 152//260 159//260 156//260
f 153//261 158//261 156//261
f 158//262 160//262 156//262
f 158//263 155//263 160//263
f 155//264 154//264 160//264
f 165//265 171//265 163//265
f 171//266 167//266 163//266
f 167//267 172//267 163//267
f 172//268 161//268 163//268
f 161//269 165//269 163//269
f 164//270 169//270 165//270
f 169//271 166//271 165//271
f 166//272 171//272 165//272
f 161//273 164//273 165//273
f 166//274 170//274 171//274
f 170//275 167//275 171//275
f 162//276 173//276 167//276
f 173//277 172//277 167//277
f 170//278 166//278 167//278
f 166//279 168//279 167//279
f 168//280 164//280 167//280
f 164//281 162//281 167//281
f 173//282 161//282 172//282
f 173//283 162//283 161//283
f 162//284 164//284 161//284
f 168//285 166//285 164//285
f 166//286 169//286 164//286
f 183//287 182//287 174//287
f 182//288 180//288 174//288
f 180//289 179//289 174//289
f 179//290 181//290 174//290
f 181//291 177//291 174//291
f 177//292 183//292 174//292
f 177//293 176//293 183//293
f 176//294 175//294 183//294
f 175//295 182//295 183//295
f 175//296 178//296 182//296
f 178//297 179//297 182//297
f 179//298 180//298 182//298
f 178//299 181//299 179//299
f 178//300 175//300 181//300
f 175//301 176//301 181//301
f 176//302 177//302 181//302
f 195//303 186//303 194//303
f 186//304 188//304 194//304
f 188//305 193//305 194//305
f 193//306 184//306 194//306
f 184//307 192//307 194//307
f 192//308 195//308 194//308
f 189//309 196//309 195//309
f 196//310 186//310 195//310
f 192//311 184//311 195//311
f 184//312 187//312 195//312
f 187//313 189//313 195//313
f 196//314 185//314 186//314
f 185//315 188//315 186//315
f 185//316 193//316 188//316
f 185//317 191//317 193//317
f 191//318 184//318 193//318
f 191//319 190//319 184//319
f 190//320 187//320 184//320
f 187//321 196//321 189//321
f 187//322 185//322 196//322
f 190//323 191//323 187//323
f 191//324 185//324 187//324
f 207//325 203//325 209//325
f 203//326 198//326 209//326
f 198//327 200//327 209//327
f 200//328 199//328 209//328
f 199//329 207//329 209//329
f 205//330 206//330 207//330
f 206//331 203//331 207//331
f 199//332 197//332 207//332
f 197//333 205//333 207//333
f 206//334 202//334 203//334
f 202//335 204//335 203//335
f 204//336 201//336 203//336
f 201//337 200//337 203//337
f 200//338 198//338 203//338
f 201//339 199//339 200//339
f 201//340 197//340 199//340
f 197//341 206//341 205//341
f 208//342 202//342 206//342
f 197//343 208//343 206//343
f 201//344 204//344 197//344
f 204//345 208//345 197//345
f 208//346 204//346 202//346
f 213//347 214//347 219//347
f 214//348 212//348 219//348
f 212//349 217//349 219//349
f 217//350 210//350 219//350
f 210//351 213//351 219//351
f 210//352 221//352 213//352
f 221//353 216//353 213//353
f 216//354 214//354 213//354
f 216//355 212//355 214//355
f 216//356 220//356 212//356
f 220//357 217//357 212//357
f 220//358 218//358 217//358
f 218//359 210//359 217//359
f 211//360 221//360 210//360
f 218//361 211//361 210//361
f 211//362 215//362 221//362
f 215//363 216//363 221//363
f 215//364 220//364 216//364
f 215//365 218//365 220//365
f 215//366 211//366 218//366
f 227//367 223//367 224//367
f 223//368 230//368 224//368
f 230//369 226//369 224//369
f 226//370 232//370 224//370
f 232//371 227//371 224//371
f 228//372 229//372 227//372
f 229//373 225//373 227//373
f 225//374 223//374 227//374
f 232//375 222//375 227//375
f 222//376 228//376 227//376
f 229//377 230//377 223//377
f 225//378 229//378 223//378
f 231//379 226//379 230//379
f 229//380 228//380 230//380
f 228//381 231//381 230//381
f 231//382 222//382 226//382
f 222//383 232//383 226//383
f 222//384 231//384 228//384
f 239//385 243//385 240//385
f 243//386 242//386 240//386
f 242//387 235//387 240//387
f 235//388 237//388 240//388
f 237//389 244//389 240//389
f 244//390 245//390 240//390
f 245//391 239//391 240//391
f 245//392 243//392 239//392
f 245//393 236//393 243//393
f 236//394 246//394 243//394
f 246//395 238//395 243//395
f 238//396 242//396 243//396
f 238//397 234//397 242//397
f 234//398 235//398 242//398
f 234//399 241//399 235//399
f 241//400 233//400 235//400
f 233//401 237//401 235//401
f 233//402 244//402 237//402
f 233//403 246//403 244//403
f 246//404 236//404 244//404
f 236//405 245//405 244//405
f 233//406 241//406 246//406
f 241//407 238//407 246//407
f 241//408 234//408 238//408
f 247//409 250//409 258//409
f 250//410 256//410 258//410
f 256//411 257//411 258//411
f 257//412 253//412 258//412
f 253//413 255//413 258//413
f 255//414 247//414 258//414
f 255//415 252//415 247//415
f 252//416 254//416 247//416
f 254//417 251//417 247//417
f 251//418 250//418 247//418
f 248//419 256//419 250//419
f 251//420 254//420 250//420
f 254//421 248//421 250//421
f 248//422 252//422 256//422
f 252//423 249//423 256//423
f 249//424 257//424 256//424
f 249//425 259//425 257//425
f 259//426 253//426 257//426
f 259//427 255//427 253//427
f 259//428 252//428 255//428
f 259//429 249//429 252//429
f 248//430 254//430 252//430
f 262//431 268//431 264//431
f 268//432 265//432 264//432
f 265//433 267//433 264//433
f 267//434 269//434 264//434
f 269//435 261//435 264//435
f 261//436 262//436 264//436
f 260//437 266//437 262//437
f 266//438 268//438 262//438
f 261//439 260//439 262//439
f 266//440 263//440 268//440
f 263//441 265//441 268//441
f 263//442 267//442 265//442
f 271//443 269//443 267//443
f 263//444 271//444 267//444
f 271//445 261//445 269//445
f 271//446 270//446 261//446
f 270//447 263//447 261//447
f 263//448 260//448 261//448
f 263//449 266//449 260//449
f 270//450 271//450 263//450
f 277//451 281//451 280//451
f 281//452 276//452 280//452
f 276//453 272//453 280//453
f 272//454 282//454 280//454
f 282//455 277//455 280//455
f 282//456 274//456 277//456
f 274//457 281//457 277//457
f 274//458 275//458 281//458
f 275//459 279//459 281//459
f 279//460 273//460 281//460
f 273//461 278//461 281//461
f 278//462 276//462 281//462
f 278//463 273//463 276//463
f 273//464 272//464 276//464
f 273//465 282//465 272//465
f 273//466 275//466 282//466
f 275//467 274//467 282//467
f 273//468 279//468 275//468
f 289//469 290//469 284//469
f 290//470 286//470 284//470
f 286//471 283//471 284//471
f 283//472 292//472 284//472
f 292//473 285//473 284//473
f 285//474 289//474 284//474
f 291//475 290//475 289//475
f 285//476 291//476 289//476
f 293//477 286//477 290//477
f 291//478 293//478 290//478
f 288//479 292//479 286//479
f 292//480 283//480 286//480
f 293//481 288//481 286//481
f 288//482 293//482 292//482
f 293//483 287//483 292//483
f 287//484 291//484 292//484
f 291//485 285//485 292//485
f 287//486 293//486 291//486
