# Blender 5.2.0 LTS
# www.blender.org
o CumGai3
v 0.060992 0.037113 0.002941
v 0.041061 0.031603 -0.079635
v -0.180807 0.018544 -0.124861
v -0.016419 0.076978 -0.045263
v -0.064960 0.076602 0.082015
v -0.140126 0.043313 0.079897
v -0.043149 0.063068 -0.113334
v -0.074175 0.039490 -0.150353
v -0.088076 0.023376 -0.151469
v -0.222349 0.012487 0.045545
v -0.142951 0.073353 -0.046616
v -0.037665 0.020806 -0.139833
v -0.135510 0.033162 -0.133989
v -0.111972 0.038715 0.117468
v -0.047063 0.049044 0.113424
v -0.036718 0.100698 -0.098179
v -0.032020 0.003114 -0.191724
v -0.077465 0.001674 0.175605
v -0.123256 0.060788 -0.078858
v 0.060090 0.091514 -0.087482
v 0.146482 0.037807 -0.097581
v 0.163906 0.056116 -0.006769
v -0.190202 0.027548 0.036585
v 0.244133 0.004139 0.057801
v -0.062674 0.069349 -0.113443
v -0.176478 0.002556 -0.095231
v -0.072253 0.061294 0.089535
v 0.086458 0.041798 -0.035289
v -0.053686 0.062189 -0.125322
v -0.121048 0.041304 0.088782
v -0.170205 0.052575 -0.032973
v 0.040703 0.038931 0.046875
v 0.039284 0.057353 -0.098952
v 0.046166 0.050811 -0.024540
v 0.086867 0.020403 0.173358
v 0.079446 0.097809 -0.164986
v -0.034943 0.072896 -0.222035
v -0.138935 0.081457 0.121436
v -0.122762 0.039878 -0.167650
v 0.067387 0.123249 0.050791
v -0.112991 0.135305 -0.051279
v -0.084707 0.061751 0.139568
v -0.218569 0.052914 -0.031709
v -0.008478 0.068418 0.174667
v -0.035620 0.097911 -0.200740
v -0.129312 0.188422 -0.017110
v -0.028856 0.162961 0.126507
v -0.092504 0.308161 0.115064
v -0.108329 0.313024 0.010857
v 0.027924 0.116450 0.090859
v 0.098997 0.063376 0.008092
v -0.070814 0.278061 0.118002
v -0.100514 0.481043 0.075954
v -0.114004 0.054165 -0.088891
v 0.014270 0.278840 0.054693
v -0.062622 0.454024 0.065142
v 0.150626 0.443211 -0.005727
v 0.091750 0.336968 -0.006773
v 0.185117 0.401926 -0.030164
v 0.168745 0.298905 0.012421
v 0.118401 0.057386 -0.099661
v 0.177689 0.424391 -0.042750
v 0.140899 0.266168 -0.072745
v -0.022886 0.054069 -0.086462
v 0.103110 0.149515 0.091306
v 0.041864 0.038500 -0.125549
v 0.090290 0.190057 -0.102087
v 0.151078 0.423850 -0.047484
v -0.042980 0.056257 -0.036006
v -0.016612 0.226531 0.060925
v 0.059658 0.049377 -0.139814
v 0.119279 0.498510 -0.065406
v -0.043602 0.074276 0.104540
v 0.116623 0.373948 0.034683
v 0.119863 0.432066 -0.068840
v 0.119798 0.165108 0.039532
v 0.101486 0.277043 0.052239
v -0.019100 0.029256 -0.186635
v 0.083677 0.267196 -0.111319
v 0.029254 0.270226 0.073385
v 0.088850 0.498678 -0.055087
v 0.124969 0.346086 0.042690
v 0.158744 0.253715 0.041579
v 0.178691 0.032965 -0.026182
v 0.031069 0.141352 0.147778
v 0.057369 0.065475 0.191877
v 0.227018 0.015007 0.086507
v 0.157865 0.332949 0.071963
v 0.032921 0.098354 -0.007320
v 0.166697 0.378887 0.110278
v 0.151702 0.016565 0.150879
v 0.179884 0.271114 0.125270
v 0.141268 0.354576 0.132211
v 0.128176 0.370909 0.103992
v 0.234395 0.120691 0.061123
v -0.008495 0.063862 0.104689
v 0.164939 0.248547 0.150905
v -0.083719 0.432824 0.074974
v 0.059443 0.136861 -0.044202
v -0.001660 0.199791 0.098802
v -0.048273 0.070737 -0.109890
v -0.121380 0.215684 0.031902
v -0.094543 0.453366 0.070994
v -0.022822 0.456564 0.017008
v 0.023573 0.258395 -0.024948
v -0.119822 0.107270 -0.010992
v -0.032885 0.409323 0.074669
v -0.037915 0.465969 0.013369
v -0.119373 0.295506 0.053865
v -0.009445 0.158741 0.111964
v 0.122965 0.012905 0.108208
v 0.082870 0.371094 0.143087
v 0.049744 0.167737 0.095121
v 0.041479 0.179883 0.234421
v 0.001485 0.110278 0.084340
v 0.147506 0.027973 0.147835
v 0.027831 0.407521 0.201966
v -0.040810 0.056198 0.170146
v 0.094920 0.546044 0.199821
v 0.131395 0.152125 0.178936
v -0.025332 0.256719 -0.003340
v -0.124410 0.201165 -0.001972
v -0.082383 0.257890 0.030330
v -0.089069 0.164814 -0.050314
v 0.041994 0.101649 -0.071140
v -0.092295 0.055447 0.109078
v -0.045602 0.298137 -0.016426
v -0.019879 0.182728 0.071584
v -0.059204 0.260333 0.041915
v -0.067299 0.308752 -0.023770
v -0.072212 0.338403 0.052313
v -0.012398 0.359142 0.045874
v -0.015567 0.011485 -0.106121
v -0.096104 0.089891 0.114956
v -0.063611 0.187575 0.101937
v -0.032308 0.199479 0.101301
v -0.023041 0.277072 -0.021036
v -0.100467 0.063164 0.066176
v -0.050540 0.288283 -0.023160
v -0.009915 0.337386 0.055895
v -0.043297 0.403916 0.060930
vn -0.2779 0.2891 -0.9161
vn -0.2747 0.3002 -0.9135
vn 0.2174 -0.1205 -0.9686
vn -0.0049 -0.9807 -0.1952
vn -0.7035 0.6954 -0.1468
vn -0.3541 0.8378 -0.4155
vn 0.0124 -0.9994 -0.0325
vn -0.2040 0.8827 -0.4234
vn -0.1844 0.8917 -0.4134
vn 0.4693 0.5120 -0.7194
vn 0.4770 0.5105 -0.7154
vn 0.1049 -0.9936 0.0410
vn 0.0938 -0.9944 0.0488
vn -0.4213 0.8802 0.2184
vn 0.1440 -0.8827 0.4474
vn -0.4002 0.8896 0.2202
vn -0.0286 0.9996 -0.0079
vn -0.0261 0.9814 -0.1903
vn 0.4463 0.8261 -0.3441
vn 0.5385 0.8221 -0.1848
vn 0.3789 0.9137 0.1472
vn 0.2597 -0.6327 0.7296
vn 0.2816 0.5946 -0.7531
vn 0.3808 -0.8248 -0.4180
vn 0.0065 -1.0000 -0.0031
vn -0.1913 -0.9812 -0.0275
vn -0.8110 -0.2319 -0.5371
vn -0.4307 0.6136 -0.6618
vn 0.1439 0.6884 -0.7109
vn 0.4874 0.8331 -0.2615
vn 0.0654 0.9687 0.2397
vn 0.1194 0.9566 0.2659
vn 0.6665 0.6956 -0.2681
vn 0.2177 0.8745 0.4335
vn 0.2360 0.7139 0.6593
vn -0.0937 0.8135 0.5739
vn -0.6995 0.3372 0.6300
vn -0.3034 0.9386 0.1639
vn -0.4147 0.9097 0.0214
vn -0.1391 0.9636 0.2284
vn 0.1635 -0.6917 -0.7034
vn -0.4472 0.5752 -0.6850
vn 0.1643 0.8949 -0.4150
vn 0.1105 0.9929 0.0446
vn 0.1567 0.9850 0.0721
vn 0.2340 0.9702 0.0637
vn 0.2212 -0.8969 -0.3830
vn -0.8933 -0.3021 0.3327
vn -0.4939 0.7015 -0.5138
vn 0.1380 -0.9895 0.0423
vn 0.0363 -0.9800 0.1954
vn -0.1297 0.9910 0.0332
vn 0.2552 0.9504 0.1776
vn -0.3717 0.8986 0.2333
vn 0.2051 -0.5316 0.8218
vn 0.2597 0.9492 0.1778
vn -0.5953 0.6510 -0.4710
vn -0.6047 0.6305 -0.4866
vn -0.1152 -0.9932 0.0141
vn -0.2746 -0.9251 0.2623
vn -0.4247 -0.8242 0.3745
vn -0.5890 0.7924 0.1586
vn 0.0661 0.9755 -0.2099
vn -0.0964 0.9543 0.2830
vn 0.1276 0.9858 -0.1091
vn -0.5826 0.5176 -0.6266
vn 0.2299 0.6345 -0.7380
vn 0.2347 -0.9515 -0.1986
vn 0.3104 -0.9251 -0.2185
vn 0.9753 0.2189 0.0287
vn 0.3791 0.7376 0.5587
vn -0.2912 -0.5986 0.7462
vn -0.3871 -0.2483 0.8880
vn -0.0597 0.9258 0.3732
vn -0.1587 -0.8874 0.4328
vn 0.3865 0.2879 -0.8762
vn 0.8793 0.4013 -0.2565
vn 0.8022 0.1933 0.5649
vn -0.3177 -0.7899 0.5245
vn 0.6407 0.2178 0.7363
vn -0.7946 -0.3542 0.4930
vn -0.7129 0.2657 -0.6490
vn -0.0010 0.3596 -0.9331
vn -0.0082 0.3616 -0.9323
vn 0.4223 0.2427 0.8734
vn 0.4692 0.2340 0.8515
vn 0.6249 0.2298 0.7461
vn -0.0665 0.0494 0.9966
vn -0.8036 -0.3123 0.5067
vn -0.7733 0.2600 -0.5783
vn -0.9663 0.0134 0.2570
vn 0.1825 0.2250 0.9571
vn 0.9823 -0.1790 -0.0554
vn 0.8230 -0.0451 -0.5663
vn 0.8101 0.4667 0.3549
vn 0.7000 0.1750 0.6924
vn 0.5714 0.1726 0.8023
vn 0.9308 -0.2945 0.2166
vn 0.1283 -0.9426 0.3084
vn 0.3093 0.0482 -0.9497
vn 0.4172 0.0718 -0.9060
vn 0.4362 0.0687 -0.8972
vn 0.1794 -0.8804 0.4391
vn 0.0562 0.9060 -0.4195
vn 0.4115 0.0765 -0.9082
vn 0.1686 0.1824 -0.9687
vn -0.8505 0.4736 -0.2288
vn -0.6172 0.3351 0.7119
vn -0.7265 0.2835 0.6260
vn -0.8474 0.4380 -0.3002
vn -0.8328 0.4287 -0.3503
vn -0.2709 -0.9603 -0.0662
vn -0.4476 0.2748 -0.8510
vn -0.4932 0.3174 -0.8099
vn 0.3889 -0.0409 0.9204
vn 0.3035 0.0285 0.9524
vn 0.2657 0.0543 0.9625
vn -0.5194 0.3192 0.7927
vn -0.9839 0.1443 -0.1051
vn 0.1518 -0.9748 0.1635
vn 0.5535 -0.7720 0.3126
vn 0.9613 -0.1039 -0.2553
vn 0.9974 -0.0273 -0.0667
vn 0.4470 -0.0284 0.8941
vn 0.9992 0.0107 -0.0375
vn 0.7868 0.3763 0.4892
vn 0.0716 0.2952 0.9527
vn -0.2635 0.5242 0.8098
vn -0.6348 0.4979 0.5909
vn -0.9385 0.2745 -0.2093
vn -0.3026 0.3211 -0.8974
vn 0.3879 0.1216 -0.9136
vn 0.4991 0.0581 -0.8646
vn 0.7578 0.0018 -0.6525
vn 0.6693 0.0442 -0.7417
vn 0.2595 0.6015 0.7555
vn 0.8975 -0.1613 -0.4106
vn 0.6620 0.2740 -0.6977
vn 0.6627 0.2745 -0.6967
vn 0.7771 0.3082 -0.5487
vn 0.9080 0.1647 0.3853
vn 0.8369 0.0719 0.5426
vn -0.1134 -0.9876 -0.1088
vn 0.8335 0.0705 0.5480
vn 0.6488 -0.0371 0.7600
vn -0.4173 -0.8136 -0.4049
vn 0.0083 0.2941 -0.9557
vn -0.2471 -0.9607 -0.1266
vn -0.0779 0.3562 -0.9312
vn -0.0076 0.6414 -0.7672
vn -0.3203 0.4520 -0.8326
vn -0.2548 0.7810 0.5702
vn 0.4800 0.2551 0.8393
vn 0.7731 0.1792 0.6085
vn -0.3447 -0.8969 0.2770
vn 0.3888 -0.0223 0.9211
vn 0.0575 0.1858 0.9809
vn -0.9083 0.4045 0.1065
vn -0.8938 0.3974 -0.2081
vn -0.7964 0.0728 0.6003
vn -0.7133 0.4101 0.5683
vn -0.4824 0.3091 0.8196
vn 0.5108 0.1731 0.8421
vn 0.0770 0.1538 0.9851
vn -0.2233 0.0707 0.9722
vn -0.4851 -0.0186 0.8742
vn -0.6334 -0.1905 0.7501
vn -0.6497 -0.2877 0.7037
vn 0.0283 -0.9309 0.3643
vn 0.3683 -0.8845 0.2864
vn 0.9119 -0.0421 0.4082
vn 0.9308 0.1756 0.3205
vn 0.4337 0.6584 0.6151
vn 0.1214 0.2501 0.9606
vn 0.9332 0.1806 0.3108
vn 0.3575 0.7752 0.5208
vn -0.7192 0.2240 -0.6577
vn -0.7563 0.2026 -0.6220
vn -0.8212 0.1876 -0.5389
vn -0.9446 0.1089 -0.3097
vn 0.3535 0.2700 -0.8956
vn 0.3850 0.2542 -0.8872
vn 0.6277 0.2991 -0.7187
vn 0.3846 0.2765 -0.8807
vn 0.8174 0.1391 -0.5591
vn 0.9795 0.0809 0.1844
vn 0.4843 -0.1529 0.8614
vn 0.0324 -0.4778 0.8779
vn -0.0890 -0.9114 0.4017
vn -0.4114 -0.6658 -0.6224
vn 0.2030 0.0132 -0.9791
vn 0.4458 0.1361 -0.8847
vn 0.7736 0.1466 -0.6165
vn -0.3586 0.3102 -0.8804
vn -0.6826 0.3204 -0.6568
vn -0.2256 0.1242 0.9663
vn 0.5259 0.0036 0.8505
vn -0.6729 0.0647 0.7369
vn -0.9230 0.2096 -0.3229
vn -0.0690 0.2397 -0.9684
vn 0.7998 -0.3023 0.5185
vn -0.0770 0.3218 0.9437
vn -0.4486 0.3430 0.8253
vn -0.7833 0.2583 0.5655
vn -0.8533 -0.4218 -0.3067
vn -0.4372 -0.7374 -0.5148
vn -0.0639 0.1903 -0.9796
vn 0.4698 0.4249 -0.7738
vn 0.9043 0.4216 -0.0663
vn 0.9254 0.3012 0.2301
vn 0.7422 0.5031 0.4428
vn 0.6766 0.5359 0.5050
vn 0.2002 0.8003 0.5652
vn -0.3669 0.7266 0.5808
vn -0.8400 0.4922 0.2285
vn -0.6947 0.2307 -0.6813
vn 0.3548 -0.8329 0.4247
vn 0.7999 -0.4112 0.4372
vn -0.0344 0.1433 0.9891
vn -0.2247 0.2018 0.9533
vn -0.7228 0.2335 0.6504
vn -0.9941 0.1037 0.0321
vn -0.9426 0.0804 -0.3241
vn -0.8943 0.0210 -0.4470
vn 0.1960 0.3042 -0.9322
vn 0.9455 0.1232 -0.3015
vn 0.9895 0.0504 -0.1358
vn 0.9798 -0.1025 0.1719
vn 0.5108 0.1929 0.8378
vn -0.0526 0.1907 0.9802
vn 0.7620 0.3406 0.5508
vn 0.4252 0.5382 -0.7277
vn 0.2855 0.5519 -0.7835
vn -0.7716 0.4050 -0.4905
s 0
f 3//1 13//1 9//1
f 13//2 8//2 9//2
f 8//3 12//3 9//3
f 12//4 3//4 9//4
f 10//5 11//5 3//5
f 11//6 13//6 3//6
f 12//7 10//7 3//7
f 11//8 8//8 13//8
f 11//9 7//9 8//9
f 7//10 12//10 8//10
f 7//11 2//11 12//11
f 2//12 1//12 12//12
f 1//13 10//13 12//13
f 6//14 11//14 10//14
f 1//15 6//15 10//15
f 6//16 5//16 11//16
f 5//17 4//17 11//17
f 4//18 7//18 11//18
f 4//19 2//19 7//19
f 4//20 1//20 2//20
f 4//21 5//21 1//21
f 5//22 6//22 1//22
f 20//23 21//23 17//23
f 21//24 24//24 17//24
f 24//25 18//25 17//25
f 18//26 23//26 17//26
f 23//27 19//27 17//27
f 19//28 16//28 17//28
f 16//29 20//29 17//29
f 22//30 21//30 20//30
f 16//31 15//31 20//31
f 15//32 22//32 20//32
f 22//33 24//33 21//33
f 22//34 15//34 24//34
f 15//35 18//35 24//35
f 15//36 14//36 18//36
f 14//37 23//37 18//37
f 14//38 16//38 23//38
f 16//39 19//39 23//39
f 14//40 15//40 16//40
f 33//41 26//41 29//41
f 26//42 25//42 29//42
f 25//43 33//43 29//43
f 25//44 27//44 33//44
f 27//45 34//45 33//45
f 34//46 28//46 33//46
f 28//47 26//47 33//47
f 30//48 31//48 26//48
f 31//49 25//49 26//49
f 28//50 32//50 26//50
f 32//51 30//51 26//51
f 31//52 27//52 25//52
f 32//53 34//53 27//53
f 31//54 30//54 27//54
f 30//55 32//55 27//55
f 32//56 28//56 34//56
f 41//57 45//57 43//57
f 45//58 39//58 43//58
f 39//59 35//59 43//59
f 35//60 42//60 43//60
f 42//61 38//61 43//61
f 38//62 41//62 43//62
f 36//63 45//63 41//63
f 38//64 40//64 41//64
f 40//65 36//65 41//65
f 37//66 39//66 45//66
f 36//67 37//67 45//67
f 37//68 35//68 39//68
f 37//69 36//69 35//69
f 36//70 40//70 35//70
f 40//71 44//71 35//71
f 44//72 42//72 35//72
f 44//73 38//73 42//73
f 44//74 40//74 38//74
f 50//75 54//75 51//75
f 54//76 56//76 51//76
f 56//77 55//77 51//77
f 55//78 50//78 51//78
f 47//79 54//79 50//79
f 55//80 47//80 50//80
f 47//81 46//81 54//81
f 46//82 49//82 54//82
f 49//83 56//83 54//83
f 49//84 53//84 56//84
f 53//85 52//85 56//85
f 52//86 47//86 56//86
f 47//87 55//87 56//87
f 52//88 48//88 47//88
f 48//89 46//89 47//89
f 53//90 49//90 46//90
f 48//91 53//91 46//91
f 48//92 52//92 53//92
f 60//93 61//93 59//93
f 61//94 62//94 59//94
f 62//95 57//95 59//95
f 57//96 60//96 59//96
f 57//97 65//97 60//97
f 65//98 61//98 60//98
f 69//99 66//99 61//99
f 66//100 67//100 61//100
f 67//101 63//101 61//101
f 63//102 62//102 61//102
f 65//103 69//103 61//103
f 68//104 57//104 62//104
f 63//105 67//105 62//105
f 67//106 68//106 62//106
f 68//107 58//107 57//107
f 58//108 65//108 57//108
f 58//109 69//109 65//109
f 58//110 68//110 69//110
f 68//111 64//111 69//111
f 64//112 66//112 69//112
f 64//113 67//113 66//113
f 64//114 68//114 67//114
f 76//115 77//115 73//115
f 77//116 82//116 73//116
f 82//117 80//117 73//117
f 80//118 70//118 73//118
f 70//119 78//119 73//119
f 78//120 71//120 73//120
f 71//121 76//121 73//121
f 71//122 75//122 76//122
f 75//123 82//123 76//123
f 82//124 77//124 76//124
f 75//125 72//125 82//125
f 72//126 74//126 82//126
f 74//127 80//127 82//127
f 74//128 81//128 80//128
f 81//129 70//129 80//129
f 81//130 78//130 70//130
f 81//131 72//131 78//131
f 72//132 79//132 78//132
f 79//133 71//133 78//133
f 79//134 75//134 71//134
f 79//135 72//135 75//135
f 81//136 74//136 72//136
f 87//137 84//137 95//137
f 84//138 83//138 95//138
f 83//139 88//139 95//139
f 88//140 90//140 95//140
f 90//141 92//141 95//141
f 92//142 87//142 95//142
f 91//143 84//143 87//143
f 92//144 97//144 87//144
f 97//145 91//145 87//145
f 96//146 89//146 84//146
f 89//147 83//147 84//147
f 91//148 96//148 84//148
f 89//149 88//149 83//149
f 94//150 90//150 88//150
f 89//151 94//151 88//151
f 94//152 93//152 90//152
f 93//153 97//153 90//153
f 97//154 92//154 90//154
f 86//155 96//155 91//155
f 97//156 86//156 91//156
f 93//157 86//157 97//157
f 85//158 94//158 96//158
f 94//159 89//159 96//159
f 86//160 85//160 96//160
f 85//161 93//161 94//161
f 85//162 86//162 93//162
f 100//163 107//163 110//163
f 107//164 98//164 110//164
f 98//165 103//165 110//165
f 103//166 109//166 110//166
f 109//167 102//167 110//167
f 102//168 106//168 110//168
f 106//169 101//169 110//169
f 101//170 99//170 110//170
f 99//171 100//171 110//171
f 99//172 107//172 100//172
f 104//173 103//173 107//173
f 103//174 98//174 107//174
f 99//175 104//175 107//175
f 104//176 108//176 103//176
f 108//177 101//177 103//177
f 101//178 106//178 103//178
f 106//179 109//179 103//179
f 106//180 102//180 109//180
f 108//181 105//181 101//181
f 105//182 99//182 101//182
f 105//183 104//183 99//183
f 105//184 108//184 104//184
f 111//185 119//185 116//185
f 119//186 120//186 116//186
f 120//187 114//187 116//187
f 114//188 118//188 116//188
f 118//189 111//189 116//189
f 118//190 115//190 111//190
f 115//191 113//191 111//191
f 113//192 112//192 111//192
f 112//193 119//193 111//193
f 112//194 115//194 119//194
f 115//195 117//195 119//195
f 117//196 114//196 119//196
f 114//197 120//197 119//197
f 117//198 118//198 114//198
f 117//199 115//199 118//199
f 112//200 113//200 115//200
f 125//201 128//201 126//201
f 128//202 129//202 126//202
f 129//203 123//203 126//203
f 123//204 122//204 126//204
f 122//205 124//205 126//205
f 124//206 125//206 126//206
f 124//207 130//207 125//207
f 130//208 127//208 125//208
f 127//209 121//209 125//209
f 121//210 128//210 125//210
f 121//211 127//211 128//211
f 127//212 129//212 128//212
f 127//213 130//213 129//213
f 130//214 123//214 129//214
f 130//215 122//215 123//215
f 130//216 124//216 122//216
f 138//217 133//217 134//217
f 133//218 136//218 134//218
f 136//219 135//219 134//219
f 135//220 141//220 134//220
f 141//221 131//221 134//221
f 131//222 138//222 134//222
f 131//223 139//223 138//223
f 139//224 133//224 138//224
f 139//225 137//225 133//225
f 137//226 132//226 133//226
f 132//227 140//227 133//227
f 140//228 136//228 133//228
f 140//229 141//229 136//229
f 141//230 135//230 136//230
f 140//231 132//231 141//231
f 132//232 137//232 141//232
f 137//233 139//233 141//233
f 139//234 131//234 141//234
