# Blender 5.2.0 LTS
# www.blender.org
o CumGai1
v 0.143169 0.113849 0.011380
v 0.024015 0.023677 0.239740
v -0.018983 0.172244 0.116779
v -0.073835 0.072728 0.178369
v -0.187609 0.075012 0.010280
v 0.131719 0.106518 0.085965
v 0.025017 0.170849 0.084095
v 0.205976 0.028593 0.122231
v -0.205392 0.074658 -0.071943
v -0.039156 0.080851 -0.209378
v 0.281880 0.089856 -0.018588
v 0.304399 0.031218 -0.040615
v 0.127403 0.071191 0.073836
v 0.167773 0.147153 0.029695
v 0.210023 0.117914 -0.119230
v 0.282567 0.101003 -0.097927
v 0.171771 0.121374 -0.145003
v 0.081254 0.124705 -0.027956
v 0.163130 0.036982 0.108148
v 0.255355 0.110413 0.031198
v 0.009129 0.000265 -0.033113
v 0.273559 0.039987 -0.156703
v 0.028444 0.073819 0.030857
v -0.246798 0.028438 0.260164
v 0.075186 0.074559 0.086261
v -0.070097 0.111185 -0.059470
v 0.063789 0.014000 -0.071609
v -0.150692 0.039876 -0.103984
v -0.016730 0.061755 -0.096160
v -0.201932 0.008612 0.285211
v -0.117134 0.158935 -0.019079
v -0.213061 0.045271 -0.028548
v 0.077577 0.010490 0.170660
v 0.056350 0.061220 0.235617
v -0.213066 0.129558 0.179648
v -0.019967 0.072964 0.294579
v -0.177467 0.147495 -0.022005
v -0.047693 0.052677 -0.207697
v -0.210846 0.039276 0.074310
v -0.241808 0.016012 -0.158003
v -0.149486 0.071623 -0.101097
v -0.242750 0.032360 0.034128
v 0.136264 0.039965 0.006810
v 0.177183 0.002201 0.054574
v 0.089066 0.053051 -0.154931
v -0.009728 0.032800 -0.225157
v -0.117610 0.028919 0.101280
v 0.134003 0.039386 0.030437
v 0.177559 0.010346 -0.032671
v -0.022843 0.084904 0.072790
v -0.151177 0.055106 0.119716
v 0.000978 0.003665 -0.128084
v -0.155659 0.044779 0.061632
v 0.014453 0.027952 0.247090
v -0.136521 0.026738 0.120000
v 0.216115 0.021321 -0.032685
v 0.131288 0.048100 0.187982
v 0.008983 0.047252 -0.073351
v 0.129124 0.090613 0.101363
v -0.098650 0.080837 0.100261
v 0.094327 0.012547 -0.155126
v 0.138727 0.013536 0.218263
v 0.150372 0.058792 0.018562
v 0.223888 0.653300 -0.019934
v 0.226612 0.334101 -0.126284
v 0.190708 0.203837 -0.171229
v 0.131955 0.497231 -0.109047
v 0.155671 0.254220 -0.144389
v 0.157159 0.616777 -0.036463
v 0.246166 0.370912 -0.103163
v 0.095038 0.460013 -0.076060
v 0.106838 0.425069 0.006441
v 0.160328 0.148778 0.072743
v 0.277110 0.117629 0.067334
v 0.087895 0.267726 0.087405
v 0.174750 0.305723 0.048017
v 0.219222 0.437804 0.098397
v 0.205992 0.405074 0.216569
v 0.123032 0.402297 0.179481
v 0.027558 0.120858 0.037809
v 0.148572 0.339969 0.218890
v 0.017975 0.033711 0.198329
v 0.130518 0.396709 0.190509
v -0.021890 0.354700 0.084445
v -0.074953 0.289310 0.085007
v 0.027101 0.157632 -0.049274
v 0.092919 0.023454 0.078791
v -0.106564 0.179429 0.031740
v -0.002393 0.319807 0.092042
v -0.128616 0.085877 0.093025
v -0.154218 0.077168 0.008905
v -0.053019 0.063183 0.122352
v 0.010933 0.116846 0.121382
v -0.034608 0.302923 0.106364
v 0.165864 0.332620 -0.005320
v 0.194504 0.277628 0.002570
v 0.170487 0.431542 -0.102850
v 0.204816 0.395789 -0.041548
v 0.098177 0.297091 -0.006263
v 0.170157 0.401757 -0.038558
v 0.131434 0.360103 -0.049782
v 0.071529 0.095609 -0.123193
v 0.209447 0.441705 -0.087973
v 0.119000 0.182555 0.054367
v 0.213191 0.338258 -0.093766
v -0.082829 0.466024 0.024278
v 0.012045 0.055772 0.154152
v -0.040878 0.182679 -0.106277
v -0.115230 0.459904 -0.027821
v 0.001373 0.319894 -0.048391
v -0.099330 0.412605 0.032282
v -0.126876 0.416515 -0.003540
v -0.158606 0.051362 -0.001195
v -0.158756 0.213966 -0.025787
v -0.054683 0.362806 -0.079419
v -0.105140 0.384229 0.032358
v -0.067983 0.297994 -0.098517
v 0.002406 0.226140 0.073490
v 0.113585 0.020874 -0.124318
v -0.017574 0.073433 0.025227
v -0.000904 0.113549 0.245127
v 0.025018 0.080333 0.068743
v -0.121790 0.599562 0.202359
v -0.144436 0.567917 0.271891
v -0.170601 0.399763 0.129199
v -0.204261 0.243030 0.075125
v -0.124778 0.551278 0.271072
v -0.162114 0.029484 0.241463
v -0.150300 0.590746 0.205882
v -0.099808 0.079737 0.000758
v -0.099818 0.568370 0.268692
v -0.097898 0.310956 0.014263
v -0.111224 0.259966 -0.065439
v -0.118367 0.383685 -0.025714
v -0.133555 0.263664 -0.054350
v -0.057392 0.260571 0.017509
v -0.122749 0.289428 -0.008163
v -0.048397 0.136046 0.097372
v -0.064013 0.279959 -0.063977
v -0.019675 0.228218 -0.054822
v -0.034476 0.071927 -0.134090
v -0.109165 0.272812 0.026786
v 0.100626 0.331289 0.076633
v 0.081228 0.270372 0.100506
v 0.185153 0.063617 -0.030824
v 0.110483 0.322713 0.084716
v 0.201603 0.090002 -0.026337
v 0.173443 0.317034 0.007765
v 0.008556 0.175708 0.008425
v 0.248099 0.070125 0.028731
v 0.164105 0.388940 0.033376
v 0.149431 0.147357 0.157624
v 0.057164 0.077931 -0.095975
v 0.137351 0.164615 0.147151
v 0.199891 0.030480 0.132406
v 0.186412 0.325553 -0.069554
v 0.051725 0.206566 -0.101358
v 0.060700 0.098779 -0.214144
v -0.012943 0.000142 0.058969
v 0.216612 0.244385 -0.125254
v 0.218479 0.534264 -0.171504
v 0.150862 0.327748 -0.215113
v 0.133124 0.393348 -0.185220
v 0.177044 0.520721 -0.159401
v 0.201337 0.047341 -0.021547
v 0.127029 0.436759 0.054320
v 0.097092 0.340150 0.112203
v -0.134453 0.101769 -0.001618
v -0.065544 0.274695 -0.003767
v 0.038983 0.216068 -0.094900
v 0.161380 0.118773 0.012021
v 0.116792 0.484776 0.070394
v 0.126484 0.218022 0.105042
v 0.154448 0.302978 -0.025206
v 0.103386 0.431426 -0.023573
v 0.046384 0.035548 -0.117859
v -0.129634 0.023343 0.118761
vn -0.0604 -0.9912 -0.1177
vn -0.3066 -0.9492 0.0704
vn -0.5499 0.8272 0.1154
vn -0.2401 0.9385 -0.2481
vn -0.1607 0.9529 -0.2571
vn 0.2364 0.9133 -0.3318
vn 0.7683 -0.2169 -0.6022
vn -0.0502 -0.9916 -0.1192
vn -0.5975 -0.6978 0.3950
vn 0.3996 0.6503 0.6460
vn -0.1943 0.5914 0.7826
vn -0.6410 0.6272 0.4424
vn 0.4195 0.6797 0.6017
vn 0.4265 0.7232 0.5433
vn 0.5075 0.8465 0.1611
vn 0.6712 0.7206 0.1739
vn 0.9637 0.0973 -0.2487
vn 0.1012 -0.9897 -0.1016
vn -0.3600 -0.3246 -0.8747
vn 0.4033 0.6033 -0.6881
vn 0.9389 0.3396 0.0558
vn 0.3060 0.8913 -0.3345
vn 0.2575 0.9594 -0.1153
vn 0.3866 0.9221 0.0143
vn 0.7222 0.6840 0.1024
vn 0.8967 0.1952 0.3972
vn 0.7101 -0.1780 0.6812
vn 0.1067 -0.9845 0.1395
vn -0.8162 0.4860 -0.3124
vn -0.7071 0.4330 -0.5591
vn -0.5324 -0.4716 0.7030
vn -0.1550 0.9768 -0.1477
vn 0.1820 0.9734 -0.1395
vn 0.2210 0.5595 0.7988
vn -0.4374 0.8362 0.3308
vn -0.3069 0.5948 0.7430
vn -0.2120 0.5728 0.7918
vn -0.3429 0.4621 0.8178
vn -0.2273 0.5232 0.8213
vn -0.2373 0.6523 0.7198
vn -0.9649 0.2434 -0.0986
vn -0.3571 -0.9291 -0.0959
vn -0.2122 -0.9715 -0.1060
vn -0.1053 -0.9900 -0.0934
vn 0.0008 -0.9999 -0.0145
vn 0.2441 -0.7750 0.5829
vn 0.3950 -0.6570 0.6422
vn 0.2787 0.9447 0.1726
vn 0.1536 0.9641 0.2167
vn -0.1886 0.9806 0.0539
vn -0.9330 0.3335 -0.1350
vn -0.7265 0.2928 -0.6216
vn 0.1055 -0.3081 -0.9455
vn -0.0800 0.5914 -0.8024
vn -0.0440 0.5644 -0.8244
vn 0.5540 0.7631 -0.3327
vn 0.9976 -0.0383 -0.0573
vn 0.9646 0.2224 0.1415
vn 0.3398 0.9320 0.1261
vn 0.5217 0.7915 -0.3184
vn 0.4507 0.7921 -0.4116
vn -0.0751 0.5998 -0.7966
vn 0.5461 -0.5850 -0.5996
vn 0.0298 -0.9891 -0.1443
vn -0.2857 0.2637 -0.9213
vn 0.1976 0.8323 -0.5179
vn 0.5258 0.8463 -0.0850
vn 0.0476 0.9903 -0.1305
vn 0.0517 0.9922 -0.1134
vn 0.2713 0.9625 -0.0013
vn 0.6276 0.7749 0.0750
vn 0.0143 -0.9956 -0.0929
vn -0.4793 0.8743 -0.0767
vn -0.2699 0.8701 -0.4124
vn -0.0755 -0.9936 0.0842
vn 0.2911 0.9553 0.0513
vn 0.6248 0.7768 0.0789
vn -0.2340 0.9674 0.0965
vn -0.2968 0.9522 0.0718
vn -0.1483 0.6363 0.7571
vn 0.1711 0.2013 0.9645
vn 0.3651 0.7667 0.5281
vn -0.0757 -0.9930 0.0902
vn -0.1941 -0.9294 0.3140
vn -0.3103 0.8788 -0.3624
vn -0.4375 0.7335 -0.5202
vn -0.4105 -0.9005 -0.1437
vn -0.8792 -0.4528 0.1483
vn -0.4720 0.8736 -0.1189
vn -0.2339 0.8433 0.4839
vn -0.0417 0.9294 0.3668
vn -0.0409 0.9760 -0.2141
vn -0.2425 0.7759 -0.5824
vn 0.0965 0.9485 -0.3018
vn 0.0896 -0.9958 -0.0178
vn 0.0840 -0.9965 -0.0050
vn -0.0675 -0.9962 0.0552
vn -0.0883 -0.9895 0.1143
vn -0.6111 -0.3085 0.7289
vn 0.2408 0.6684 0.7038
vn 0.0671 0.8963 0.4383
vn 0.8060 0.5390 0.2444
vn 0.3082 0.9118 -0.2713
vn 0.1899 0.9318 -0.3094
vn 0.2629 0.9079 -0.3266
vn 0.8594 0.4288 0.2783
vn -0.8517 -0.4783 -0.2140
vn 0.9429 -0.3304 0.0428
vn 0.9184 -0.0435 0.3933
vn -0.1700 0.1987 0.9652
vn -0.9824 -0.1742 0.0667
vn -0.9629 -0.2502 -0.1009
vn -0.6871 0.0385 -0.7256
vn -0.5424 0.0688 -0.8373
vn 0.2608 0.2499 -0.9325
vn 0.7420 0.0266 -0.6699
vn 0.4597 0.2842 -0.8413
vn -0.0808 0.5297 -0.8443
vn -0.3791 0.2957 0.8768
vn 0.3529 0.2985 -0.8868
vn -0.9187 0.2989 0.2580
vn -0.8025 0.4240 -0.4197
vn 0.0448 -0.8791 -0.4746
vn 0.1169 -0.0383 -0.9924
vn 0.4747 0.1696 -0.8637
vn 0.9748 0.1613 0.1538
vn 0.5055 -0.2957 0.8105
vn 0.2173 -0.1574 0.9633
vn -0.5937 0.2008 0.7792
vn -0.7408 0.2432 0.6261
vn -0.9562 0.2773 0.0935
vn -0.5355 0.4593 -0.7087
vn -0.5165 0.4514 -0.7276
vn -0.8174 0.4551 -0.3532
vn -0.6507 0.5371 -0.5367
vn -0.1435 0.9578 0.2492
vn -0.2848 0.7632 0.5800
vn -0.3405 0.3317 0.8798
vn -0.2361 -0.9674 0.0913
vn 0.0622 -0.6730 -0.7370
vn 0.9378 0.3087 -0.1585
vn 0.5875 0.1534 0.7945
vn 0.2167 -0.2412 0.9460
vn -0.0435 0.0698 0.9966
vn -0.3371 0.0884 0.9373
vn -0.3526 -0.9137 0.2019
vn -0.9319 0.2559 0.2571
vn -0.7357 0.4549 -0.5018
vn -0.4321 0.3836 -0.8162
vn -0.4122 0.4392 -0.7983
vn 0.8596 0.4155 -0.2975
vn 0.2338 0.3298 0.9146
vn 0.3317 0.1563 0.9303
vn -0.5316 0.4376 0.7252
vn -0.5046 0.1665 0.8471
vn -0.6007 0.4820 -0.6378
vn 0.8007 -0.5941 0.0768
vn 0.2804 0.2779 0.9188
vn -0.2334 0.4214 0.8763
vn -0.9618 -0.0308 0.2722
vn -0.9149 0.2862 -0.2847
vn -0.9141 0.2866 -0.2868
vn 0.2054 -0.0013 -0.9787
vn 0.8625 -0.4867 -0.1390
vn 0.9837 -0.0191 0.1788
vn 0.3370 0.3034 0.8913
vn 0.1497 0.4208 0.8947
vn -0.2392 0.4327 0.8692
vn -0.7367 0.6018 0.3084
vn -0.7396 0.6122 0.2798
vn 0.3412 0.0649 -0.9378
vn -0.3688 0.8441 0.3892
vn 0.9914 0.0287 0.1273
vn 0.1794 0.6905 0.7008
vn -0.0658 -0.9928 0.1004
vn 0.9282 0.2008 0.3133
vn 0.6225 0.3634 0.6931
vn -0.2872 0.2281 0.9303
vn -0.5447 0.1138 0.8309
vn -0.6733 0.0337 0.7386
vn -0.8217 0.0750 0.5650
vn -0.8525 0.0774 0.5169
vn -0.5816 -0.1222 -0.8043
vn -0.4206 -0.3063 -0.8540
vn -0.0612 0.0527 -0.9967
vn 0.2218 0.2335 -0.9467
vn 0.6609 0.4080 -0.6299
vn 0.9306 0.2938 0.2181
vn 0.8856 0.3718 0.2785
vn -0.7805 0.4515 0.4324
vn -0.7348 0.3168 0.5997
vn 0.6866 0.5999 -0.4108
vn 0.6219 0.6329 -0.4611
vn -0.7740 0.1601 0.6127
vn -0.9720 0.1707 -0.1612
vn -0.6838 0.1151 -0.7205
vn -0.5766 -0.0808 -0.8130
vn -0.2601 0.3216 -0.9104
vn 0.0711 0.0349 0.9969
vn 0.0209 0.9074 0.4198
vn -0.2400 0.9107 0.3363
vn -0.9865 0.1063 0.1244
vn -0.9639 0.0166 0.2656
vn -0.0060 -0.0562 0.9984
vn 0.0071 -0.0572 0.9983
vn 0.1131 -0.0269 0.9932
vn 0.9730 0.2062 0.1042
vn 0.9370 0.3076 -0.1657
vn 0.6389 0.3561 -0.6819
vn 0.2915 0.3566 -0.8876
vn -0.0704 0.3581 -0.9310
vn -0.2291 0.3836 -0.8946
vn -0.4282 0.3755 -0.8219
vn -0.8589 -0.4093 -0.3078
vn -0.1202 0.3467 -0.9302
vn -0.0132 -0.9781 -0.2076
vn 0.2142 -0.9752 -0.0550
vn 0.4461 -0.8653 0.2285
vn 0.8965 0.2833 0.3407
vn 0.5429 0.4808 0.6885
vn -0.2292 0.3641 0.9027
vn -0.9188 -0.2511 0.3045
vn -0.8712 -0.4842 0.0817
vn 0.9847 -0.1434 0.0990
vn 0.5498 0.3358 -0.7648
vn 0.7193 0.5387 -0.4387
vn 0.8419 0.4936 0.2182
vn 0.5850 0.5109 0.6299
vn -0.3313 0.3812 0.8631
vn -0.9053 0.1181 0.4080
vn -0.9436 -0.1413 0.2996
vn -0.4185 0.1559 -0.8948
vn -0.9796 0.0799 0.1846
vn -0.3945 0.2602 -0.8813
vn -0.1190 0.2973 -0.9473
vn -0.0790 0.3083 -0.9480
vn 0.8066 0.2308 0.5441
vn 0.2982 0.4222 0.8561
vn -0.1352 0.3546 0.9252
vn -0.6986 -0.0561 0.7133
vn -0.7330 -0.1052 0.6721
vn -0.6970 -0.4255 0.5772
vn -0.0087 -0.9801 -0.1982
vn 0.3002 -0.9292 -0.2157
vn 0.8507 0.2172 0.4786
vn -0.6916 -0.6591 0.2953
vn -0.5392 0.4747 -0.6956
vn -0.7471 0.5825 -0.3201
vn -0.0651 0.6438 0.7624
vn 0.9034 0.2431 -0.3533
vn 0.1174 0.3467 -0.9306
vn -0.3168 0.4318 0.8445
vn -0.7334 -0.0921 0.6735
vn -0.8742 0.3912 0.2878
vn 0.4393 -0.1225 -0.8899
vn 0.4142 0.1852 -0.8912
vn 0.6712 -0.3035 -0.6763
vn 0.7828 0.1863 -0.5937
vn -0.9676 0.1397 -0.2105
vn 0.0888 -0.9442 -0.3171
vn 0.3116 0.1778 0.9334
vn -0.0897 0.4129 0.9063
vn -0.9121 0.3882 0.1319
vn -0.9290 0.3466 -0.1297
vn -0.9133 0.2557 -0.3170
vn 0.6981 -0.3751 -0.6099
vn -0.5559 0.2155 -0.8028
vn 0.6493 -0.2587 -0.7151
vn 0.9815 0.0240 0.1902
vn 0.8281 0.1382 0.5433
vn 0.1253 0.4198 0.8989
vn -0.3572 0.3035 -0.8833
vn -0.3624 0.3036 -0.8812
vn 0.7515 -0.1087 -0.6507
vn 0.3800 -0.8942 0.2366
vn 0.7752 -0.0970 -0.6242
vn 0.9757 0.0781 0.2049
vn 0.9551 0.0647 0.2893
vn 0.4396 -0.5271 0.7273
vn -0.5451 -0.7123 -0.4422
vn 0.0826 -0.0385 0.9958
vn -0.4003 0.3044 0.8643
vn -0.7246 0.4424 0.5284
vn -0.8933 0.3593 0.2699
vn -0.5159 0.0872 -0.8522
vn 0.4381 0.1311 -0.8893
vn 0.8772 0.3529 -0.3255
vn 0.9754 0.2183 -0.0310
vn 0.4095 0.1742 -0.8955
vn 0.9316 0.0799 0.3546
vn 0.6733 0.1192 0.7297
vn -0.5695 0.2171 -0.7928
vn -0.6686 0.6836 -0.2927
vn -0.4642 0.4005 -0.7900
s 0
f 10//1 2//1 9//1
f 2//2 5//2 9//2
f 5//3 3//3 9//3
f 3//4 10//4 9//4
f 3//5 7//5 10//5
f 7//6 1//6 10//6
f 1//7 8//7 10//7
f 8//8 2//8 10//8
f 4//9 5//9 2//9
f 8//10 3//10 2//10
f 3//11 4//11 2//11
f 4//12 3//12 5//12
f 8//13 6//13 3//13
f 6//14 7//14 3//14
f 6//15 1//15 7//15
f 6//16 8//16 1//16
f 16//17 12//17 22//17
f 12//18 21//18 22//18
f 21//19 17//19 22//19
f 17//20 16//20 22//20
f 11//21 12//21 16//21
f 17//22 15//22 16//22
f 15//23 14//23 16//23
f 14//24 20//24 16//24
f 20//25 11//25 16//25
f 11//26 20//26 12//26
f 20//27 19//27 12//27
f 19//28 21//28 12//28
f 23//29 18//29 21//29
f 18//30 17//30 21//30
f 19//31 23//31 21//31
f 18//32 14//32 17//32
f 14//33 15//33 17//33
f 19//34 20//34 14//34
f 18//35 23//35 14//35
f 23//36 13//36 14//36
f 13//37 19//37 14//37
f 13//38 23//38 19//38
f 30//39 36//39 24//39
f 36//40 35//40 24//40
f 35//41 32//41 24//41
f 32//42 30//42 24//42
f 32//43 28//43 30//43
f 28//44 27//44 30//44
f 27//45 33//45 30//45
f 33//46 36//46 30//46
f 33//47 34//47 36//47
f 34//48 31//48 36//48
f 31//49 35//49 36//49
f 31//50 37//50 35//50
f 37//51 32//51 35//51
f 37//52 28//52 32//52
f 29//53 27//53 28//53
f 37//54 26//54 28//54
f 26//55 29//55 28//55
f 29//56 25//56 27//56
f 25//57 33//57 27//57
f 25//58 34//58 33//58
f 25//59 31//59 34//59
f 25//60 29//60 31//60
f 29//61 26//61 31//61
f 26//62 37//62 31//62
f 45//63 49//63 46//63
f 49//64 40//64 46//64
f 40//65 38//65 46//65
f 38//66 45//66 46//66
f 43//67 49//67 45//67
f 38//68 41//68 45//68
f 41//69 50//69 45//69
f 50//70 43//70 45//70
f 43//71 44//71 49//71
f 44//72 40//72 49//72
f 42//73 41//73 40//73
f 41//74 38//74 40//74
f 44//75 42//75 40//75
f 50//76 48//76 43//76
f 48//77 44//77 43//77
f 39//78 50//78 41//78
f 42//79 39//79 41//79
f 39//80 47//80 50//80
f 47//81 44//81 50//81
f 44//82 48//82 50//82
f 47//83 42//83 44//83
f 47//84 39//84 42//84
f 60//85 58//85 53//85
f 58//86 52//86 53//86
f 52//87 55//87 53//87
f 55//88 51//88 53//88
f 51//89 60//89 53//89
f 51//90 54//90 60//90
f 54//91 59//91 60//91
f 59//92 58//92 60//92
f 61//93 52//93 58//93
f 59//94 61//94 58//94
f 61//95 56//95 52//95
f 56//96 62//96 52//96
f 62//97 55//97 52//97
f 62//98 54//98 55//98
f 54//99 51//99 55//99
f 62//100 57//100 54//100
f 57//101 59//101 54//101
f 57//102 56//102 59//102
f 56//103 63//103 59//103
f 63//104 61//104 59//104
f 63//105 56//105 61//105
f 57//106 62//106 56//106
f 68//107 66//107 73//107
f 66//108 70//108 73//108
f 70//109 64//109 73//109
f 64//110 72//110 73//110
f 72//111 71//111 73//111
f 71//112 68//112 73//112
f 71//113 67//113 68//113
f 67//114 66//114 68//114
f 67//115 65//115 66//115
f 65//116 70//116 66//116
f 65//117 64//117 70//117
f 67//118 69//118 64//118
f 69//119 72//119 64//119
f 65//120 67//120 64//120
f 69//121 71//121 72//121
f 69//122 67//122 71//122
f 82//123 80//123 74//123
f 80//124 76//124 74//124
f 76//125 77//125 74//125
f 77//126 78//126 74//126
f 78//127 82//127 74//127
f 78//128 81//128 82//128
f 81//129 83//129 82//129
f 83//130 79//130 82//130
f 79//131 80//131 82//131
f 75//132 77//132 80//132
f 77//133 76//133 80//133
f 79//134 75//134 80//134
f 75//135 79//135 77//135
f 79//136 78//136 77//136
f 79//137 83//137 78//137
f 83//138 81//138 78//138
f 92//139 91//139 87//139
f 91//140 86//140 87//140
f 86//141 89//141 87//141
f 89//142 93//142 87//142
f 93//143 92//143 87//143
f 93//144 94//144 92//144
f 94//145 90//145 92//145
f 90//146 91//146 92//146
f 90//147 85//147 91//147
f 85//148 88//148 91//148
f 88//149 86//149 91//149
f 88//150 84//150 86//150
f 84//151 89//151 86//151
f 84//152 94//152 89//152
f 94//153 93//153 89//153
f 84//154 85//154 94//154
f 85//155 90//155 94//155
f 84//156 88//156 85//156
f 102//157 96//157 104//157
f 96//158 95//158 104//158
f 95//159 99//159 104//159
f 99//160 102//160 104//160
f 99//161 101//161 102//161
f 101//162 97//162 102//162
f 97//163 105//163 102//163
f 105//164 96//164 102//164
f 105//165 98//165 96//165
f 98//166 95//166 96//166
f 98//167 100//167 95//167
f 100//168 99//168 95//168
f 100//169 101//169 99//169
f 100//170 97//170 101//170
f 103//171 105//171 97//171
f 100//172 103//172 97//172
f 103//173 98//173 105//173
f 103//174 100//174 98//174
f 113//175 119//175 107//175
f 119//176 118//176 107//176
f 118//177 106//177 107//177
f 106//178 111//178 107//178
f 111//179 116//179 107//179
f 116//180 113//180 107//180
f 116//181 112//181 113//181
f 112//182 114//182 113//182
f 114//183 108//183 113//183
f 108//184 119//184 113//184
f 108//185 117//185 119//185
f 117//186 115//186 119//186
f 115//187 110//187 119//187
f 110//188 118//188 119//188
f 110//189 106//189 118//189
f 109//190 112//190 106//190
f 112//191 111//191 106//191
f 110//192 115//192 106//192
f 115//193 109//193 106//193
f 112//194 116//194 111//194
f 109//195 114//195 112//195
f 109//196 117//196 114//196
f 117//197 108//197 114//197
f 109//198 115//198 117//198
f 127//199 131//199 124//199
f 131//200 123//200 124//200
f 123//201 129//201 124//201
f 129//202 126//202 124//202
f 126//203 128//203 124//203
f 128//204 127//204 124//204
f 128//205 121//205 127//205
f 121//206 131//206 127//206
f 121//207 122//207 131//207
f 122//208 123//208 131//208
f 122//209 120//209 123//209
f 120//210 130//210 123//210
f 130//211 125//211 123//211
f 125//212 129//212 123//212
f 125//213 126//213 129//213
f 130//214 128//214 126//214
f 125//215 130//215 126//215
f 130//216 120//216 128//216
f 120//217 122//217 128//217
f 122//218 121//218 128//218
f 140//219 136//219 138//219
f 136//220 132//220 138//220
f 132//221 142//221 138//221
f 142//222 135//222 138//222
f 135//223 141//223 138//223
f 141//224 140//224 138//224
f 141//225 139//225 140//225
f 139//226 134//226 140//226
f 134//227 136//227 140//227
f 134//228 132//228 136//228
f 134//229 142//229 132//229
f 134//230 137//230 142//230
f 137//231 135//231 142//231
f 133//232 141//232 135//232
f 137//233 134//233 135//233
f 134//234 133//234 135//234
f 133//235 134//235 141//235
f 134//236 139//236 141//236
f 155//237 151//237 152//237
f 151//238 146//238 152//238
f 146//239 144//239 152//239
f 144//240 154//240 152//240
f 154//241 149//241 152//241
f 149//242 155//242 152//242
f 153//243 145//243 155//243
f 145//244 150//244 155//244
f 150//245 151//245 155//245
f 149//246 153//246 155//246
f 153//247 149//247 151//247
f 149//248 143//248 151//248
f 143//249 146//249 151//249
f 150//250 148//250 151//250
f 148//251 153//251 151//251
f 143//252 144//252 146//252
f 149//253 154//253 144//253
f 143//254 149//254 144//254
f 147//255 145//255 153//255
f 148//256 147//256 153//256
f 147//257 150//257 145//257
f 147//258 148//258 150//258
f 157//259 158//259 159//259
f 158//260 165//260 159//260
f 165//261 156//261 159//261
f 156//262 164//262 159//262
f 164//263 157//263 159//263
f 164//264 163//264 157//264
f 163//265 158//265 157//265
f 160//266 165//266 158//266
f 163//267 162//267 158//267
f 162//268 160//268 158//268
f 160//269 161//269 165//269
f 161//270 156//270 165//270
f 161//271 164//271 156//271
f 161//272 162//272 164//272
f 162//273 163//273 164//273
f 162//274 161//274 160//274
f 177//275 176//275 171//275
f 176//276 174//276 171//276
f 174//277 166//277 171//277
f 166//278 173//278 171//278
f 173//279 177//279 171//279
f 168//280 176//280 177//280
f 173//281 167//281 177//281
f 167//282 172//282 177//282
f 172//283 169//283 177//283
f 169//284 168//284 177//284
f 168//285 170//285 176//285
f 170//286 174//286 176//286
f 175//287 172//287 174//287
f 172//288 166//288 174//288
f 170//289 175//289 174//289
f 172//290 173//290 166//290
f 172//291 167//291 173//291
f 169//292 170//292 168//292
f 175//293 169//293 172//293
f 175//294 170//294 169//294
