# Blender 5.2.0 LTS
# www.blender.org
o CumGai0
v 0.087059 0.022957 -0.138313
v -0.002880 0.060042 -0.154212
v 0.250094 0.012224 0.067504
v 0.153119 0.078907 0.202122
v 0.246905 0.020488 -0.064977
v 0.182347 0.113284 0.104726
v 0.145456 0.002541 0.246867
v 0.166492 0.006903 0.277060
v 0.011106 0.119948 -0.063901
v 0.040182 0.064829 -0.141515
v -0.054415 0.097964 -0.043255
v 0.072080 0.100603 0.194684
v -0.039791 0.091923 0.177951
v -0.186529 0.141082 -0.037517
v 0.027894 0.055881 -0.010624
v -0.119287 0.069307 0.170961
v -0.069609 0.035603 -0.111860
v -0.206015 0.132043 -0.016897
v 0.057552 0.061241 -0.050740
v -0.044604 0.112095 0.151287
v -0.191553 0.048606 0.183170
v -0.034785 0.096653 0.165229
v -0.133537 0.078115 -0.106186
v -0.214246 0.112760 -0.035405
v -0.129815 0.021107 -0.134374
v -0.289427 0.130783 0.177042
v -0.151453 0.083304 -0.070510
v -0.281217 0.104707 0.024611
v -0.354549 0.002110 0.206707
v -0.137679 0.122799 0.249756
v -0.286188 0.044876 0.226967
v -0.083989 0.118733 0.258573
v 0.026288 0.119914 0.127401
v -0.118511 0.122645 0.250288
v -0.192061 0.110585 -0.037497
v -0.154464 0.051178 -0.160468
v -0.116865 0.023740 0.300251
v 0.103180 0.113847 0.097187
v 0.071879 0.117805 0.016061
v -0.335923 0.018286 0.013516
v -0.002024 0.016142 0.353343
v -0.009025 0.120637 0.189287
v -0.202050 0.014597 0.221509
v 0.213915 0.018589 -0.141251
v -0.278589 0.037921 0.172792
v -0.269182 0.009103 -0.178347
v -0.088224 0.059788 -0.157293
v -0.212287 0.108114 0.151511
v 0.093487 0.083579 -0.096291
v -0.044886 0.147899 0.141830
v 0.168171 0.139579 -0.192068
v 0.122913 0.037597 -0.263878
v -0.210274 0.109346 0.001792
v -0.206205 0.037401 -0.163507
v -0.125562 0.194570 -0.058831
v 0.150153 0.099084 0.173352
v -0.262494 0.076601 -0.055241
v 0.188557 0.149056 0.045627
v -0.161581 0.184786 -0.063839
v -0.142619 0.158112 0.003816
v -0.136457 0.201985 -0.147856
v 0.235081 0.023326 0.172375
v 0.078418 0.014376 0.311666
v -0.141937 0.132878 0.091431
v 0.111399 0.089716 0.144095
v -0.277868 0.044954 -0.015687
v 0.176392 0.051780 -0.043376
v -0.156327 0.117113 -0.071341
v 0.147150 0.042941 0.160295
v 0.028639 0.066164 -0.236410
v 0.215395 0.069978 -0.003752
v -0.151685 0.098877 0.151819
v -0.102890 0.103589 -0.135929
v 0.142596 0.044124 -0.154550
v 0.059237 0.127780 -0.067456
v -0.071119 0.123463 -0.101139
v -0.086909 0.141506 0.143804
v -0.024465 0.362930 0.236456
v -0.085633 0.381223 0.200340
v 0.083226 0.061882 0.126079
v -0.036330 0.362785 0.255833
v -0.104755 0.162504 0.263224
v -0.137960 0.028858 0.135432
v 0.035942 0.228109 0.177204
v -0.138069 0.101241 0.165667
v -0.068175 0.077578 0.086469
v -0.089117 0.163433 0.268740
v -0.147545 0.016051 0.111221
v 0.038081 0.130998 0.262442
v -0.011983 0.325413 0.196985
v -0.281607 0.472324 -0.005956
v -0.239440 0.218789 -0.093228
v -0.245651 0.088823 -0.140378
v -0.295266 0.558879 0.053804
v -0.301684 0.159764 -0.038260
v -0.282956 0.541737 0.040717
v -0.254353 0.151630 0.083836
v -0.255780 0.382541 -0.034020
v -0.248927 0.348364 -0.045986
v -0.294055 0.124388 0.047167
v -0.138064 0.241787 0.000883
v -0.257720 0.496704 0.051571
v -0.172172 0.792758 -0.179257
v 0.015864 0.317306 0.009207
v -0.012053 0.417396 -0.046717
v 0.098212 0.042584 0.051814
v 0.012351 0.214869 -0.241565
v -0.168975 0.828658 -0.175913
v -0.056750 0.549412 -0.063139
v -0.167507 0.697758 -0.200033
v 0.034223 0.269036 0.017802
v -0.227505 0.482805 -0.174291
v -0.227916 0.271233 -0.065370
v -0.190665 0.299827 -0.004442
v -0.048845 0.322619 0.004547
v -0.137465 0.691136 0.008814
v -0.150232 0.371453 0.083779
v -0.121411 0.625854 -0.005333
v -0.134921 0.637518 -0.005131
v -0.084082 0.378807 -0.056332
v -0.132396 0.678162 0.049933
v -0.157418 0.515603 -0.018368
v -0.166884 0.089510 -0.010755
v -0.009837 0.078977 0.109843
v -0.057936 0.267759 -0.065490
v 0.047162 0.178248 -0.010963
v 0.376676 0.392775 0.003755
v 0.158695 0.302831 -0.075118
v 0.356145 0.323756 -0.136646
v 0.322495 0.295620 0.081940
v 0.333352 0.717556 -0.077184
v 0.173758 0.053455 -0.168864
v 0.332186 0.685624 -0.125872
v 0.241917 0.385436 -0.150751
v 0.264363 0.535335 -0.001865
v 0.033583 0.055423 0.084021
v 0.340483 0.009424 0.157648
v 0.378386 0.700917 -0.117462
v -0.090236 0.635472 -0.202318
v -0.134968 0.446060 -0.170433
v -0.192713 0.253370 -0.281808
v -0.163688 0.097521 0.006500
v -0.117795 0.583779 -0.276742
v 0.020053 0.027837 -0.353617
v -0.113232 0.039091 0.022997
v 0.069351 0.324881 -0.244707
v -0.004652 0.051210 -0.343243
v -0.055675 0.596576 -0.292173
v 0.030945 0.398031 -0.190742
v -0.064867 0.615850 -0.287671
v -0.055876 0.396809 -0.084073
v 0.003918 0.596145 -0.235134
v -0.070231 0.485232 -0.309573
v -0.039137 0.113855 -0.078473
v -0.094052 0.151749 0.115982
v -0.112095 0.489231 -0.004569
v -0.008724 0.228983 -0.022009
v -0.246054 0.037747 0.015858
v -0.118990 0.444447 -0.032032
v -0.231748 0.105574 0.097591
v -0.104202 0.477431 0.002339
v -0.253643 0.028443 -0.028436
v -0.219744 0.068804 0.095318
v -0.084003 0.022517 0.148929
v -0.137040 0.319701 -0.061388
v -0.173144 0.401083 0.063542
v 0.022297 0.156383 -0.023830
v 0.210270 0.250841 0.010931
v 0.167695 0.179369 -0.073289
v 0.390049 0.121299 -0.116270
v 0.346105 0.655138 -0.133363
v 0.439283 0.350954 -0.055787
v 0.264106 0.449634 -0.178113
v 0.433504 0.721365 -0.180381
v 0.435537 0.294767 -0.086504
v 0.339031 0.601323 -0.077738
v 0.223291 0.384691 -0.114577
v 0.377912 0.242804 0.003107
v 0.355877 0.375685 -0.023864
v 0.427350 0.614098 -0.084400
v 0.265156 0.211517 -0.191310
v 0.153263 0.072898 0.032385
v 0.125627 0.097955 -0.264041
v 0.100139 0.338742 -0.090165
v 0.005221 0.451662 -0.234490
v -0.001601 0.452241 -0.121597
v -0.138898 0.051851 -0.156161
v 0.069080 0.674450 -0.247479
v 0.024250 0.041892 -0.263829
v 0.093108 0.504864 -0.161426
v -0.018869 0.026473 -0.247910
v -0.049046 0.405459 -0.174289
v -0.003580 0.312118 -0.086754
v -0.116176 0.008663 -0.089234
v -0.007666 0.144512 -0.259038
v 0.085863 0.621161 -0.253280
v -0.058720 0.510614 0.165057
v -0.117666 0.174908 -0.037207
v -0.112912 0.129370 -0.015982
v 0.045598 0.074108 -0.087697
v -0.019764 0.384531 0.043101
v 0.060863 0.016265 0.149608
v 0.068108 0.169620 0.014188
v -0.090490 0.557305 0.170571
v -0.105633 0.521997 0.165434
v -0.082889 0.519865 0.079161
v -0.299435 0.302785 0.006636
v -0.298827 0.646484 0.100855
v -0.221263 0.661552 0.090027
v -0.299053 0.685701 0.168803
v -0.223177 0.076378 0.256809
v -0.273167 0.840160 0.147696
v -0.092573 0.401233 0.180203
v -0.188292 0.383734 0.250777
v -0.102995 0.244118 0.167567
v -0.259023 0.461671 0.228327
v -0.078395 0.169901 0.111989
v -0.119262 0.237961 0.009130
v 0.206343 0.006885 -0.090718
v -0.040279 0.423579 -0.046587
v -0.110921 0.146665 0.034164
v -0.012984 0.386783 -0.108484
v 0.060866 0.041513 -0.168850
v 0.076848 0.159688 -0.159310
v 0.011204 0.073384 0.136247
v 0.102268 0.141176 0.077863
v 0.160642 0.033159 0.013700
v -0.076885 0.080458 -0.226549
v -0.068382 0.390068 -0.044404
v -0.083863 0.372297 -0.060275
v -0.166028 0.213971 -0.059979
v 0.062297 0.265749 -0.134512
v -0.130511 0.049580 0.000887
v -0.071985 0.349592 -0.205929
v 0.123131 0.151609 -0.060175
v 0.077321 0.504586 -0.221420
v -0.096593 0.157073 -0.203041
v 0.011093 0.531389 -0.255090
v 0.031314 0.412835 -0.139596
v 0.061334 0.523945 -0.230213
v 0.094539 0.416661 -0.232204
v 0.002206 0.514464 -0.222977
v 0.166668 0.047150 -0.146563
v -0.160658 0.086354 -0.065576
v 0.028604 0.008790 0.024568
v -0.004656 0.383307 -0.269414
v -0.053995 0.121529 -0.001967
vn -0.4093 0.7883 -0.4595
vn -0.5710 -0.8208 0.0153
vn -0.3047 0.9513 0.0461
vn 0.3444 0.8215 -0.4544
vn 0.0731 0.8259 -0.5591
vn -0.0912 0.9912 0.0957
vn -0.0451 0.9954 0.0851
vn 0.3647 0.8683 -0.3361
vn 0.2545 0.2128 -0.9434
vn -0.3825 -0.9239 0.0090
vn -0.4452 -0.8947 0.0364
vn -0.5191 -0.7170 0.4653
vn -0.1651 0.5521 0.8172
vn 0.0133 -0.9980 -0.0626
vn 0.3915 0.3740 -0.8407
vn 0.8330 0.5531 0.0144
vn 0.1326 0.7264 0.6743
vn 0.2065 0.9016 0.3802
vn 0.7154 0.5632 0.4135
vn 0.8337 0.4323 0.3436
vn 0.0013 -0.9986 -0.0531
vn 0.1531 -0.9876 0.0360
vn -0.4889 0.4215 -0.7638
vn -0.5292 0.3481 -0.7738
vn -0.7829 -0.6143 -0.0990
vn -0.9547 0.2437 0.1707
vn -0.6795 0.6379 -0.3625
vn 0.2315 0.7994 -0.5544
vn -0.1596 0.9507 0.2659
vn 0.3057 0.9484 -0.0842
vn 0.2181 0.4440 -0.8691
vn 0.2794 0.5272 -0.8025
vn 0.3344 -0.8847 -0.3247
vn 0.2016 -0.9793 0.0182
vn 0.1304 -0.9853 0.1107
vn 0.3109 -0.8921 0.3278
vn -0.1046 0.6290 0.7704
vn -0.2941 0.8744 0.3859
vn 0.3103 -0.8959 0.3178
vn 0.6380 -0.6684 0.3824
vn 0.7310 0.6506 0.2058
vn 0.3113 -0.8953 0.3186
vn 0.2804 -0.9570 -0.0748
vn -0.5217 -0.6362 -0.5685
vn -0.5726 0.1277 -0.8098
vn 0.2645 0.8776 -0.3999
vn 0.0917 0.9921 0.0861
vn 0.3358 -0.9011 0.2742
vn 0.0211 0.9962 -0.0842
vn 0.0379 0.9990 0.0225
vn -0.4908 0.4239 0.7612
vn -0.8966 0.4259 -0.1211
vn 0.0354 -0.4735 0.8801
vn -0.1859 0.9668 -0.1754
vn -0.0051 0.8958 0.4444
vn 0.0053 0.9951 0.0983
vn -0.1607 0.0177 0.9868
vn -0.3645 0.4576 0.8110
vn -0.0660 -0.9975 0.0248
vn -0.4282 0.8832 -0.1912
vn -0.3043 0.9255 -0.2253
vn -0.0103 0.4147 -0.9099
vn 0.0728 0.1498 -0.9860
vn 0.0194 -0.9998 0.0035
vn -0.0015 -0.9999 0.0140
vn -0.5714 -0.4700 0.6727
vn -0.4297 -0.8644 0.2612
vn -0.2190 -0.9135 0.3430
vn -0.6922 0.7031 0.1625
vn -0.2180 0.7822 0.5836
vn -0.1638 0.8221 0.5453
vn -0.2376 0.9469 -0.2168
vn -0.4511 0.6206 0.6414
vn -0.1117 0.9575 -0.2659
vn -0.0494 0.9600 -0.2756
vn -0.0257 0.9549 -0.2958
vn 0.1343 0.7200 -0.6809
vn 0.9145 0.0629 0.3996
vn 0.4092 0.8918 -0.1930
vn 0.4621 0.8764 -0.1355
vn 0.4331 0.7685 0.4710
vn -0.0736 0.8397 0.5380
vn 0.2980 0.9075 0.2961
vn 0.2140 0.9762 -0.0349
vn -0.7321 0.6765 -0.0804
vn -0.7611 0.3730 -0.5307
vn -0.3401 -0.9269 0.1588
vn -0.7336 -0.0133 0.6794
vn -0.6973 0.6705 0.2534
vn -0.2751 0.9547 0.1132
vn -0.5349 0.7241 0.4354
vn -0.2918 0.8591 0.4205
vn 0.1210 0.9903 0.0677
vn 0.1926 0.9797 -0.0556
vn -0.0007 0.5759 -0.8175
vn -0.2853 0.2098 -0.9352
vn -0.0120 -0.9991 -0.0412
vn -0.1025 0.8711 0.4803
vn -0.4679 0.6231 0.6268
vn 0.0228 -0.9990 -0.0385
vn 0.5233 0.5785 0.6257
vn -0.1019 0.8716 0.4795
vn 0.0125 0.9299 0.3676
vn 0.6001 0.6671 0.4414
vn 0.9606 0.2619 -0.0928
vn 0.9380 -0.2409 -0.2491
vn 0.4295 0.8206 -0.3770
vn -0.0611 -0.9819 -0.1793
vn -0.5860 0.0996 -0.8042
vn -0.0801 0.8953 -0.4383
vn 0.0599 0.9342 -0.3516
vn -0.0138 0.9971 -0.0743
vn 0.2510 0.9616 0.1111
vn 0.3120 0.9455 0.0932
vn 0.4489 0.8191 -0.3571
vn 0.4956 -0.8637 -0.0912
vn 0.2433 -0.9699 -0.0072
vn -0.0032 -1.0000 -0.0037
vn -0.5930 0.5342 -0.6025
vn -0.1784 -0.8895 0.4207
vn -0.6674 0.6898 0.2807
vn -0.5224 0.8519 -0.0363
vn -0.1907 0.9172 -0.3498
vn -0.1042 0.9908 -0.0868
vn -0.0811 0.9936 -0.0784
vn -0.4780 0.7961 0.3711
vn 0.0052 0.1771 0.9842
vn 0.1016 0.3940 0.9135
vn 0.6654 0.6410 0.3825
vn 0.4070 -0.9132 0.0188
vn 0.1491 -0.8612 0.4859
vn 0.1515 -0.8973 0.4147
vn 0.1603 -0.5394 -0.8266
vn 0.2709 0.3402 -0.9005
vn 0.4156 0.3733 -0.8294
vn 0.9553 0.2067 0.2115
vn -0.1353 -0.6721 0.7280
vn 0.9136 0.2795 0.2955
vn 0.8185 0.2771 0.5033
vn 0.0617 0.0482 0.9969
vn -0.2198 -0.6451 0.7318
vn -0.8589 -0.2261 0.4596
vn -0.8988 -0.1607 0.4078
vn -0.9694 0.1993 -0.1431
vn -0.4791 0.2839 -0.8306
vn 0.2265 0.3534 -0.9076
vn 0.5068 0.6992 -0.5043
vn 0.8713 0.4625 -0.1641
vn -0.3368 0.1494 0.9297
vn 0.2095 0.9684 0.1356
vn -0.6784 0.2572 0.6882
vn -0.9606 0.1510 0.2332
vn 0.3679 -0.8916 0.2640
vn 0.6908 -0.6888 0.2198
vn 0.5348 0.0838 0.8408
vn 0.2119 0.0930 0.9728
vn -0.6735 -0.0132 0.7390
vn -0.9962 -0.0041 0.0873
vn -0.8596 -0.4946 -0.1281
vn -0.8375 0.1091 -0.5354
vn 0.0814 0.3365 -0.9382
vn 0.6314 0.2376 -0.7382
vn 0.6078 0.3109 -0.7307
vn 0.6378 0.3653 -0.6781
vn 0.6579 0.3905 -0.6439
vn 0.6909 0.4126 -0.5936
vn 0.8759 0.4472 -0.1811
vn 0.8505 0.5088 0.1336
vn -0.1077 0.5533 -0.8260
vn -0.9310 0.0962 -0.3521
vn 0.3671 0.3721 -0.8525
vn 0.2004 0.3485 -0.9156
vn 0.9595 0.2465 -0.1361
vn 0.9614 0.2568 -0.0991
vn -0.0758 0.1271 0.9890
vn -0.0825 0.1236 0.9889
vn -0.5902 -0.5295 0.6093
vn -0.4499 -0.8214 -0.3507
vn -0.6049 -0.3636 -0.7085
vn -0.3010 -0.0301 -0.9531
vn 0.2583 0.1779 -0.9496
vn 0.9348 0.2970 -0.1948
vn 0.9371 0.2939 -0.1881
vn 0.9410 0.3286 0.0808
vn 0.8230 0.3871 0.4157
vn -0.0584 0.1534 0.9864
vn -0.1056 0.2810 0.9539
vn -0.0456 0.2842 0.9577
vn -0.1682 0.3103 0.9357
vn -0.8746 0.1816 0.4495
vn -0.9379 0.1602 0.3076
vn -0.7673 0.1269 -0.6286
vn -0.7130 0.1162 -0.6915
vn -0.6669 0.1278 -0.7341
vn 0.3310 -0.7997 -0.5009
vn 0.1546 -0.3752 -0.9140
vn 0.5810 0.2018 -0.7885
vn 0.6317 0.2471 -0.7348
vn 0.8012 0.3082 -0.5130
vn 0.9407 0.3390 -0.0090
vn 0.8003 0.2195 0.5580
vn 0.0392 0.1073 0.9934
vn -0.6032 -0.2213 0.7662
vn -0.9943 0.0239 0.1037
vn -0.4677 -0.0054 -0.8839
vn -0.4179 -0.0235 -0.9082
vn -0.2258 0.1462 -0.9631
vn 0.1798 0.2249 -0.9577
vn 0.2064 0.2554 -0.9445
vn -0.5370 0.1884 -0.8223
vn -0.9848 0.0888 0.1494
vn -0.9812 0.0766 0.1771
vn -0.1754 0.8252 -0.5370
vn 0.6953 0.2598 0.6701
vn 0.9915 -0.0524 -0.1192
vn 0.1660 0.0403 -0.9853
vn 0.1431 0.0389 -0.9889
vn -0.7832 0.2815 -0.5544
vn -0.8982 0.3771 -0.2258
vn 0.0957 0.3491 0.9322
vn 0.6037 0.2677 0.7510
vn -0.9150 0.3847 -0.1212
vn -0.8157 0.4560 0.3560
vn 0.6384 0.2341 0.7333
vn 0.9885 -0.1264 -0.0824
vn 0.7635 -0.4613 -0.4520
vn 0.1363 0.0260 -0.9903
vn -0.7567 0.1895 -0.6257
vn -0.8669 0.1287 -0.4815
vn -0.2208 0.2737 0.9361
vn -0.1924 0.2396 0.9516
vn -0.1325 -0.9890 -0.0657
vn -0.7038 -0.6724 -0.2290
vn 0.9050 -0.2706 0.3284
vn 0.8211 0.0101 0.5707
vn 0.7736 0.0646 0.6304
vn 0.0159 0.2844 0.9586
vn -0.7185 -0.6528 -0.2403
vn -0.3303 0.3804 0.8638
vn -0.8761 0.2737 0.3970
vn -0.9650 0.1776 0.1931
vn -0.7453 -0.6151 -0.2575
vn -0.6668 -0.4368 -0.6038
vn -0.2852 0.0359 -0.9578
vn 0.1783 0.1291 -0.9755
vn 0.6449 0.1665 -0.7459
vn 0.6797 0.1890 -0.7087
vn 0.9073 0.2059 0.3666
vn 0.7515 0.2402 0.6144
vn 0.4551 0.4471 0.7701
vn 0.3503 0.9302 -0.1097
vn -0.5378 0.7726 -0.3375
vn -0.9511 0.2542 0.1756
vn -0.9680 0.2176 0.1255
vn -0.4065 0.1061 -0.9074
vn -0.2969 0.1698 -0.9397
vn -0.1244 0.1691 -0.9777
vn 0.6204 0.4465 -0.6448
vn 0.6201 0.2833 -0.7315
vn 0.7640 0.3402 -0.5483
vn 0.8598 0.3677 -0.3543
vn 0.7420 0.2414 0.6255
vn 0.7466 0.2183 0.6285
vn 0.6568 -0.7356 -0.1659
vn 0.5446 0.2443 -0.8024
vn 0.6690 0.3110 -0.6751
vn 0.2341 0.1905 -0.9534
vn -0.7811 0.2479 -0.5731
vn -0.8839 0.2829 -0.3725
vn -0.8754 0.3434 -0.3402
vn 0.1132 0.5572 0.8226
vn 0.4144 0.3113 0.8552
vn 0.1771 0.2560 0.9503
vn 0.2894 -0.9066 -0.3071
vn -0.2434 0.1585 0.9569
vn -0.4162 -0.1908 0.8890
vn -0.4422 -0.7760 0.4497
vn -0.2873 -0.9263 0.2438
vn -0.2184 -0.0229 -0.9756
vn -0.9858 0.0059 0.1677
vn -0.9787 0.1996 0.0479
vn -0.8615 -0.3063 0.4050
vn 0.8732 -0.2773 0.4007
vn 0.9956 -0.0157 -0.0927
vn 0.9898 0.0590 0.1294
vn 0.5758 0.1141 0.8096
vn 0.0513 0.1033 0.9933
vn 0.5165 -0.5733 0.6360
vn 0.8723 -0.2956 0.3895
vn 0.1062 0.2147 0.9709
vn 0.0555 0.2074 0.9767
vn 0.8204 -0.1192 -0.5593
vn -0.6505 0.4001 -0.6456
vn -0.1829 0.7181 0.6715
vn -0.0405 0.6676 0.7435
vn 0.4419 -0.1269 -0.8880
vn -0.1009 0.0546 -0.9934
vn 0.0393 0.2348 0.9712
vn 0.0313 0.2343 0.9717
vn -0.8531 0.3986 0.3366
vn -0.9131 0.3226 0.2493
vn -0.9439 0.2880 0.1613
vn -0.5728 -0.5370 -0.6193
vn -0.2101 -0.7805 -0.5888
vn -0.9013 0.3973 -0.1729
vn -0.7749 0.0316 -0.6313
vn -0.8967 0.1598 -0.4127
vn -0.8639 0.4124 0.2891
vn 0.4727 -0.8539 0.2177
vn -0.0129 0.0196 -0.9997
vn 0.9970 0.0754 0.0169
vn 0.9963 0.0658 0.0550
vn 0.6289 -0.4103 0.6604
vn 0.3752 -0.9182 0.1271
vn 0.0386 -0.0225 0.9990
vn -0.5716 0.2056 0.7944
vn -0.8193 0.2493 0.5164
vn -0.8607 0.2417 0.4482
vn -0.4538 -0.8110 -0.3693
vn -0.3275 -0.0578 -0.9431
vn -0.0680 0.0254 -0.9974
vn 0.9285 0.2640 0.2610
vn -0.1858 0.0483 -0.9814
vn 0.1130 0.4623 0.8795
vn 0.1610 0.3948 0.9045
vn -0.0301 0.2416 0.9699
vn -0.6095 -0.0169 -0.7926
vn -0.8240 0.4541 0.3388
vn -0.7984 0.1956 -0.5695
vn -0.7937 0.1718 -0.5836
vn -0.6521 0.0875 -0.7530
vn -0.4899 0.0899 -0.8671
vn -0.1485 -0.0797 0.9857
vn 0.1942 0.0163 0.9808
vn 0.8061 0.5681 -0.1656
vn -0.8785 0.4120 -0.2418
vn -0.9497 0.1817 -0.2549
vn -0.9905 -0.0423 0.1312
vn -0.7501 -0.2659 0.6055
vn -0.3996 -0.8962 -0.1927
vn 0.9868 -0.1308 -0.0954
vn 0.9310 0.2160 0.2944
vn 0.8679 0.4568 -0.1950
vn 0.9148 0.3888 -0.1098
vn 0.4688 0.4250 -0.7744
vn -0.0894 0.3264 -0.9410
vn -0.4907 -0.4097 -0.7690
vn 0.7603 0.3816 -0.5257
vn 0.3714 -0.6293 -0.6827
vn 0.6820 -0.1035 0.7240
vn 0.5988 -0.0523 0.7992
vn -0.2540 0.0478 0.9660
vn -0.9117 -0.0547 0.4071
vn -0.9725 -0.0901 0.2149
vn -1.0000 0.0032 -0.0051
vn -0.2317 0.2576 -0.9381
vn -0.1692 0.2580 -0.9512
vn 0.6301 0.0429 -0.7753
vn 0.6371 0.0197 -0.7705
vn 0.8966 0.3487 -0.2730
vn 0.5361 0.2796 0.7965
vn -0.0841 0.2046 0.9752
vn -0.3433 0.1834 0.9211
vn -0.9841 0.1525 -0.0913
vn -0.0955 -0.9744 0.2034
vn -0.2607 -0.9637 0.0582
vn 0.4744 0.0069 -0.8803
vn 0.6701 0.2549 -0.6971
vn 0.8604 0.4975 0.1107
vn 0.8588 0.4938 0.1368
vn 0.9000 0.2967 0.3193
vn 0.6055 -0.1383 0.7837
vn 0.2334 0.4353 0.8695
vn -0.7063 -0.5409 0.4567
vn -0.5861 -0.8003 0.1267
vn -0.2919 -0.9550 0.0523
vn 0.3914 0.0213 -0.9200
vn 0.2744 0.2545 -0.9273
vn 0.8537 0.5160 0.0697
vn 0.1905 0.3182 -0.9287
vn -0.5460 0.5015 0.6711
vn 0.2364 0.4893 0.8395
vn -0.5280 0.6072 -0.5938
vn -0.7651 0.6433 0.0260
vn -0.7014 0.4337 0.5656
vn -0.8410 0.2329 0.4883
vn -0.8960 -0.1480 0.4187
vn -0.8034 -0.5936 0.0459
vn -0.6789 0.3511 -0.6448
vn -0.5704 0.3963 -0.7195
vn -0.8377 0.4354 0.3296
vn -0.8138 0.4153 0.4065
vn 0.7853 -0.1659 0.5964
vn -0.1827 -0.9176 -0.3531
vn -0.2060 -0.8928 -0.4005
vn -0.2285 -0.8183 -0.5275
vn 0.0746 -0.3085 -0.9483
vn 0.3876 -0.1357 -0.9118
vn 0.9814 0.1920 0.0017
vn 0.9518 0.2207 0.2128
vn 0.5175 0.4102 0.7509
vn 0.2559 0.3624 0.8962
vn 0.2095 0.3669 0.9064
vn -0.1070 0.1528 0.9824
vn -0.4281 0.4855 0.7623
vn -0.4448 0.4885 0.7507
vn -0.6793 0.4667 0.5663
vn -0.9215 0.1122 -0.3717
vn -0.8781 0.4190 0.2311
vn -0.7046 0.0795 -0.7051
vn 0.3343 0.0555 -0.9408
vn -0.7158 0.1423 -0.6836
vn 0.4568 0.1576 -0.8755
vn 0.6592 0.2174 -0.7199
vn 0.2578 0.5679 0.7817
vn -0.0068 0.6331 0.7740
vn -0.0884 0.8911 0.4452
vn -0.9127 0.4068 -0.0382
s 0
f 9//1 2//1 11//1
f 2//2 13//2 11//2
f 13//3 9//3 11//3
f 5//4 10//4 9//4
f 10//5 2//5 9//5
f 13//6 12//6 9//6
f 12//7 6//7 9//7
f 6//8 5//8 9//8
f 10//9 1//9 2//9
f 1//10 7//10 2//10
f 7//11 13//11 2//11
f 7//12 8//12 13//12
f 8//13 12//13 13//13
f 3//14 1//14 5//14
f 1//15 10//15 5//15
f 6//16 3//16 5//16
f 8//17 4//17 12//17
f 4//18 6//18 12//18
f 4//19 8//19 6//19
f 8//20 3//20 6//20
f 3//21 7//21 1//21
f 3//22 8//22 7//22
f 14//23 23//23 24//23
f 23//24 25//24 24//24
f 25//25 21//25 24//25
f 21//26 18//26 24//26
f 18//27 14//27 24//27
f 19//28 23//28 14//28
f 18//29 20//29 14//29
f 20//30 19//30 14//30
f 17//31 25//31 23//31
f 19//32 17//32 23//32
f 17//33 19//33 25//33
f 19//34 15//34 25//34
f 15//35 21//35 25//35
f 16//36 22//36 21//36
f 22//37 20//37 21//37
f 20//38 18//38 21//38
f 15//39 16//39 21//39
f 22//40 15//40 19//40
f 20//41 22//41 19//41
f 22//42 16//42 15//42
f 33//43 29//43 27//43
f 29//44 28//44 27//44
f 28//45 35//45 27//45
f 35//46 33//46 27//46
f 34//47 32//47 33//47
f 32//48 29//48 33//48
f 35//49 26//49 33//49
f 26//50 34//50 33//50
f 31//51 26//51 29//51
f 26//52 28//52 29//52
f 32//53 31//53 29//53
f 26//54 35//54 28//54
f 30//55 32//55 34//55
f 26//56 30//56 34//56
f 30//57 31//57 32//57
f 31//58 30//58 26//58
f 43//59 40//59 46//59
f 40//60 48//60 46//60
f 48//61 36//61 46//61
f 36//62 47//62 46//62
f 47//63 44//63 46//63
f 44//64 41//64 46//64
f 41//65 43//65 46//65
f 37//66 45//66 43//66
f 45//67 40//67 43//67
f 41//68 37//68 43//68
f 45//69 48//69 40//69
f 37//70 41//70 48//70
f 41//71 50//71 48//71
f 50//72 36//72 48//72
f 45//73 37//73 48//73
f 50//74 47//74 36//74
f 50//75 39//75 47//75
f 39//76 49//76 47//76
f 49//77 44//77 47//77
f 38//78 41//78 44//78
f 49//79 39//79 44//79
f 39//80 38//80 44//80
f 38//81 42//81 41//81
f 42//82 50//82 41//82
f 42//83 38//83 50//83
f 38//84 39//84 50//84
f 59//85 61//85 57//85
f 61//86 54//86 57//86
f 54//87 63//87 57//87
f 63//88 53//88 57//88
f 53//89 59//89 57//89
f 55//90 61//90 59//90
f 53//91 60//91 59//91
f 60//92 55//92 59//92
f 55//93 58//93 61//93
f 58//94 51//94 61//94
f 51//95 52//95 61//95
f 52//96 54//96 61//96
f 52//97 63//97 54//97
f 56//98 60//98 63//98
f 60//99 53//99 63//99
f 52//100 62//100 63//100
f 62//101 56//101 63//101
f 60//102 56//102 55//102
f 56//103 58//103 55//103
f 56//104 62//104 58//104
f 62//105 51//105 58//105
f 62//106 52//106 51//106
f 75//107 74//107 70//107
f 74//108 66//108 70//108
f 66//109 73//109 70//109
f 73//110 76//110 70//110
f 76//111 75//111 70//111
f 76//112 77//112 75//112
f 77//113 65//113 75//113
f 65//114 71//114 75//114
f 71//115 74//115 75//115
f 71//116 67//116 74//116
f 67//117 69//117 74//117
f 69//118 66//118 74//118
f 68//119 73//119 66//119
f 69//120 72//120 66//120
f 72//121 64//121 66//121
f 64//122 68//122 66//122
f 68//123 76//123 73//123
f 68//124 64//124 76//124
f 64//125 77//125 76//125
f 64//126 72//126 77//126
f 72//127 69//127 77//127
f 69//128 65//128 77//128
f 69//129 71//129 65//129
f 69//130 67//130 71//130
f 89//131 83//131 80//131
f 83//132 88//132 80//132
f 88//133 86//133 80//133
f 86//134 90//134 80//134
f 90//135 84//135 80//135
f 84//136 89//136 80//136
f 87//137 83//137 89//137
f 84//138 78//138 89//138
f 78//139 81//139 89//139
f 81//140 87//140 89//140
f 87//141 82//141 83//141
f 82//142 88//142 83//142
f 82//143 85//143 88//143
f 85//144 79//144 88//144
f 79//145 86//145 88//145
f 79//146 90//146 86//146
f 79//147 78//147 90//147
f 78//148 84//148 90//148
f 81//149 82//149 87//149
f 79//150 81//150 78//150
f 79//151 82//151 81//151
f 79//152 85//152 82//152
f 100//153 93//153 97//153
f 93//154 101//154 97//154
f 101//155 102//155 97//155
f 102//156 94//156 97//156
f 94//157 100//157 97//157
f 94//158 95//158 100//158
f 95//159 93//159 100//159
f 95//160 91//160 93//160
f 91//161 92//161 93//161
f 92//162 101//162 93//162
f 92//163 99//163 101//163
f 99//164 98//164 101//164
f 98//165 91//165 101//165
f 91//166 96//166 101//166
f 96//167 102//167 101//167
f 96//168 94//168 102//168
f 96//169 91//169 94//169
f 91//170 95//170 94//170
f 98//171 99//171 91//171
f 99//172 92//172 91//172
f 107//173 105//173 106//173
f 105//174 111//174 106//174
f 111//175 115//175 106//175
f 115//176 114//176 106//176
f 114//177 113//177 106//177
f 113//178 107//178 106//178
f 113//179 112//179 107//179
f 112//180 110//180 107//180
f 110//181 108//181 107//181
f 108//182 109//182 107//182
f 109//183 105//183 107//183
f 109//184 111//184 105//184
f 109//185 104//185 111//185
f 104//186 115//186 111//186
f 109//187 114//187 115//187
f 104//188 109//188 115//188
f 109//189 108//189 114//189
f 108//190 113//190 114//190
f 108//191 112//191 113//191
f 108//192 103//192 112//192
f 103//193 110//193 112//193
f 103//194 108//194 110//194
f 124//195 123//195 126//195
f 123//196 125//196 126//196
f 125//197 120//197 126//197
f 120//198 118//198 126//198
f 118//199 116//199 126//199
f 116//200 121//200 126//200
f 121//201 124//201 126//201
f 121//202 117//202 124//202
f 117//203 123//203 124//203
f 117//204 122//204 123//204
f 122//205 120//205 123//205
f 120//206 125//206 123//206
f 122//207 119//207 120//207
f 119//208 118//208 120//208
f 119//209 116//209 118//209
f 119//210 122//210 116//210
f 122//211 121//211 116//211
f 122//212 117//212 121//212
f 133//213 131//213 138//213
f 131//214 127//214 138//214
f 127//215 129//215 138//215
f 129//216 133//216 138//216
f 129//217 134//217 133//217
f 134//218 128//218 133//218
f 128//219 131//219 133//219
f 135//220 130//220 131//220
f 130//221 127//221 131//221
f 128//222 136//222 131//222
f 136//223 135//223 131//223
f 130//224 137//224 127//224
f 137//225 129//225 127//225
f 137//226 132//226 129//226
f 132//227 134//227 129//227
f 132//228 128//228 134//228
f 132//229 136//229 128//229
f 136//230 130//230 135//230
f 136//231 137//231 130//231
f 132//232 137//232 136//232
f 142//233 144//233 145//233
f 144//234 146//234 145//234
f 146//235 149//235 145//235
f 149//236 151//236 145//236
f 151//237 142//237 145//237
f 147//238 144//238 142//238
f 151//239 139//239 142//239
f 139//240 140//240 142//240
f 140//241 141//241 142//241
f 141//242 147//242 142//242
f 147//243 141//243 144//243
f 141//244 153//244 144//244
f 153//245 148//245 144//245
f 148//246 146//246 144//246
f 148//247 152//247 146//247
f 152//248 149//248 146//248
f 152//249 151//249 149//249
f 152//250 139//250 151//250
f 152//251 150//251 139//251
f 150//252 143//252 139//252
f 143//253 140//253 139//253
f 143//254 141//254 140//254
f 143//255 153//255 141//255
f 143//256 150//256 153//256
f 150//257 148//257 153//257
f 150//258 152//258 148//258
f 159//259 157//259 167//259
f 157//260 156//260 167//260
f 156//261 161//261 167//261
f 161//262 155//262 167//262
f 155//263 164//263 167//263
f 164//264 154//264 167//264
f 154//265 159//265 167//265
f 156//266 157//266 159//266
f 154//267 165//267 159//267
f 165//268 162//268 159//268
f 162//269 166//269 159//269
f 166//270 156//270 159//270
f 166//271 161//271 156//271
f 166//272 155//272 161//272
f 166//273 164//273 155//273
f 162//274 154//274 164//274
f 166//275 160//275 164//275
f 160//276 163//276 164//276
f 163//277 158//277 164//277
f 158//278 162//278 164//278
f 162//279 165//279 154//279
f 158//280 160//280 162//280
f 160//281 166//281 162//281
f 158//282 163//282 160//282
f 178//283 175//283 172//283
f 175//284 174//284 172//284
f 174//285 180//285 172//285
f 180//286 178//286 172//286
f 168//287 182//287 178//287
f 182//288 170//288 178//288
f 170//289 175//289 178//289
f 180//290 179//290 178//290
f 179//291 168//291 178//291
f 170//292 174//292 175//292
f 173//293 171//293 174//293
f 171//294 176//294 174//294
f 176//295 180//295 174//295
f 170//296 181//296 174//296
f 181//297 173//297 174//297
f 176//298 179//298 180//298
f 179//299 176//299 168//299
f 176//300 177//300 168//300
f 177//301 182//301 168//301
f 177//302 169//302 182//302
f 169//303 181//303 182//303
f 181//304 170//304 182//304
f 177//305 171//305 173//305
f 181//306 169//306 173//306
f 169//307 177//307 173//307
f 177//308 176//308 171//308
f 194//309 189//309 183//309
f 189//310 196//310 183//310
f 196//311 190//311 183//311
f 190//312 184//312 183//312
f 184//313 194//313 183//313
f 191//314 189//314 194//314
f 184//315 193//315 194//315
f 193//316 186//316 194//316
f 186//317 192//317 194//317
f 192//318 187//318 194//318
f 187//319 191//319 194//319
f 191//320 195//320 189//320
f 195//321 196//321 189//321
f 188//322 190//322 196//322
f 195//323 188//323 196//323
f 188//324 186//324 190//324
f 186//325 184//325 190//325
f 186//326 193//326 184//326
f 187//327 195//327 191//327
f 188//328 192//328 186//328
f 188//329 185//329 192//329
f 185//330 187//330 192//330
f 185//331 195//331 187//331
f 185//332 188//332 195//332
f 205//333 202//333 204//333
f 202//334 197//334 204//334
f 197//335 206//335 204//335
f 206//336 205//336 204//336
f 206//337 198//337 205//337
f 198//338 199//338 205//338
f 199//339 202//339 205//339
f 199//340 200//340 202//340
f 200//341 203//341 202//341
f 203//342 197//342 202//342
f 201//343 206//343 197//343
f 203//344 201//344 197//344
f 201//345 200//345 206//345
f 200//346 198//346 206//346
f 200//347 199//347 198//347
f 201//348 203//348 200//348
f 207//349 215//349 211//349
f 215//350 213//350 211//350
f 213//351 214//351 211//351
f 214//352 216//352 211//352
f 216//353 210//353 211//353
f 210//354 207//354 211//354
f 210//355 208//355 207//355
f 208//356 212//356 207//356
f 212//357 209//357 207//357
f 209//358 213//358 207//358
f 213//359 215//359 207//359
f 209//360 212//360 213//360
f 212//361 214//361 213//361
f 212//362 216//362 214//362
f 212//363 210//363 216//363
f 212//364 208//364 210//364
f 227//365 225//365 219//365
f 225//366 223//366 219//366
f 223//367 224//367 219//367
f 224//368 232//368 219//368
f 232//369 220//369 219//369
f 220//370 226//370 219//370
f 226//371 227//371 219//371
f 226//372 225//372 227//372
f 226//373 217//373 225//373
f 217//374 221//374 225//374
f 221//375 228//375 225//375
f 228//376 223//376 225//376
f 228//377 224//377 223//377
f 228//378 232//378 224//378
f 222//379 220//379 232//379
f 228//380 222//380 232//380
f 229//381 217//381 220//381
f 217//382 226//382 220//382
f 222//383 230//383 220//383
f 230//384 229//384 220//384
f 229//385 218//385 217//385
f 218//386 231//386 217//386
f 231//387 221//387 217//387
f 231//388 228//388 221//388
f 231//389 230//389 228//389
f 230//390 222//390 228//390
f 230//391 231//391 229//391
f 231//392 218//392 229//392
f 235//393 245//393 243//393
f 245//394 233//394 243//394
f 233//395 244//395 243//395
f 244//396 237//396 243//396
f 237//397 246//397 243//397
f 246//398 241//398 243//398
f 241//399 236//399 243//399
f 236//400 235//400 243//400
f 236//401 239//401 235//401
f 239//402 245//402 235//402
f 239//403 247//403 245//403
f 247//404 233//404 245//404
f 247//405 239//405 233//405
f 239//406 242//406 233//406
f 242//407 244//407 233//407
f 234//408 237//408 244//408
f 242//409 234//409 244//409
f 234//410 246//410 237//410
f 238//411 241//411 246//411
f 234//412 238//412 246//412
f 238//413 240//413 241//413
f 240//414 236//414 241//414
f 240//415 239//415 236//415
f 240//416 242//416 239//416
f 240//417 238//417 242//417
f 238//418 234//418 242//418
