# Blender 5.2.0 LTS
# www.blender.org
o ManhVo2
v 0.134104 0.151705 -0.021363
v 0.004546 0.138760 -0.104513
v -0.016150 0.174408 0.092263
v 0.067699 0.193389 0.095908
v -0.002470 -0.055832 0.071818
v -0.060214 -0.062523 -0.081321
v 0.006218 -0.171746 0.048865
v -0.036244 0.002051 -0.096952
v 0.115702 0.121353 0.038771
v 0.090271 -0.026006 -0.042627
v 0.058056 0.012886 0.070461
v -0.007277 -0.136455 -0.074993
vn 0.0897 0.9534 -0.2881
vn -0.2084 0.9583 -0.1955
vn -0.0230 -0.0898 0.9957
vn 0.1886 -0.1470 0.9710
vn 0.6649 -0.1390 0.7339
vn 0.8764 0.2651 0.4020
vn 0.9532 -0.2546 0.1632
vn 0.5422 -0.0333 -0.8396
vn -0.9021 0.2497 -0.3518
vn -0.9459 0.2869 -0.1515
vn 0.4273 -0.1146 -0.8968
vn 0.1981 -0.1129 -0.9737
vn -0.9309 -0.0868 0.3548
vn -0.9245 -0.1395 0.3547
vn 0.2188 -0.1737 0.9602
vn 0.8166 -0.2878 0.5004
vn 0.8951 -0.3238 0.3065
vn 0.7607 -0.5977 -0.2532
vn -0.1400 -0.1835 -0.9730
vn -0.8073 -0.5848 -0.0787
s 0
f 1//1 2//1 4//1
f 2//2 3//2 4//2
f 3//3 5//3 4//3
f 5//4 11//4 4//4
f 11//5 9//5 4//5
f 9//6 1//6 4//6
f 9//7 10//7 1//7
f 10//8 2//8 1//8
f 8//9 6//9 2//9
f 6//10 3//10 2//10
f 10//11 12//11 2//11
f 12//12 8//12 2//12
f 6//13 5//13 3//13
f 6//14 7//14 5//14
f 7//15 11//15 5//15
f 7//16 9//16 11//16
f 7//17 10//17 9//17
f 7//18 12//18 10//18
f 12//19 6//19 8//19
f 12//20 7//20 6//20
