# Blender 5.2.0 LTS
# www.blender.org
o ManhVo0
v 0.027131 -0.167662 0.025047
v -0.026458 -0.132116 0.070002
v 0.109942 0.034066 0.058689
v -0.080636 -0.196884 0.043023
v 0.059734 0.186424 -0.107398
v -0.027345 0.070448 0.082656
v 0.072248 -0.075877 0.037893
v 0.140619 0.163351 -0.026639
v -0.060826 -0.053942 0.051995
v 0.078169 -0.020132 -0.076620
v -0.000105 -0.217484 0.035487
v 0.086839 0.181288 -0.069264
v 0.006675 -0.002870 0.106522
vn 0.2605 0.4060 0.8759
vn -0.5812 -0.0048 0.8138
vn -0.2199 -0.2126 0.9521
vn 0.2000 -0.3136 0.9283
vn 0.4855 -0.2885 0.8253
vn 0.6694 -0.3531 0.6536
vn 0.9469 -0.3057 -0.0999
vn 0.9498 -0.2947 -0.1050
vn 0.2734 0.4838 0.8314
vn -0.1296 0.8449 0.5190
vn -0.3507 0.8622 0.3654
vn -0.9223 0.3063 -0.2356
vn -0.8127 0.0764 0.5776
vn -0.0099 -0.3774 0.9260
vn -0.8843 0.1503 -0.4422
vn -0.4644 -0.1709 -0.8690
vn -0.1917 -0.4262 -0.8841
vn 0.7962 -0.5051 -0.3332
vn 0.8809 -0.4525 0.1389
vn 0.8948 -0.4179 -0.1571
vn 0.6996 -0.0438 -0.7132
vn 0.4513 0.8688 -0.2038
s 0
f 3//1 6//1 13//1
f 6//2 4//2 13//2
f 4//3 2//3 13//3
f 2//4 11//4 13//4
f 11//5 3//5 13//5
f 11//6 7//6 3//6
f 7//7 10//7 3//7
f 10//8 8//8 3//8
f 8//9 6//9 3//9
f 8//10 12//10 6//10
f 12//11 5//11 6//11
f 5//12 9//12 6//12
f 9//13 4//13 6//13
f 11//14 2//14 4//14
f 9//15 5//15 4//15
f 5//16 10//16 4//16
f 10//17 11//17 4//17
f 10//18 1//18 11//18
f 1//19 7//19 11//19
f 1//20 10//20 7//20
f 5//21 8//21 10//21
f 5//22 12//22 8//22
