# Blender 5.2.0 LTS
# www.blender.org
o ManhVo1
v 0.022891 0.002536 0.082145
v -0.013472 0.164833 0.103685
v -0.046071 0.235874 -0.001072
v -0.058863 0.093064 -0.027031
v 0.015281 -0.178448 -0.014990
v -0.037769 -0.218987 0.039968
v -0.017116 0.104343 -0.089210
v 0.020663 0.063891 0.108859
v -0.081591 -0.119137 0.030231
v 0.115937 0.148926 -0.070005
v 0.118196 0.203971 0.079153
v 0.044854 0.113359 -0.080861
v -0.067980 0.029047 0.029030
vn -0.4639 -0.1180 0.8780
vn 0.5905 -0.3040 0.7475
vn 0.6339 -0.2893 0.7173
vn 0.1528 0.1021 0.9830
vn -0.4695 -0.1139 0.8756
vn -0.5539 -0.3181 -0.7694
vn -0.8713 0.0840 0.4835
vn -0.9942 0.0908 -0.0579
vn -0.8231 -0.0641 -0.5643
vn -0.5384 -0.2711 -0.7979
vn 0.7893 -0.3385 0.5122
vn 0.6815 -0.3126 0.6617
vn 0.3331 0.8829 -0.3309
vn -0.1295 0.8015 0.5838
vn 0.9562 -0.2791 0.0885
vn -0.9096 0.1526 0.3865
vn 0.1631 -0.2329 -0.9587
vn 0.2618 -0.2377 -0.9354
vn -0.9939 0.0981 -0.0497
vn -0.8321 0.1705 -0.5278
vn -0.0624 0.5461 -0.8354
vn 0.1262 0.0503 -0.9907
s 0
f 9//1 6//1 8//1
f 6//2 1//2 8//2
f 1//3 11//3 8//3
f 11//4 2//4 8//4
f 2//5 9//5 8//5
f 5//6 6//6 9//6
f 2//7 13//7 9//7
f 13//8 4//8 9//8
f 4//9 7//9 9//9
f 7//10 5//10 9//10
f 5//11 11//11 6//11
f 11//12 1//12 6//12
f 10//13 3//13 11//13
f 3//14 2//14 11//14
f 5//15 10//15 11//15
f 3//16 13//16 2//16
f 7//17 12//17 5//17
f 12//18 10//18 5//18
f 3//19 4//19 13//19
f 3//20 7//20 4//20
f 3//21 10//21 7//21
f 10//22 12//22 7//22
