# Blender 5.2.0 LTS
# www.blender.org
o ManhVo3
v -0.066213 0.042900 -0.059943
v -0.022903 -0.116324 0.043367
v -0.022151 -0.144333 -0.032829
v 0.103415 0.032087 -0.033290
v 0.096875 0.045602 0.007690
v 0.017612 0.059761 -0.099041
v -0.047021 -0.126971 -0.029113
v -0.061441 -0.174333 0.002270
v -0.003139 -0.171074 0.000726
vn 0.4454 0.8690 -0.2155
vn 0.8698 -0.4103 0.2741
vn 0.5974 -0.4270 -0.6788
vn 0.4943 -0.3539 -0.7940
vn -0.1007 0.9738 0.2040
vn -0.3050 -0.2396 -0.9217
vn -0.3792 -0.2065 -0.9020
vn -0.3500 0.4410 0.8264
vn 0.6375 -0.3168 0.7023
vn 0.0266 -0.7744 -0.6322
vn 0.0547 -0.6012 0.7972
vn -0.4102 -0.4137 -0.8128
vn -0.7401 -0.2001 -0.6421
vn -0.8147 0.1431 0.5620
s 0
f 6//1 5//1 4//1
f 5//2 9//2 4//2
f 9//3 3//3 4//3
f 3//4 6//4 4//4
f 1//5 5//5 6//5
f 3//6 7//6 6//6
f 7//7 1//7 6//7
f 1//8 2//8 5//8
f 2//9 9//9 5//9
f 8//10 3//10 9//10
f 2//11 8//11 9//11
f 8//12 7//12 3//12
f 7//13 8//13 1//13
f 8//14 2//14 1//14
