# Blender 5.2.0 LTS
# www.blender.org
o TangBang1
v 0.144817 0.259391 0.140514
v 0.109637 -0.000392 -0.113889
v -0.142452 -0.350875 0.026273
v 0.059365 0.390917 0.143614
v -0.084124 0.255752 0.099409
v 0.012959 0.463871 -0.112822
v 0.001052 0.498705 0.076432
v -0.094944 -0.274893 0.078906
v -0.045600 0.377090 0.126116
v 0.010699 0.306833 0.143150
v 0.018454 -0.277825 0.032819
v -0.110264 -0.346126 0.055253
v -0.120919 -0.309793 0.058124
v -0.072859 -0.390321 0.059371
v 0.130571 0.029888 0.086158
vn -0.2036 0.4362 0.8765
vn -0.1760 0.0965 0.9796
vn 0.0147 -0.0140 0.9998
vn 0.8318 0.5371 0.1398
vn -0.9405 0.3186 -0.1178
vn -0.9419 0.3209 -0.0991
vn 0.8611 0.5069 -0.0391
vn -0.5211 -0.0223 0.8532
vn -0.3376 -0.0425 0.9403
vn -0.0181 -0.1065 0.9941
vn 0.0830 -0.1508 0.9851
vn 0.3688 -0.2358 0.8991
vn 0.9944 -0.0385 -0.0982
vn 0.9255 0.1935 -0.3256
vn -0.3966 -0.0805 -0.9145
vn -0.9433 0.1276 -0.3064
vn -0.8369 0.0145 0.5471
vn -0.6096 -0.0182 0.7925
vn -0.4369 -0.1975 0.8776
vn -0.3626 -0.2225 0.9050
vn -0.5726 -0.4190 0.7047
vn 0.1545 -0.4607 -0.8740
vn 0.4400 -0.5285 -0.7260
vn 0.6323 -0.3502 0.6910
vn 0.9411 -0.3346 -0.0478
vn -0.6290 -0.2428 0.7385
s 0
f 7//1 9//1 4//1
f 9//2 10//2 4//2
f 10//3 1//3 4//3
f 1//4 7//4 4//4
f 6//5 5//5 7//5
f 5//6 9//6 7//6
f 1//7 6//7 7//7
f 5//8 8//8 9//8
f 8//9 10//9 9//9
f 8//10 1//10 10//10
f 8//11 14//11 1//11
f 14//12 15//12 1//12
f 15//13 2//13 1//13
f 2//14 6//14 1//14
f 2//15 3//15 6//15
f 3//16 5//16 6//16
f 3//17 13//17 5//17
f 13//18 8//18 5//18
f 13//19 12//19 8//19
f 12//20 14//20 8//20
f 12//21 3//21 14//21
f 3//22 2//22 14//22
f 2//23 11//23 14//23
f 11//24 15//24 14//24
f 11//25 2//25 15//25
f 12//26 13//26 3//26
