# Blender 5.2.0 LTS
# www.blender.org
o TangBang5
v -0.131299 -0.307001 0.013428
v -0.106173 -0.267424 -0.043091
v 0.123537 0.021915 -0.098585
v 0.017853 0.094954 -0.123590
v 0.038607 0.252180 0.166446
v -0.112255 -0.107890 -0.020756
v 0.114126 0.188193 0.130488
v -0.019420 -0.261577 0.068700
v -0.010153 -0.319693 0.031452
v -0.036907 -0.349491 -0.051826
v 0.136391 0.042495 -0.017046
v 0.138298 0.236928 -0.103181
v 0.055279 0.044096 0.158602
v -0.085540 -0.232503 0.086186
v -0.028579 0.383305 -0.084205
v -0.014497 0.381535 0.088974
v -0.001891 -0.144192 0.117185
vn 0.6914 0.5584 0.4584
vn -0.7510 0.0839 0.6549
vn -0.3548 -0.0636 0.9328
vn 0.4302 0.0004 0.9027
vn 0.7950 0.5722 0.2016
vn 0.8714 -0.2769 0.4049
vn 0.9930 0.0394 0.1109
vn 0.6558 0.7536 -0.0456
vn -0.9807 0.1776 0.0816
vn -0.9583 0.1349 0.2520
vn -0.8853 0.1004 0.4540
vn -0.1785 -0.6292 0.7565
vn -0.0157 -0.5413 0.8407
vn 0.0714 -0.3899 0.9181
vn -0.1972 -0.1531 0.9683
vn 0.6778 -0.3482 0.6476
vn 0.8660 -0.2965 0.4026
vn 0.9879 -0.0708 -0.1379
vn 0.2071 -0.0351 -0.9777
vn 0.0070 0.1364 -0.9906
vn 0.9235 -0.3803 -0.0496
vn -0.5803 0.0178 -0.8142
vn -0.7894 0.0555 -0.6114
vn -0.9188 0.0202 -0.3943
vn -0.1517 -0.9142 0.3758
vn -0.6352 -0.4710 -0.6122
vn 0.9017 -0.4077 -0.1438
vn 0.5473 -0.3880 0.7416
vn 0.1127 -0.1719 -0.9786
vn -0.2649 -0.1218 -0.9565
s 0
f 7//1 16//1 5//1
f 16//2 14//2 5//2
f 14//3 13//3 5//3
f 13//4 7//4 5//4
f 12//5 16//5 7//5
f 13//6 11//6 7//6
f 11//7 12//7 7//7
f 12//8 15//8 16//8
f 15//9 6//9 16//9
f 6//10 1//10 16//10
f 1//11 14//11 16//11
f 1//12 9//12 14//12
f 9//13 8//13 14//13
f 8//14 17//14 14//14
f 17//15 13//15 14//15
f 17//16 9//16 13//16
f 9//17 11//17 13//17
f 11//18 3//18 12//18
f 3//19 4//19 12//19
f 4//20 15//20 12//20
f 9//21 3//21 11//21
f 4//22 2//22 15//22
f 2//23 6//23 15//23
f 2//24 1//24 6//24
f 10//25 9//25 1//25
f 2//26 10//26 1//26
f 10//27 3//27 9//27
f 17//28 8//28 9//28
f 10//29 4//29 3//29
f 10//30 2//30 4//30
