# Blender 5.2.0 LTS
# www.blender.org
o TangBang0
v 0.102727 0.366945 -0.112498
v -0.118883 -0.394885 0.013812
v -0.030852 0.313254 -0.073802
v -0.116464 -0.404293 -0.023939
v 0.105068 -0.002445 0.055193
v -0.132137 -0.517328 0.003853
v -0.041106 0.152500 0.085501
v -0.028225 -0.085845 0.093748
v -0.104874 -0.481870 0.026378
v -0.063920 -0.470304 0.015629
v 0.090324 -0.064905 -0.034845
v -0.088076 -0.015292 0.021785
v 0.138798 0.253842 0.101401
v -0.073189 -0.416471 0.045701
v -0.055192 0.214740 -0.058764
vn -0.2019 0.8513 0.4842
vn -0.4226 0.6514 0.6301
vn -0.1041 0.0288 0.9942
vn 0.3211 -0.1788 0.9300
vn 0.4549 -0.2157 0.8640
vn 0.9899 -0.1155 -0.0820
vn 0.9780 -0.0638 -0.1987
vn -0.2649 -0.0354 -0.9636
vn 0.2426 -0.1784 -0.9536
vn -0.5455 0.0068 -0.8381
vn -0.9422 0.2642 0.2060
vn -0.9628 0.2009 0.1807
vn -0.8731 0.0607 0.4838
vn -0.8254 0.0436 0.5629
vn -0.6359 -0.0077 0.7718
vn -0.6287 -0.0106 0.7776
vn -0.3944 -0.0794 0.9155
vn 0.3386 -0.4138 0.8451
vn 0.6357 -0.2901 0.7153
vn 0.9347 -0.3449 0.0862
vn 0.3625 -0.2497 -0.8979
vn 0.3408 -0.2688 -0.9009
vn -0.9753 0.0850 -0.2041
vn -0.9858 0.0916 -0.1410
vn -0.9103 0.0653 0.4087
vn 0.3597 -0.6815 0.6373
s 0
f 1//1 3//1 13//1
f 3//2 7//2 13//2
f 7//3 8//3 13//3
f 8//4 14//4 13//4
f 14//5 5//5 13//5
f 5//6 11//6 13//6
f 11//7 1//7 13//7
f 4//8 3//8 1//8
f 11//9 4//9 1//9
f 4//10 15//10 3//10
f 15//11 7//11 3//11
f 15//12 12//12 7//12
f 12//13 2//13 7//13
f 2//14 6//14 7//14
f 6//15 8//15 7//15
f 6//16 9//16 8//16
f 9//17 14//17 8//17
f 9//18 10//18 14//18
f 10//19 5//19 14//19
f 10//20 11//20 5//20
f 10//21 4//21 11//21
f 10//22 6//22 4//22
f 6//23 15//23 4//23
f 6//24 12//24 15//24
f 6//25 2//25 12//25
f 10//26 9//26 6//26
