# Blender 5.2.0 LTS
# www.blender.org
o TangBang4
v -0.110276 -0.031474 -0.001743
v -0.081317 0.209036 0.080587
v -0.121956 -0.324563 0.044453
v -0.052986 -0.436239 -0.010261
v -0.110829 -0.516509 -0.032168
v -0.117114 -0.382737 0.040787
v -0.062972 0.300158 -0.080279
v -0.093157 -0.359759 0.042058
v 0.096900 0.383089 -0.133723
v 0.075608 -0.008115 -0.060129
v -0.104735 -0.011535 -0.028874
v -0.039446 -0.353139 0.035849
v -0.114788 -0.507587 -0.031695
v -0.017289 -0.062404 -0.110335
v 0.113357 0.402183 -0.125286
v -0.084088 -0.487866 -0.033068
v 0.052792 -0.123304 0.034846
vn -0.3693 0.8260 0.4258
vn -0.9905 0.1323 -0.0380
vn -0.9852 0.0643 0.1588
vn -0.0294 -0.0653 0.9974
vn 0.0121 -0.0678 0.9976
vn 0.1230 -0.0696 0.9900
vn 0.1734 -0.0653 0.9827
vn 0.6410 0.1552 0.7517
vn -0.5241 0.6789 -0.5142
vn 0.9854 -0.0657 0.1570
vn 0.6052 -0.1789 -0.7757
vn -0.9865 0.1126 -0.1187
vn -0.3336 0.0361 -0.9420
vn -0.6011 -0.0095 -0.7991
vn -0.8319 0.0200 -0.5545
vn -0.9825 0.0210 -0.1852
vn -0.9905 0.0180 -0.1364
vn -0.9883 -0.0900 0.1234
vn 0.1364 -0.1960 0.9711
vn -0.7281 -0.3542 0.5868
vn 0.2291 -0.4577 0.8591
vn 0.3922 -0.4943 0.7757
vn 0.8635 -0.3449 0.3681
vn 0.9443 -0.2995 -0.1364
vn 0.5482 -0.1833 -0.8160
vn 0.8378 -0.3044 -0.4533
vn 0.5641 -0.2325 -0.7923
vn -0.3259 -0.0948 -0.9406
vn 0.1859 -0.2038 -0.9612
vn 0.6564 -0.5984 0.4594
s 0
f 15//1 7//1 2//1
f 7//2 1//2 2//2
f 1//3 3//3 2//3
f 3//4 6//4 2//4
f 6//5 8//5 2//5
f 8//6 12//6 2//6
f 12//7 17//7 2//7
f 17//8 15//8 2//8
f 9//9 7//9 15//9
f 17//10 10//10 15//10
f 10//11 9//11 15//11
f 11//12 1//12 7//12
f 9//13 14//13 7//13
f 14//14 13//14 7//14
f 13//15 11//15 7//15
f 11//16 13//16 1//16
f 13//17 3//17 1//17
f 13//18 6//18 3//18
f 12//19 8//19 6//19
f 13//20 5//20 6//20
f 5//21 12//21 6//21
f 5//22 4//22 12//22
f 4//23 17//23 12//23
f 4//24 10//24 17//24
f 10//25 14//25 9//25
f 4//26 16//26 10//26
f 16//27 14//27 10//27
f 5//28 13//28 14//28
f 16//29 5//29 14//29
f 16//30 4//30 5//30
