# Blender 5.2.0 LTS
# www.blender.org
o TangBang2
v 0.022136 -0.184466 -0.029816
v 0.212067 0.591705 0.017650
v -0.120630 -0.624671 0.006223
v -0.043894 -0.288264 0.049185
v -0.054282 0.001754 0.067724
v -0.065816 -0.339318 -0.040808
v -0.128418 -0.551067 -0.012361
v -0.073231 -0.315312 0.042175
v 0.021334 -0.124728 0.058887
v 0.127113 0.270546 -0.069248
v 0.056105 -0.056605 0.051326
v -0.080579 -0.503337 0.006129
v 0.076523 0.076366 -0.060301
vn -0.8327 0.3388 -0.4380
vn 0.1459 0.0181 0.9891
vn 0.2138 -0.0007 0.9769
vn 0.9712 -0.2355 -0.0355
vn 0.9685 -0.2314 -0.0917
vn 0.7841 -0.2308 -0.5761
vn -0.0100 -0.0434 -0.9990
vn -0.7719 0.2163 -0.5978
vn -0.8506 0.1854 -0.4921
vn -0.8554 0.0399 0.5165
vn -0.3558 -0.0539 0.9330
vn -0.1713 -0.0690 0.9828
vn 0.0106 -0.0634 0.9979
vn 0.3643 -0.1993 0.9097
vn 0.6665 -0.2628 0.6977
vn 0.9266 -0.3057 0.2192
vn 0.9517 -0.2985 0.0719
vn 0.9474 -0.3128 -0.0674
vn 0.5165 -0.2349 -0.8234
vn 0.4542 -0.1963 -0.8690
vn 0.2762 -0.2077 -0.9384
vn -0.1511 -0.0912 0.9843
s 0
f 10//1 5//1 2//1
f 5//2 9//2 2//2
f 9//3 11//3 2//3
f 11//4 1//4 2//4
f 1//5 10//5 2//5
f 1//6 13//6 10//6
f 13//7 6//7 10//7
f 6//8 5//8 10//8
f 6//9 7//9 5//9
f 7//10 3//10 5//10
f 3//11 8//11 5//11
f 8//12 4//12 5//12
f 4//13 9//13 5//13
f 4//14 3//14 9//14
f 3//15 11//15 9//15
f 3//16 12//16 11//16
f 12//17 1//17 11//17
f 12//18 3//18 1//18
f 3//19 6//19 1//19
f 6//20 13//20 1//20
f 3//21 7//21 6//21
f 4//22 8//22 3//22
