# Blender 5.2.0 LTS
# www.blender.org
o TangBang3
v 0.153410 0.234178 0.150405
v 0.160129 0.342477 -0.158937
v -0.157397 0.006043 -0.045767
v 0.029791 -0.134072 0.110142
v -0.136764 -0.343749 -0.012304
v 0.127090 0.009314 -0.049709
v 0.022579 -0.262386 -0.076303
v -0.016285 0.262000 -0.112770
v -0.118120 -0.012915 0.048626
v -0.123370 -0.207108 -0.092120
v -0.163093 -0.186933 0.020645
v -0.075265 0.192520 -0.138042
v 0.000686 -0.322780 0.048623
v 0.148436 0.298511 0.145740
v -0.011563 0.206397 -0.161283
v 0.120013 -0.056070 -0.016686
v -0.147976 -0.128109 0.052502
v 0.155004 0.136577 -0.069209
v 0.018996 -0.272323 0.057246
vn 0.9845 -0.1577 0.0773
vn 0.9997 -0.0182 0.0153
vn 0.9955 0.0806 0.0498
vn -0.3525 0.0405 0.9349
vn -0.3085 -0.0005 0.9512
vn 0.6932 -0.3041 0.6535
vn 0.8908 -0.2993 0.3418
vn 0.9239 -0.2474 -0.2918
vn 0.9131 -0.3631 0.1856
vn 0.9081 -0.4166 -0.0423
vn 0.8685 -0.2951 -0.3982
vn 0.8069 -0.2584 -0.5312
vn 0.8005 -0.2561 -0.5419
vn -0.3908 0.5063 -0.7687
vn -0.4504 0.6170 -0.6453
vn -0.3866 0.9148 0.1172
vn 0.1451 -0.1662 -0.9754
vn -0.7515 0.5204 0.4054
vn -0.7510 0.5132 0.4155
vn -0.4948 0.1570 0.8547
vn -0.8778 0.2414 0.4137
vn -0.9623 0.1135 0.2471
vn -0.5940 -0.2597 0.7614
vn -0.3515 -0.2862 0.8914
vn -0.3061 -0.2521 0.9180
vn 0.5624 -0.3334 0.7567
vn 0.2991 -0.8786 -0.3723
vn -0.0940 -0.4953 -0.8636
vn 0.0402 -0.1754 -0.9837
vn -0.3287 -0.0687 -0.9419
vn -0.7708 0.5209 0.3667
vn -0.7647 0.0180 -0.6442
vn -0.9445 -0.0816 -0.3181
vn -0.9442 -0.0921 -0.3161
s 0
f 16//1 18//1 1//1
f 18//2 2//2 1//2
f 2//3 14//3 1//3
f 14//4 17//4 1//4
f 17//5 4//5 1//5
f 4//6 19//6 1//6
f 19//7 16//7 1//7
f 6//8 18//8 16//8
f 19//9 13//9 16//9
f 13//10 7//10 16//10
f 7//11 6//11 16//11
f 6//12 7//12 18//12
f 7//13 2//13 18//13
f 15//14 12//14 2//14
f 12//15 8//15 2//15
f 8//16 14//16 2//16
f 7//17 15//17 2//17
f 8//18 3//18 14//18
f 3//19 9//19 14//19
f 9//20 17//20 14//20
f 9//21 3//21 17//21
f 3//22 11//22 17//22
f 11//23 5//23 17//23
f 5//24 13//24 17//24
f 13//25 4//25 17//25
f 13//26 19//26 4//26
f 5//27 7//27 13//27
f 5//28 10//28 7//28
f 10//29 15//29 7//29
f 10//30 12//30 15//30
f 3//31 8//31 12//31
f 10//32 3//32 12//32
f 10//33 11//33 3//33
f 10//34 5//34 11//34
